<svg width="398" height="300" viewBox="0 0 398 300" fill="none" xmlns="http://www.w3.org/2000/svg">
<path d="M46.73 148.361L84.8037 148.196L122.877 148.136L199.025 148.023L275.172 148.136L313.246 148.196L351.32 148.361L313.246 148.534L275.172 148.595L199.025 148.707L122.877 148.595L84.8037 148.534L46.73 148.361Z" fill="#EBEBEB"/>
<path d="M46.73 124.508L84.8037 124.343L122.877 124.282L199.025 124.17L275.172 124.282L313.246 124.343L351.32 124.508L313.246 124.681L275.172 124.741L199.025 124.854L122.877 124.741L84.8037 124.681L46.73 124.508Z" fill="#EBEBEB"/>
<path d="M46.73 100.662L84.8037 100.489L122.877 100.429L199.025 100.316L275.172 100.429L313.246 100.489L351.32 100.662L313.246 100.828L275.172 100.888L199.025 101.001L122.877 100.888L84.8037 100.828L46.73 100.662Z" fill="#EBEBEB"/>
<path d="M46.73 76.8087L84.8037 76.6358L122.877 76.5756L199.025 76.4628L275.172 76.5756L313.246 76.6358L351.32 76.8087L313.246 76.9742L275.172 77.0343L199.025 77.1546L122.877 77.0343L84.8037 76.9742L46.73 76.8087Z" fill="#EBEBEB"/>
<path d="M46.73 52.9553L84.8037 52.7899L122.877 52.7222L199.025 52.6094L275.172 52.7222L313.246 52.7823L351.32 52.9553L313.246 53.1207L275.172 53.1809L199.025 53.3012L122.877 53.1809L84.8037 53.1207L46.73 52.9553Z" fill="#EBEBEB"/>
<path d="M46.73 29.1019L84.8037 28.9365L122.877 28.8763L199.025 28.756L275.172 28.8688L313.246 28.9365L351.32 29.1019L313.246 29.2673L275.172 29.335L199.025 29.4478L122.877 29.3275L84.8037 29.2673L46.73 29.1019Z" fill="#EBEBEB"/>
<path d="M46.73 172.237L84.8037 172.072L122.877 172.012L199.025 171.891L275.172 172.012L313.246 172.072L351.32 172.237L313.246 172.403L275.172 172.471L199.025 172.583L122.877 172.463L84.8037 172.403L46.73 172.237Z" fill="#EBEBEB"/>
<path d="M46.73 196.113L84.8037 195.948L122.877 195.88L199.025 195.767L275.172 195.88L313.246 195.94L351.32 196.113L313.246 196.279L275.172 196.339L199.025 196.459L122.877 196.339L84.8037 196.279L46.73 196.113Z" fill="#EBEBEB"/>
<path d="M46.73 219.982L84.8037 219.816L122.877 219.756L199.025 219.643L275.172 219.756L313.246 219.816L351.32 219.982L313.246 220.155L275.172 220.215L199.025 220.328L122.877 220.215L84.8037 220.155L46.73 219.982Z" fill="#EBEBEB"/>
<path d="M46.73 243.858L84.8037 243.692L122.877 243.632L199.025 243.512L275.172 243.632L313.246 243.692L351.32 243.858L313.246 244.031L275.172 244.091L199.025 244.204L122.877 244.091L84.8037 244.031L46.73 243.858Z" fill="#EBEBEB"/>
<path d="M351.312 171.891H46.73V195.767H351.312V171.891Z" fill="#DBDBDB"/>
<path d="M225.029 3L225.217 30.6585L225.285 51.4212L225.405 183.367L225.285 224.885L225.217 245.648L225.029 266.403L224.848 245.648L224.781 224.885L224.653 183.367L224.781 51.4212L224.848 30.6585L225.029 3Z" fill="#EBEBEB"/>
<path d="M199.025 3L199.205 30.6585L199.273 51.4212L199.401 183.367L199.273 224.885L199.213 245.648L199.025 266.403L198.837 245.648L198.777 224.885L198.649 183.367L198.777 51.4212L198.844 30.6585L199.025 3Z" fill="#EBEBEB"/>
<path d="M173.021 3L173.201 30.6585L173.269 51.4212L173.389 183.367L173.269 224.885L173.201 245.648L173.021 266.403L172.833 245.648L172.765 224.885L172.645 183.367L172.765 51.4212L172.833 30.6585L173.021 3Z" fill="#EBEBEB"/>
<path d="M147.009 3L147.189 30.6585L147.257 51.4212L147.385 183.367L147.257 224.885L147.197 245.648L147.009 266.403L146.828 245.648L146.761 224.885L146.633 183.367L146.761 51.4212L146.828 30.6585L147.009 3Z" fill="#EBEBEB"/>
<path d="M303.056 3L303.237 30.6585L303.304 51.4212L303.432 183.367L303.304 224.885L303.237 245.648L303.056 266.403L302.868 245.648L302.8 224.885L302.68 183.367L302.808 51.4212L302.868 30.6585L303.056 3Z" fill="#EBEBEB"/>
<path d="M277.045 3L277.233 30.6585L277.293 51.4212L277.421 183.367L277.293 224.885L277.233 245.648L277.045 266.403L276.864 245.648L276.797 224.885L276.669 183.367L276.797 51.4212L276.864 30.6585L277.045 3Z" fill="#EBEBEB"/>
<path d="M251.041 3L251.221 30.6585L251.289 51.4212L251.417 183.367L251.289 224.885L251.221 245.648L251.041 266.403L250.853 245.648L250.792 224.885L250.665 183.367L250.792 51.4212L250.86 30.6585L251.041 3Z" fill="#EBEBEB"/>
<path d="M329.061 3L329.241 30.6585L329.309 51.4212L329.437 183.367L329.309 224.885L329.249 245.648L329.061 266.403L328.88 245.648L328.812 224.885L328.685 183.367L328.812 51.4212L328.88 30.6585L329.061 3Z" fill="#EBEBEB"/>
<path d="M303.056 3L303.237 30.6585L303.304 51.4212L303.432 183.367L303.304 224.885L303.237 245.648L303.056 266.403L302.868 245.648L302.8 224.885L302.68 183.367L302.808 51.4212L302.868 30.6585L303.056 3Z" fill="#EBEBEB"/>
<path d="M121.005 3L121.185 30.6585L121.253 51.4212L121.381 183.367L121.253 224.885L121.185 245.648L121.005 266.403L120.817 245.648L120.749 224.885L120.629 183.367L120.757 51.4212L120.817 30.6585L121.005 3Z" fill="#EBEBEB"/>
<path d="M94.9932 3L95.1812 30.6585L95.2413 51.4212L95.3692 183.367L95.2489 224.885L95.1812 245.648L94.9932 266.403L94.8127 245.648L94.745 224.885L94.6172 183.367L94.745 51.4212L94.8127 30.6585L94.9932 3Z" fill="#EBEBEB"/>
<path d="M68.9893 3L69.1698 30.6585L69.2374 51.4212L69.3653 183.367L69.2374 224.885L69.1698 245.648L68.9893 266.403L68.8013 245.648L68.7411 224.885L68.6133 183.367L68.7411 51.4212L68.8013 30.6585L68.9893 3Z" fill="#EBEBEB"/>
<path d="M50.6705 98.5415H173.006L176.939 6.79008H46.73L50.6705 98.5415Z" fill="#EBEBEB"/>
<path d="M109.236 90.1116H59.7622L56.5361 15.6637H109.236V90.1116ZM60.4841 89.3596H108.484V16.4157H57.3483L60.4841 89.3596Z" fill="#DBDBDB"/>
<path d="M104.769 65.4686H99.6333V38.5921H104.769V65.4686ZM100.385 64.7166H104.017V39.3441H100.385V64.7166Z" fill="#DBDBDB"/>
<path d="M163.907 90.1116H114.433V15.6637H167.133L163.907 90.1116ZM115.185 89.3596H163.185L166.343 16.4157H115.207L115.185 89.3596Z" fill="#DBDBDB"/>
<path d="M124.036 65.4686H118.899V38.5921H124.036V65.4686ZM119.651 64.7166H123.284V39.3441H119.651V64.7166Z" fill="#DBDBDB"/>
<path d="M199.024 296.708C281.955 296.708 349.184 292.247 349.184 286.744C349.184 281.241 281.955 276.78 199.024 276.78C116.094 276.78 48.8652 281.241 48.8652 286.744C48.8652 292.247 116.094 296.708 199.024 296.708Z" fill="#EBEBEB"/>
<path d="M198.483 264.613L197.167 263.898L201.161 256.544H263.05L267.051 263.898L265.727 264.613L262.155 258.048H202.055L198.483 264.613Z" fill="#263238"/>
<path d="M209.395 264.523L207.981 263.996L210.748 256.544H253.462L256.229 263.996L254.823 264.523L252.417 258.048H211.794L209.395 264.523Z" fill="#263238"/>
<path d="M338.28 264.613L334.708 258.048H274.608L271.036 264.613L269.72 263.898L273.713 256.544H335.603L339.603 263.898L338.28 264.613Z" fill="#263238"/>
<path d="M327.376 264.523L324.969 258.048H284.346L281.947 264.523L280.534 263.996L283.301 256.544H326.015L328.782 263.996L327.376 264.523Z" fill="#263238"/>
<path d="M343.01 262.643H194.137V266.523H343.01V262.643Z" fill="#455A64"/>
<path d="M44.2705 266.403L82.9609 266.222L121.644 266.155L199.024 266.027L276.398 266.155L315.088 266.222L353.778 266.403L315.088 266.591L276.398 266.651L199.024 266.779L121.644 266.651L82.9609 266.583L44.2705 266.403Z" fill="#263238"/>
<path d="M330.76 53.0305H210.44V62.2876H330.76V53.0305Z" fill="#D2161D"/>
<path d="M272.382 79.0271H268.81V124.177H272.382V79.0271Z" fill="#C7C7C7"/>
<path d="M280.24 122.207H260.929L259.937 149.196H281.256L280.24 122.207ZM266.517 146.03H264.509V126.065H266.517V146.03ZM271.57 146.03H269.57V126.065H271.57V146.03ZM276.623 146.03H274.623V126.065H276.623V146.03Z" fill="#C7C7C7"/>
<path d="M274.457 83.4714H266.96L266.208 55.5046H275.209L274.457 83.4714Z" fill="#263238"/>
<path d="M270.712 60.37C271.385 60.37 271.931 59.8246 271.931 59.1518C271.931 58.479 271.385 57.9335 270.712 57.9335C270.04 57.9335 269.494 58.479 269.494 59.1518C269.494 59.8246 270.04 60.37 270.712 60.37Z" fill="#D2161D"/>
<path d="M310.185 79.0271H306.613V115.364H310.185V79.0271Z" fill="#C7C7C7"/>
<path d="M318.63 125.869C318.63 133.449 313.689 140.42 308.403 140.42C303.116 140.42 298.168 133.449 298.168 125.869C298.168 118.289 304.222 114.544 308.403 114.544C312.584 114.544 318.63 118.304 318.63 125.869Z" fill="#C7C7C7"/>
<path d="M312.261 83.4714H304.763L304.011 55.5046H313.013L312.261 83.4714Z" fill="#263238"/>
<path d="M308.516 60.37C309.188 60.37 309.734 59.8246 309.734 59.1518C309.734 58.479 309.188 57.9335 308.516 57.9335C307.843 57.9335 307.297 58.479 307.297 59.1518C307.297 59.8246 307.843 60.37 308.516 60.37Z" fill="#D2161D"/>
<path d="M210.372 94.5258V138.894H237.504V78.9143H231.879V94.5258H210.372ZM214.207 100.692C214.206 100.372 214.299 100.059 214.476 99.7919C214.653 99.5251 214.905 99.3167 215.2 99.1931C215.495 99.0696 215.821 99.0365 216.135 99.098C216.449 99.1596 216.738 99.313 216.965 99.5388C217.192 99.7646 217.346 100.053 217.409 100.366C217.472 100.68 217.441 101.006 217.318 101.302C217.196 101.598 216.989 101.85 216.723 102.028C216.457 102.206 216.144 102.301 215.824 102.301C215.397 102.301 214.986 102.132 214.683 101.831C214.38 101.529 214.209 101.12 214.207 100.692Z" fill="#C7C7C7"/>
<path d="M230.947 83.4714H238.444L239.196 55.5046H230.195L230.947 83.4714Z" fill="#263238"/>
<path d="M234.699 60.37C235.372 60.37 235.917 59.8246 235.917 59.1518C235.917 58.479 235.372 57.9335 234.699 57.9335C234.026 57.9335 233.481 58.479 233.481 59.1518C233.481 59.8246 234.026 60.37 234.699 60.37Z" fill="#D2161D"/>
<path d="M249.153 15.6637V53.0305L307.568 53.0305V15.6637L249.153 15.6637Z" fill="#D2161D"/>
<path opacity="0.2" d="M249.153 15.6637V53.0305L307.568 53.0305V15.6637L249.153 15.6637Z" fill="black"/>
<path d="M323.052 29.3576C320.141 29.3576 317.449 31.8467 314.727 31.8467H307.568V36.8475H314.727C317.449 36.8475 320.141 39.3516 323.052 39.3516C326.496 39.3516 329.068 37.4265 329.068 34.3508C329.068 31.2752 326.496 29.3576 323.052 29.3576ZM323.841 36.2233C323.469 36.2248 323.104 36.1156 322.794 35.9096C322.484 35.7036 322.241 35.4101 322.098 35.0663C321.955 34.7224 321.917 34.3438 321.989 33.9784C322.062 33.613 322.241 33.2774 322.504 33.014C322.768 32.7506 323.103 32.5714 323.469 32.4991C323.834 32.4268 324.213 32.4647 324.557 32.6079C324.9 32.7511 325.194 32.9932 325.4 33.3036C325.606 33.6139 325.715 33.9784 325.714 34.3508C325.71 34.8437 325.513 35.3154 325.166 35.6653C324.819 36.0152 324.349 36.2155 323.856 36.2233H323.841Z" fill="#D2161D"/>
<g opacity="0.2">
<path d="M323.052 29.3576C320.141 29.3576 317.449 31.8467 314.727 31.8467H307.568V36.8475H314.727C317.449 36.8475 320.141 39.3516 323.052 39.3516C326.496 39.3516 329.068 37.4265 329.068 34.3508C329.068 31.2752 326.496 29.3576 323.052 29.3576ZM323.841 36.2233C323.469 36.2248 323.104 36.1156 322.794 35.9096C322.484 35.7036 322.241 35.4101 322.098 35.0663C321.955 34.7224 321.917 34.3438 321.989 33.9784C322.062 33.613 322.241 33.2774 322.504 33.014C322.768 32.7506 323.103 32.5714 323.469 32.4991C323.834 32.4268 324.213 32.4647 324.557 32.6079C324.9 32.7511 325.194 32.9932 325.4 33.3036C325.606 33.6139 325.715 33.9784 325.714 34.3508C325.71 34.8437 325.513 35.3154 325.166 35.6653C324.819 36.0152 324.349 36.2155 323.856 36.2233H323.841Z" fill="black"/>
</g>
<path d="M264.907 34.8923C264.907 34.8923 257.214 49.278 255.718 51.2332C254.221 53.1884 250.589 53.0305 248.34 53.0305H229.962C227.706 53.0305 224.081 53.1959 222.584 51.2332C221.088 49.2705 213.395 34.8923 213.395 34.8923H264.907Z" fill="#455A64"/>
<path d="M120.464 112.769C115.2 107.716 97.4975 108.077 89.9098 116.529C79.4495 128.148 93.2111 151.046 109.838 145.331C126.465 139.616 124.502 116.665 120.464 112.769Z" fill="#263238"/>
<path d="M91.0079 139.187C88.0525 134.908 85.8417 130.065 85.3153 125.14C84.9913 122.759 85.4097 120.336 86.5132 118.202C87.6167 116.067 89.3517 114.325 91.4817 113.213C93.649 111.985 95.9707 111.052 98.385 110.438C100.795 109.749 103.274 109.335 105.777 109.205C110.908 108.909 116.011 110.15 120.434 112.769C116.568 109.19 111.146 107.317 105.77 107.22C103.067 107.163 100.369 107.464 97.7458 108.114C95.0911 108.73 92.5366 109.717 90.1581 111.047C87.6703 112.456 85.6555 114.571 84.3678 117.123C83.1766 119.708 82.8191 122.599 83.345 125.395C84.3302 130.825 87.3156 135.51 91.0079 139.187Z" fill="#263238"/>
<path d="M141.046 147.128C153.777 162.416 164.313 181.908 169.96 186.631C172.908 189.097 215.832 192.895 220.698 193.857C228.12 195.316 217.622 233.337 212.621 231.931C209.357 231.021 160.041 224.201 150.957 213.928C143.979 206.025 132.954 171.959 130.021 156.994C126.773 140.353 135.97 141.029 141.046 147.128Z" fill="#EB9481"/>
<path d="M231.007 233.743C222.495 233.65 214.027 232.511 205.793 230.352C201.281 229.066 203.537 193.639 208.169 192.316C222.457 188.202 242.092 191.135 248.649 196.377C255.206 201.618 239.527 233.736 231.007 233.743Z" fill="#EB9481"/>
<path d="M336.798 172.628C328.797 177.389 318.841 179.494 309.952 182.006C305.079 183.374 300.184 184.658 295.266 185.856C293.01 186.413 290.754 186.931 288.498 187.443C287.129 187.759 284.993 188.638 283.549 188.24C283.385 188.202 283.237 188.114 283.124 187.989C283.011 187.864 282.939 187.708 282.918 187.541C282.91 187.445 282.91 187.35 282.918 187.255C282.865 186.42 306.23 179.577 312.998 171.012C316.419 166.658 319.42 159.491 316.126 154.242C314.156 151.114 310.17 150.625 306.869 151.55C303.425 152.52 299.785 156.468 303.034 158.062C303.349 157.491 304.41 157.731 304.192 158.446C303.53 160.145 299.875 161.168 297.95 158.919C294.859 155.332 297.07 149.595 299.537 146.812C306.433 138.992 323.195 139.112 328.79 149.459C332.053 147.023 336.37 148.068 337.964 151.813C341.032 148.993 345.484 152.204 346.236 156.122C347.62 163.04 342.363 169.335 336.798 172.628Z" fill="#D2161D"/>
<path d="M295.574 147.03C294.822 146.143 287.994 147.737 289.626 150.948C291.257 154.159 296.709 148.316 295.574 147.03Z" fill="#D2161D"/>
<path d="M291.776 155.543C290.866 155.22 287.791 159.205 289.874 160.378C291.957 161.551 292.536 155.814 291.776 155.543Z" fill="#D2161D"/>
<path d="M329.632 146.88C330.512 146.489 329.993 141.473 327.677 142.06C325.36 142.646 328.887 147.188 329.632 146.88Z" fill="#D2161D"/>
<path d="M289.588 153.648C289.234 153.182 287.452 153.768 288.129 154.783C288.806 155.799 290.017 154.219 289.588 153.648Z" fill="#D2161D"/>
<path d="M328.775 140.232C329.339 140.089 329.527 138.224 328.301 138.45C327.075 138.676 328.12 140.398 328.775 140.232Z" fill="#D2161D"/>
<path d="M267.69 195.399L202.123 216.936L199.739 208.566L265.99 189.406L267.69 195.399Z" fill="#A6A6A6"/>
<path d="M343.867 167.244C343.867 167.244 345.597 184.848 339.461 186.601L306.689 195.925L273.916 205.25C267.78 206.995 259.982 191.12 259.982 191.12L343.867 167.244Z" fill="#455A64"/>
<path d="M212.072 191.451C212.072 191.451 247.153 177.246 246.401 192.406C246.175 196.918 239.874 215.146 236.189 213.951C231.429 212.409 232.639 204.31 234.204 199.339C234.204 199.339 223.961 205.558 217.502 199.715C215.035 197.453 213.169 194.613 212.072 191.451Z" fill="#EB9481"/>
<path d="M246.401 191.143C246.522 192.921 246.383 194.707 245.987 196.444C245.634 198.19 245.167 199.911 244.588 201.595C243.474 204.991 242.065 208.282 240.377 211.432C239.924 212.259 239.357 213.018 238.693 213.688C238.302 214.081 237.826 214.379 237.301 214.56C237.02 214.667 236.722 214.723 236.422 214.725C236.125 214.727 235.83 214.679 235.549 214.582C234.537 214.235 233.682 213.539 233.135 212.62C232.656 211.767 232.325 210.839 232.158 209.875C231.884 208.044 231.925 206.18 232.278 204.363C232.587 202.577 233.029 200.818 233.602 199.099L234.519 199.806C233.321 200.472 232.062 201.024 230.759 201.453C229.472 201.888 228.144 202.193 226.796 202.362C225.448 202.516 224.086 202.473 222.75 202.235C221.416 201.998 220.14 201.508 218.99 200.791C220.179 201.335 221.449 201.678 222.75 201.806C224.045 201.911 225.348 201.837 226.623 201.588C227.91 201.358 229.17 200.995 230.383 200.505C231.578 200.031 232.726 199.447 233.812 198.76L235.143 197.903L234.73 199.467C234.247 201.13 233.878 202.823 233.624 204.536C233.333 206.201 233.315 207.903 233.572 209.574C233.85 211.138 234.639 212.733 235.94 213.139C237.053 213.597 238.249 212.071 239.099 210.649C239.981 209.151 240.784 207.607 241.505 206.025C242.257 204.438 243.009 202.844 243.641 201.212C244.897 198.016 246.198 194.677 246.401 191.143Z" fill="#263238"/>
<path d="M236.941 190.368C233.218 192.624 238.009 195.722 238.009 195.722C238.009 195.722 230.037 192.925 227.097 196.737C224.27 200.422 230.195 203.964 230.617 204.22C230.188 204.077 222.796 201.701 220.239 205.837C217.577 210.138 224.134 212.665 224.563 212.83C224.119 212.83 218.269 212.778 217.043 216.365C214.93 222.524 229.887 223.042 233.324 227.051C233.324 227.051 230.534 233.54 230.398 233.766C230.398 233.766 241.287 234.653 246.424 229.728C247.189 229.026 247.69 228.082 247.841 227.055C247.991 226.027 247.783 224.979 247.251 224.088C247.251 224.088 251.808 224.84 253.921 221.651C255.004 220.012 253.342 216.816 253.342 216.816C253.342 216.816 257.019 217.275 258.726 214.319C260.095 211.958 258.215 209.123 258.215 209.123C258.215 209.123 261.975 207.927 262.561 205.062C263.81 199.294 244.897 185.54 236.941 190.368Z" fill="#EB9481"/>
<path d="M257.974 208.627C257.985 208.639 258 208.646 258.017 208.646C258.033 208.647 258.049 208.641 258.061 208.63C258.073 208.619 258.08 208.604 258.08 208.588C258.081 208.572 258.075 208.556 258.064 208.544C252.958 202.528 245.499 197.437 237.76 195.527C237.505 195.467 237.294 195.85 237.565 195.97C245.16 199.46 251.612 203.16 257.974 208.627Z" fill="#263238"/>
<path d="M253.454 216.816C253.53 216.876 253.627 216.763 253.56 216.688C248.296 210.492 239.7 205.017 230.533 203.866C230.225 203.829 229.902 204.107 230.263 204.175C236.294 205.431 247.754 211.898 253.454 216.816Z" fill="#263238"/>
<path d="M223.894 212.973C232.639 214.41 240.039 218.508 247.04 223.817C247.13 223.885 247.221 223.749 247.16 223.667C244.438 220.14 239.64 217.23 235.693 215.274C232.073 213.392 228.023 212.492 223.946 212.665C223.781 212.672 223.706 212.936 223.894 212.973Z" fill="#263238"/>
<path d="M238.009 195.76C236.43 195.364 234.819 195.113 233.196 195.008C231.625 194.844 230.038 195.104 228.601 195.76C227.957 196.092 227.461 196.653 227.21 197.332C226.963 198.023 226.895 198.765 227.014 199.49C227.196 200.197 227.524 200.859 227.978 201.431C228.431 202.004 228.999 202.475 229.646 202.814L232.737 204.611L229.21 204.002C227.646 203.715 226.046 203.687 224.473 203.919C223.741 203.988 223.031 204.21 222.39 204.57C221.749 204.93 221.19 205.421 220.75 206.01C220.35 206.565 220.151 207.24 220.187 207.924C220.222 208.608 220.49 209.259 220.946 209.77C221.995 210.889 223.312 211.722 224.773 212.191L228.751 213.62L224.54 213.575C223.367 213.557 222.197 213.691 221.058 213.973C219.969 214.2 218.971 214.742 218.186 215.53C217.85 215.902 217.625 216.36 217.534 216.852C217.444 217.345 217.492 217.853 217.674 218.32C218.248 219.283 219.082 220.065 220.081 220.576C222.23 221.757 224.471 222.763 226.781 223.584C227.932 224.043 229.09 224.501 230.218 225.013C231.39 225.461 232.452 226.156 233.331 227.051C232.374 226.272 231.272 225.689 230.09 225.336C228.932 224.915 227.751 224.546 226.571 224.178C224.157 223.498 221.813 222.592 219.57 221.471C218.341 220.888 217.311 219.957 216.607 218.794C216.294 218.119 216.184 217.368 216.291 216.632C216.398 215.897 216.716 215.208 217.208 214.65C218.152 213.642 219.375 212.938 220.72 212.627C221.984 212.294 223.286 212.125 224.593 212.123L224.36 213.507C222.636 212.975 221.081 212.003 219.848 210.687C219.179 209.936 218.791 208.977 218.75 207.972C218.749 206.987 219.042 206.023 219.592 205.205C220.146 204.454 220.852 203.83 221.665 203.372C222.478 202.914 223.378 202.634 224.307 202.55C226.042 202.322 227.803 202.38 229.518 202.723L229.082 203.904C228.298 203.453 227.622 202.835 227.103 202.095C226.583 201.354 226.232 200.509 226.074 199.618C225.964 198.718 226.091 197.806 226.443 196.971C226.808 196.119 227.471 195.429 228.308 195.03C229.895 194.407 231.624 194.241 233.301 194.549C234.911 194.774 236.49 195.18 238.009 195.76Z" fill="#263238"/>
<path d="M204.484 189.135L198.348 230.562C198.348 230.562 154.288 223.042 147.092 214.77C139.895 206.498 132.571 173.621 129.044 157.055C125.517 140.488 134.714 135.299 144.881 149.068C155.048 162.837 166.621 183.818 169.313 185.051C172.006 186.285 204.484 189.135 204.484 189.135Z" fill="#D2161D"/>
<path opacity="0.1" d="M186.782 228.337C173.201 225.501 151.904 220.313 147.092 214.801C139.887 206.529 132.578 173.651 129.044 157.092C127.254 148.647 128.765 143.158 132.052 141.639C139.684 153.452 170.907 201.829 186.782 228.337Z" fill="black"/>
<path d="M209.65 188.751C209.545 188.526 197.039 186.352 197.039 186.352C197.039 186.352 185.759 206.288 185.759 208.679C185.759 211.071 185.511 229.231 185.699 229.457C185.887 229.683 200.912 233.623 201.221 233.217C201.529 232.811 202.544 213.229 202.597 211.732C202.649 210.236 209.65 188.751 209.65 188.751Z" fill="#D2161D"/>
<path opacity="0.2" d="M209.65 188.751C209.545 188.526 197.039 186.352 197.039 186.352C197.039 186.352 185.759 206.288 185.759 208.679C185.759 211.071 185.511 229.231 185.699 229.457C185.887 229.683 200.912 233.623 201.221 233.217C201.529 232.811 202.544 213.229 202.597 211.732C202.649 210.236 209.65 188.751 209.65 188.751Z" fill="black"/>
<path d="M162.666 266.523L153.642 217.199C153.642 217.199 162.666 208.927 161.733 194.158C161.237 186.202 146.814 157.724 139.083 147.752C131.826 138.405 116.147 138.909 106.476 150.64C75.2459 188.526 65.5977 238.804 61.582 266.523H162.666Z" fill="#D2161D"/>
<path d="M116.733 149.843C119.271 152.796 122.33 155.259 125.757 157.107C129.136 158.994 132.897 160.094 136.759 160.326C138.681 160.409 140.606 160.273 142.497 159.92L143.903 159.611H144.054C144.12 159.615 144.185 159.636 144.242 159.671C144.278 159.694 144.311 159.722 144.339 159.754L144.384 159.814C144.428 159.872 144.468 159.932 144.505 159.995L144.693 160.326C144.813 160.551 144.918 160.769 145.024 160.995C145.437 161.89 145.813 162.792 146.174 163.695C147.598 167.329 148.825 171.036 149.851 174.802C150.896 178.563 151.719 182.382 152.318 186.24C152.922 190.104 153.174 194.016 153.07 197.926C153.01 201.861 152.307 205.761 150.987 209.469C149.655 213.206 147.274 216.481 144.129 218.899L144.264 218.598L146.956 242.497L149.543 266.41L146.535 242.549L143.625 218.673V218.485L143.775 218.373C146.824 216.02 149.127 212.837 150.408 209.206C151.692 205.568 152.37 201.745 152.416 197.888C152.589 190.158 151.243 182.442 149.235 174.967C148.224 171.225 147.014 167.54 145.61 163.928C145.257 163.025 144.858 162.131 144.482 161.258C144.377 161.04 144.279 160.822 144.166 160.611C144.114 160.514 144.061 160.408 144.001 160.311C143.941 160.213 143.941 160.22 143.926 160.19C143.971 160.217 144.023 160.233 144.076 160.235L142.632 160.544C140.692 160.887 138.718 160.998 136.752 160.875C132.808 160.59 128.982 159.404 125.569 157.408C122.185 155.45 119.19 152.885 116.733 149.843Z" fill="#263238"/>
<path d="M126.081 180.209C126.081 180.655 125.949 181.091 125.701 181.462C125.453 181.833 125.1 182.122 124.688 182.293C124.276 182.464 123.822 182.508 123.385 182.421C122.947 182.334 122.545 182.119 122.23 181.804C121.914 181.488 121.699 181.086 121.612 180.649C121.525 180.211 121.57 179.757 121.741 179.345C121.911 178.933 122.2 178.581 122.571 178.333C122.942 178.085 123.379 177.953 123.825 177.953C124.423 177.953 124.997 178.19 125.42 178.613C125.843 179.036 126.081 179.61 126.081 180.209Z" fill="#263238"/>
<path d="M147.355 181.382C147.355 181.828 147.222 182.264 146.975 182.635C146.727 183.006 146.374 183.295 145.962 183.466C145.55 183.637 145.096 183.681 144.659 183.594C144.221 183.507 143.819 183.292 143.504 182.977C143.188 182.661 142.973 182.259 142.886 181.822C142.799 181.384 142.844 180.931 143.015 180.518C143.185 180.106 143.474 179.754 143.845 179.506C144.216 179.258 144.653 179.126 145.099 179.126C145.697 179.126 146.271 179.363 146.694 179.786C147.117 180.21 147.355 180.783 147.355 181.382Z" fill="#263238"/>
<path d="M123.073 197.068C123.073 197.515 122.941 197.951 122.693 198.322C122.445 198.693 122.093 198.982 121.68 199.153C121.268 199.323 120.815 199.368 120.377 199.281C119.939 199.194 119.537 198.979 119.222 198.664C118.906 198.348 118.691 197.946 118.604 197.508C118.517 197.071 118.562 196.617 118.733 196.205C118.904 195.793 119.193 195.44 119.564 195.193C119.935 194.945 120.371 194.812 120.817 194.812C121.415 194.812 121.989 195.05 122.412 195.473C122.835 195.896 123.073 196.47 123.073 197.068Z" fill="#263238"/>
<path d="M115.997 217.199C115.997 217.646 115.865 218.082 115.617 218.453C115.369 218.824 115.016 219.113 114.604 219.284C114.192 219.454 113.738 219.499 113.301 219.412C112.863 219.325 112.461 219.11 112.146 218.795C111.83 218.479 111.615 218.077 111.528 217.64C111.441 217.202 111.486 216.748 111.657 216.336C111.827 215.924 112.117 215.572 112.488 215.324C112.858 215.076 113.295 214.943 113.741 214.943C114.339 214.943 114.913 215.181 115.336 215.604C115.759 216.027 115.997 216.601 115.997 217.199Z" fill="#263238"/>
<path d="M115.275 237.022C115.275 237.468 115.142 237.904 114.894 238.275C114.647 238.646 114.294 238.936 113.882 239.106C113.47 239.277 113.016 239.322 112.579 239.235C112.141 239.148 111.739 238.933 111.423 238.617C111.108 238.302 110.893 237.9 110.806 237.462C110.719 237.025 110.764 236.571 110.934 236.159C111.105 235.747 111.394 235.394 111.765 235.146C112.136 234.898 112.573 234.766 113.019 234.766C113.617 234.766 114.191 235.004 114.614 235.427C115.037 235.85 115.275 236.424 115.275 237.022Z" fill="#263238"/>
<path d="M146.039 198.768C146.039 199.214 145.907 199.65 145.659 200.021C145.411 200.392 145.058 200.681 144.646 200.852C144.234 201.023 143.78 201.068 143.343 200.981C142.905 200.893 142.503 200.679 142.188 200.363C141.872 200.048 141.657 199.646 141.57 199.208C141.483 198.77 141.528 198.317 141.699 197.905C141.869 197.492 142.158 197.14 142.529 196.892C142.9 196.644 143.337 196.512 143.783 196.512C144.381 196.512 144.955 196.75 145.378 197.173C145.801 197.596 146.039 198.17 146.039 198.768Z" fill="#263238"/>
<path d="M138.82 236.601C138.82 237.047 138.687 237.483 138.439 237.854C138.192 238.225 137.839 238.514 137.427 238.685C137.015 238.856 136.561 238.901 136.123 238.814C135.686 238.727 135.284 238.512 134.968 238.196C134.653 237.881 134.438 237.479 134.351 237.041C134.264 236.603 134.309 236.15 134.479 235.738C134.65 235.325 134.939 234.973 135.31 234.725C135.681 234.477 136.117 234.345 136.564 234.345C137.162 234.345 137.736 234.583 138.159 235.006C138.582 235.429 138.82 236.003 138.82 236.601Z" fill="#263238"/>
<path d="M114.245 258.935C115.478 258.935 116.478 257.935 116.478 256.702C116.478 255.468 115.478 254.469 114.245 254.469C113.011 254.469 112.011 255.468 112.011 256.702C112.011 257.935 113.011 258.935 114.245 258.935Z" fill="#263238"/>
<path d="M140.023 256.281C140.023 256.727 139.891 257.163 139.643 257.534C139.395 257.905 139.043 258.194 138.631 258.365C138.218 258.536 137.765 258.581 137.327 258.493C136.889 258.406 136.488 258.192 136.172 257.876C135.856 257.561 135.642 257.159 135.555 256.721C135.468 256.283 135.512 255.83 135.683 255.417C135.854 255.005 136.143 254.653 136.514 254.405C136.885 254.157 137.321 254.025 137.767 254.025C138.366 254.025 138.939 254.263 139.362 254.686C139.786 255.109 140.023 255.683 140.023 256.281Z" fill="#263238"/>
<path d="M139.346 217.959C139.346 218.405 139.214 218.841 138.966 219.212C138.718 219.583 138.366 219.872 137.953 220.043C137.541 220.214 137.087 220.259 136.65 220.172C136.212 220.085 135.81 219.87 135.495 219.554C135.179 219.239 134.964 218.837 134.877 218.399C134.79 217.961 134.835 217.508 135.006 217.096C135.176 216.683 135.466 216.331 135.837 216.083C136.208 215.835 136.644 215.703 137.09 215.703C137.688 215.703 138.262 215.941 138.685 216.364C139.108 216.787 139.346 217.361 139.346 217.959Z" fill="#263238"/>
<path d="M140.58 141.105C140.58 141.105 143.588 154.791 141.083 155.438C133.473 157.446 123.111 148.241 122.359 146.639C122.171 146.226 121.013 135.412 120.103 126.997C119.531 121.59 119.087 117.176 119.087 117.176L140.707 125.207L140.564 140.044L140.58 141.105Z" fill="#EB9481"/>
<path d="M140.737 125.207L140.594 140.044C136.459 139.429 132.499 137.949 128.973 135.701C125.448 133.453 122.435 130.487 120.132 126.997C119.561 121.59 119.117 117.176 119.117 117.176L121.824 118.078L140.737 125.207Z" fill="#263238"/>
<path d="M158.372 103.121C161.38 128.997 146.219 133.712 140.64 134.352C135.571 134.938 118.253 136.277 112.59 110.852C106.927 85.4266 118.012 75.8462 129.533 73.906C141.053 71.9658 155.409 77.2449 158.372 103.121Z" fill="#EB9481"/>
<path d="M153.695 101.113C153.098 101.046 152.506 100.948 151.92 100.82C151.282 100.804 150.666 100.579 150.168 100.181C150.036 100.023 149.96 99.827 149.95 99.6219C149.941 99.4169 149.999 99.2144 150.115 99.0453C150.401 98.7483 150.76 98.5326 151.156 98.4203C151.553 98.308 151.972 98.3031 152.371 98.4061C153.204 98.4909 153.976 98.8822 154.537 99.504C154.66 99.6535 154.737 99.8362 154.757 100.029C154.777 100.222 154.74 100.417 154.65 100.588C154.56 100.76 154.422 100.902 154.252 100.995C154.082 101.089 153.888 101.13 153.695 101.113Z" fill="#263238"/>
<path d="M135.94 102.256C136.52 102.109 137.093 101.931 137.654 101.722C138.287 101.619 138.869 101.309 139.309 100.843C139.416 100.668 139.464 100.463 139.443 100.26C139.423 100.056 139.336 99.8641 139.196 99.7146C138.875 99.4621 138.493 99.2991 138.089 99.2423C137.685 99.1855 137.273 99.2369 136.895 99.3913C136.08 99.5886 135.367 100.082 134.894 100.775C134.796 100.94 134.748 101.129 134.756 101.321C134.763 101.513 134.826 101.698 134.936 101.855C135.047 102.012 135.201 102.133 135.379 102.204C135.557 102.275 135.752 102.294 135.94 102.256Z" fill="#263238"/>
<path d="M140.159 107.122C140.159 107.054 140.023 107.212 140.031 107.287C140.211 109.047 140.113 111.1 138.527 111.799C138.474 111.799 138.489 111.912 138.527 111.897C140.512 111.491 140.61 108.761 140.159 107.122Z" fill="#263238"/>
<path d="M138.451 105.377C135.586 105.377 135.759 111.085 138.406 111.1C141.053 111.115 140.843 105.4 138.451 105.377Z" fill="#263238"/>
<path d="M137.361 105.716C136.872 106.054 136.399 106.641 135.804 106.716C135.21 106.791 134.564 106.227 134.09 105.663C134.037 105.603 133.992 105.663 133.992 105.731C133.992 106.829 134.466 107.941 135.647 108.069C136.827 108.197 137.459 107.189 137.7 106.084C137.715 105.873 137.534 105.58 137.361 105.716Z" fill="#263238"/>
<path d="M150.01 106.377C150.01 106.31 150.152 106.46 150.152 106.535C150.152 108.31 150.408 110.34 152.025 110.897C152.078 110.897 152.078 111.002 152.025 110.995C150.055 110.784 149.709 108.054 150.01 106.377Z" fill="#263238"/>
<path d="M151.551 104.49C154.401 104.212 154.747 109.927 152.108 110.182C149.468 110.438 149.167 104.723 151.551 104.49Z" fill="#263238"/>
<path d="M152.769 104.768C153.236 105.039 153.717 105.565 154.273 105.565C154.83 105.565 155.326 104.918 155.687 104.302C155.725 104.242 155.777 104.302 155.777 104.362C155.875 105.452 155.589 106.618 154.552 106.889C153.514 107.159 152.845 106.242 152.514 105.167C152.439 105.001 152.574 104.685 152.769 104.768Z" fill="#263238"/>
<path d="M140.204 121.094C140.625 121.515 141.038 122.094 141.708 122.154C142.366 122.152 143.017 122.011 143.618 121.741C143.63 121.734 143.644 121.732 143.657 121.735C143.671 121.738 143.683 121.745 143.692 121.756C143.7 121.766 143.705 121.779 143.705 121.793C143.706 121.807 143.701 121.82 143.693 121.831C143.436 122.174 143.09 122.442 142.693 122.605C142.295 122.768 141.861 122.82 141.437 122.756C141.077 122.658 140.754 122.455 140.51 122.172C140.266 121.889 140.112 121.54 140.068 121.169C140.008 121.064 140.143 121.034 140.204 121.094Z" fill="#263238"/>
<path d="M147.348 114.379C147.348 114.379 147.821 117.011 147.874 118.259C147.874 118.372 147.581 118.439 147.16 118.484C147.16 118.484 147.16 118.484 147.107 118.484C146.044 118.723 144.936 118.664 143.904 118.316C142.873 117.967 141.957 117.341 141.256 116.507C141.24 116.483 141.232 116.453 141.235 116.424C141.237 116.395 141.25 116.368 141.27 116.347C141.29 116.326 141.317 116.312 141.346 116.308C141.375 116.305 141.404 116.311 141.429 116.326C143.069 117.347 144.994 117.812 146.919 117.65C146.987 117.304 145.949 113.175 146.167 113.138C147.141 113.186 148.104 113.363 149.032 113.664C148.197 108.152 146.49 102.82 145.746 97.3232C145.745 97.2846 145.757 97.2468 145.779 97.2157C145.802 97.1846 145.835 97.1621 145.872 97.1517C145.909 97.1413 145.949 97.1437 145.985 97.1584C146.02 97.1731 146.05 97.1994 146.069 97.233C148.25 102.693 149.348 109.009 150.356 114.679C150.468 115.401 147.889 114.544 147.348 114.379Z" fill="#263238"/>
<path d="M146.505 117.936C145.923 118.913 145.1 119.723 144.114 120.289C143.567 120.578 142.945 120.691 142.332 120.613C140.985 120.425 140.828 119.236 140.933 118.191C140.998 117.634 141.129 117.086 141.324 116.559C142.86 117.558 144.676 118.04 146.505 117.936Z" fill="#263238"/>
<path d="M144.129 120.289C143.582 120.578 142.96 120.691 142.347 120.613C141.001 120.425 140.843 119.236 140.948 118.191C142.339 118.169 143.836 118.943 144.129 120.289Z" fill="#FF9CBD"/>
<path d="M112.289 111.092C116.674 111.431 117.674 102.249 117.674 102.249C117.674 102.249 126.57 102.249 129.51 89.4648C129.51 89.4648 129.315 95.4207 125.57 100.045C125.57 100.045 141.256 98.3836 147.866 85.2537C147.866 85.2537 145.227 91.9389 142.76 94.3228C142.76 94.3228 149.34 92.4804 152.536 87.1412C152.536 87.1412 155.289 94.7213 157.402 96.8119C157.402 96.8119 156.755 69.3639 131.322 72.2817C131.322 72.2817 115.395 73.3345 109.68 85.9455C103.965 98.5565 112.289 111.092 112.289 111.092Z" fill="#263238"/>
<path d="M116.937 112.356C116.937 112.356 111.019 104.4 107.386 106.528C103.754 108.656 108.371 120.319 112.748 121.808C113.296 122.037 113.885 122.152 114.479 122.147C115.073 122.142 115.659 122.017 116.204 121.78C116.748 121.542 117.239 121.197 117.647 120.765C118.054 120.333 118.37 119.824 118.576 119.267L116.937 112.356Z" fill="#EB9481"/>
<path d="M108.785 109.837C108.769 109.837 108.754 109.843 108.742 109.854C108.731 109.865 108.725 109.881 108.725 109.897C108.725 109.913 108.731 109.928 108.742 109.939C108.754 109.95 108.769 109.957 108.785 109.957C111.86 111.092 113.537 113.867 114.741 116.725C113.808 115.634 112.56 115.048 111.086 116.168C111.011 116.229 111.086 116.349 111.176 116.326C111.705 116.141 112.279 116.125 112.818 116.28C113.357 116.435 113.834 116.753 114.184 117.191C114.768 117.925 115.272 118.719 115.688 119.56C115.839 119.823 116.32 119.665 116.207 119.357V119.289C116.124 115.439 112.958 110.107 108.785 109.837Z" fill="#263238"/>
<path d="M115.155 120.56C115.157 120.68 115.135 120.799 115.09 120.91C115.046 121.021 114.98 121.122 114.896 121.208C114.812 121.293 114.712 121.361 114.601 121.407C114.491 121.454 114.372 121.477 114.252 121.477C114.133 121.477 114.014 121.454 113.904 121.408C113.794 121.362 113.693 121.295 113.609 121.211C113.524 121.126 113.457 121.026 113.412 120.916C113.366 120.805 113.342 120.687 113.342 120.568C113.342 120.448 113.366 120.33 113.412 120.219C113.457 120.109 113.524 120.009 113.609 119.924C113.693 119.84 113.794 119.773 113.904 119.727C114.014 119.681 114.133 119.658 114.252 119.658C114.492 119.658 114.721 119.753 114.89 119.922C115.06 120.091 115.155 120.321 115.155 120.56Z" fill="white"/>
<path d="M112.597 119.011C112.599 119.126 112.566 119.239 112.503 119.335C112.44 119.432 112.35 119.507 112.244 119.552C112.137 119.597 112.02 119.609 111.907 119.587C111.794 119.565 111.69 119.509 111.609 119.428C111.528 119.346 111.472 119.243 111.45 119.13C111.428 119.016 111.44 118.899 111.485 118.793C111.53 118.687 111.605 118.597 111.701 118.534C111.798 118.471 111.911 118.438 112.026 118.439C112.178 118.439 112.323 118.5 112.43 118.607C112.537 118.714 112.597 118.859 112.597 119.011Z" fill="white"/>
<path d="M109.033 101.106C108.725 100.903 80.6076 62.1898 78.2012 58.6179C77.1259 57.0311 85.7212 32.2979 99.9566 25.5299C110.229 20.6043 128.901 24.6576 132.345 26.1766C136.444 27.9964 152.115 77.9442 152.115 77.9442L127.63 88.0511L109.033 101.106Z" fill="#D2161D"/>
<g opacity="0.1">
<path d="M110.793 93.7964C110.253 93.3355 109.795 92.7863 109.439 92.172C109.026 91.5704 108.605 90.9689 108.168 90.3898C107.279 89.2282 106.303 88.1347 105.251 87.1186C104.478 86.1918 103.42 85.5466 102.243 85.2837C101.723 85.2274 101.199 85.3296 100.739 85.577C100.432 85.7118 100.152 85.9002 99.9114 86.1335C99.746 86.3441 99.6482 86.6825 99.4978 86.8855C99.4527 86.9607 99.5805 87.0284 99.6181 86.9532C99.7285 86.5887 99.9731 86.2796 100.302 86.0884C100.57 85.9498 100.852 85.8437 101.145 85.7725C101.773 85.6435 102.428 85.7534 102.98 86.0809C104.003 86.7547 104.905 87.5962 105.649 88.57C106.484 89.51 107.334 90.45 108.176 91.39C109.018 92.33 109.627 93.3978 110.688 93.9092C110.778 93.9844 110.883 93.8565 110.793 93.7964Z" fill="black"/>
<path d="M113.695 93.4881C111.951 91.0466 110.196 88.6101 108.431 86.1786C106.565 83.7909 104.977 81.1972 103.701 78.4481C103.701 78.3654 103.536 78.4481 103.573 78.4857C104.627 81.3394 106.002 84.0641 107.672 86.6073C109.448 89.0987 111.419 91.4448 113.567 93.6234C113.585 93.6404 113.609 93.6495 113.634 93.6488C113.659 93.6481 113.682 93.6376 113.699 93.6197C113.716 93.6017 113.725 93.5778 113.724 93.5531C113.724 93.5284 113.713 93.505 113.695 93.4881Z" fill="black"/>
<path d="M120.982 85.9681C119.418 83.9226 117.651 82.0351 115.906 80.1476C114.378 78.4824 112.638 77.0238 110.732 75.8086C110.657 75.7634 110.59 75.8762 110.657 75.9289C112.522 77.2825 113.906 79.1625 115.44 80.862C117.109 82.7194 118.794 84.622 120.636 86.2989C120.682 86.3375 120.74 86.3578 120.799 86.356C120.859 86.3542 120.915 86.3305 120.958 86.2894C121.001 86.2483 121.028 86.1926 121.032 86.1333C121.036 86.074 121.019 86.0151 120.982 85.9681Z" fill="black"/>
<path d="M127.051 62.3703C126.696 62.2172 126.312 62.1444 125.925 62.157C125.539 62.1697 125.16 62.2675 124.816 62.4435C124.472 62.6195 124.171 62.8694 123.935 63.1752C123.698 63.4811 123.533 63.8353 123.449 64.2127C122.99 66.1078 123.787 68.266 124.427 70.0332C125.132 71.9508 126.066 73.7763 127.209 75.4701C128.511 77.3767 130.061 79.1014 131.819 80.5988C131.879 80.6589 131.977 80.5988 131.916 80.5085C129.473 77.8364 127.524 74.7501 126.164 71.3943C125.476 69.7529 124.942 68.0511 124.569 66.3108C124.261 64.8594 124.569 62.3102 126.622 62.5508C128.57 62.8065 129.555 65.055 131.007 66.1228C131.007 66.1228 131.074 66.1228 131.007 66.0702C129.57 64.9572 128.848 63.1148 127.051 62.3703Z" fill="black"/>
<path d="M141.414 61.0167C140.504 63.8867 140.58 66.9789 141.632 69.8001C142.183 71.3727 142.894 72.8846 143.753 74.3121C144.562 75.8364 145.519 77.2773 146.611 78.6135C146.621 78.6243 146.635 78.6312 146.65 78.6331C146.665 78.635 146.681 78.6318 146.694 78.624C146.707 78.6162 146.717 78.6043 146.722 78.5901C146.727 78.5759 146.728 78.5603 146.723 78.5458C146.092 77.0418 145.122 75.7108 144.467 74.2369C143.777 72.7601 143.196 71.2344 142.73 69.6722C142.346 68.2856 142.062 66.8733 141.88 65.446C141.696 64.0019 141.666 62.5424 141.79 61.0919C141.79 60.8964 141.482 60.8062 141.414 61.0167Z" fill="black"/>
<path d="M137.85 72.2065C136.835 69.8214 135.651 67.5119 134.308 65.2956C134.279 65.2544 134.236 65.2253 134.187 65.2139C134.138 65.2026 134.087 65.2097 134.043 65.234C133.999 65.2583 133.965 65.2981 133.949 65.3456C133.933 65.393 133.935 65.4449 133.954 65.4911C135.075 67.7998 136.052 70.1761 137.03 72.5449C138.007 74.9137 138.812 77.3276 139.925 79.5986C139.963 79.6738 140.06 79.5986 140.053 79.546C139.64 77.0143 138.899 74.5472 137.85 72.2065Z" fill="black"/>
</g>
<path d="M151.649 72.4321C150.002 71.853 129.991 72.6351 123.02 76.9441C116.831 80.7417 105.972 91.4201 103.25 95.8644C102.799 96.6164 107.762 104.482 109.371 105.159C110.326 105.558 122.704 94.586 129.608 90.074C135.496 86.2237 150.664 84.81 154.506 84.5994C155.093 84.5393 152.626 72.763 151.649 72.4321Z" fill="#D2161D"/>
<path opacity="0.2" d="M151.649 72.4321C150.002 71.853 129.991 72.6351 123.02 76.9441C116.831 80.7417 105.972 91.4201 103.25 95.8644C102.799 96.6164 107.762 104.482 109.371 105.159C110.326 105.558 122.704 94.586 129.608 90.074C135.496 86.2237 150.664 84.81 154.506 84.5994C155.093 84.5393 152.626 72.763 151.649 72.4321Z" fill="black"/>
<path d="M136.376 158.528C136.376 158.528 135.338 151.415 134.729 150.813C134.12 150.211 125.547 146.12 121.486 139.676C120.463 138.052 116.448 143.804 116.448 143.804C116.448 143.804 119.456 152.024 126.412 156.423C133.368 160.822 141.692 159.912 143.452 158.679C144.024 158.288 142.061 146.399 141.858 146.933C141.348 148.351 140.526 149.636 139.451 150.693C139.143 151.008 140.376 157.979 140.376 157.979L136.376 158.528Z" fill="#D2161D"/>
<path d="M107.461 148.309C92.9479 160.281 48.9258 208.544 51.6857 224.336C53.7386 236.06 66.673 239.564 77.8176 234.631C87.5259 230.337 110.108 178.494 116.29 163.943C122.171 150.061 121.727 136.555 107.461 148.309Z" fill="#EB9481"/>
<path d="M107.461 148.309C92.9479 160.281 48.9258 208.544 51.6857 224.336C53.7386 236.06 66.673 239.564 77.8176 234.631C87.5259 230.337 110.108 178.494 116.29 163.943C122.171 150.061 121.727 136.555 107.461 148.309Z" fill="#D2161D"/>
<path d="M115.057 168.011C115.066 167.99 115.066 167.967 115.057 167.945C115.049 167.924 115.032 167.907 115.012 167.898C114.991 167.889 114.967 167.889 114.946 167.898C114.925 167.906 114.908 167.923 114.899 167.943C113.312 171.621 111.688 175.283 109.996 178.915C108.304 182.547 106.679 186.217 104.98 189.849C101.596 197.088 97.9963 204.22 94.1812 211.244C93.1133 213.214 92.0154 215.161 90.925 217.117C89.8346 219.072 88.669 221.027 87.6162 223.027C87.6162 223.088 87.6689 223.14 87.7065 223.088C88.8871 221.463 89.9625 219.741 91.0152 218.042C92.068 216.342 93.1058 214.658 94.1135 212.936C96.1288 209.499 98.1141 206.032 99.9866 202.513C101.859 198.994 103.747 195.346 105.469 191.707C106.89 188.759 108.281 185.773 109.552 182.75C109.838 182.344 110.124 181.931 110.402 181.51C110.958 180.66 111.5 179.795 112.041 178.93C113.109 177.238 114.049 175.479 115.049 173.764C115.109 173.659 114.929 173.538 114.861 173.651C113.786 175.336 112.605 176.967 111.605 178.682L110.319 180.833C112.049 176.591 113.605 172.313 115.057 168.011Z" fill="#263238"/>
<path d="M55.1372 231.059C45.5718 220.719 58.1452 209.687 67.9663 209.379C91.0451 208.664 124.577 214.861 143.068 221.32C149.408 223.531 150.949 259.89 143.768 259.672C131.029 259.341 74.5463 252.032 55.1372 231.059Z" fill="#EB9481"/>
<path d="M133.992 218.726C133.992 218.726 136.414 219.072 149.506 218.786C158.53 218.591 180.721 223.9 190.505 247.362C194.265 256.386 189.58 262.921 184.023 254.265C180.112 248.167 177.924 243.602 176.089 241.97C176.089 241.97 174.961 253.002 169.374 256.176C164.487 258.956 159.408 261.383 154.176 263.44C153.583 262.567 153.046 261.658 152.567 260.718C150.245 261.775 147.672 262.154 145.144 261.812C142.616 261.47 140.236 260.421 138.279 258.785L133.992 218.726Z" fill="#EB9481"/>
<path d="M158.169 219.982C161.809 222.99 169.449 229.6 173.773 237.142C178.608 245.527 185.662 262.974 179.435 266.47C174.878 269.042 171.6 262.613 171.6 262.613C171.6 262.613 172.991 270.441 168.366 271.862C164.14 273.156 161.906 268.035 161.906 268.035C161.906 268.035 161.906 272.923 157.627 273.389C152.454 273.945 153.236 263.613 147.506 259.635C146.22 258.755 158.169 219.982 158.169 219.982Z" fill="#EB9481"/>
<path d="M164.065 240.775C167.02 244.196 171.735 253.694 171.705 262.447C171.705 262.65 171.547 262.756 171.509 262.575C169.894 255.045 167.369 247.74 163.989 240.82C163.959 240.775 164.035 240.737 164.065 240.775Z" fill="#263238"/>
<path d="M155.748 245.903C158.004 249.114 162.418 259.123 162.079 267.997C162.079 268.192 161.914 268.29 161.884 268.102C160.657 260.503 158.57 253.069 155.665 245.941C155.642 245.896 155.717 245.858 155.748 245.903Z" fill="#263238"/>
<path d="M131.503 213.71L124.539 238.526L123.494 261.936C123.494 261.936 49.7981 243.444 51.5953 223.02C52.212 216.132 58.7844 206.957 74.1553 206.431C89.5262 205.904 131.503 213.71 131.503 213.71Z" fill="#D2161D"/>
<path d="M131.706 214.304C130.111 213.853 128.547 213.334 126.938 212.921C125.329 212.507 123.802 212.123 122.223 211.762C119.05 211.01 115.823 210.439 112.612 209.905C106.257 208.843 99.8517 208.102 93.4214 207.687C91.0677 206.935 88.6312 206.401 86.2398 205.754C86.1721 205.754 86.1571 205.844 86.2398 205.867C88.195 206.423 90.1352 207.078 92.0979 207.611C90.5939 207.521 89.0899 207.438 87.631 207.386C85.8262 207.311 84.0139 207.386 82.2091 207.386C82.149 207.386 82.1414 207.499 82.2091 207.499C83.8109 207.581 85.4201 207.777 87.0144 207.927C88.6086 208.078 90.2931 208.198 91.9249 208.356C95.1736 208.672 98.4147 209.025 101.641 209.446C108.078 210.296 114.515 211.274 120.877 212.552C122.659 212.913 124.449 213.229 126.231 213.59C128.013 213.951 129.863 214.259 131.661 214.658C131.856 214.665 131.901 214.357 131.706 214.304Z" fill="#263238"/>
<path d="M121.637 261.349C118.561 260.447 115.523 259.432 112.455 258.499C109.387 257.567 106.281 256.589 103.228 255.544C97.084 253.453 91.038 251.115 84.9618 248.836C81.4425 247.512 77.878 246.324 74.3586 245.008C74.2684 244.971 74.2007 245.106 74.2985 245.144C75.8025 245.79 77.3741 246.482 78.9082 247.159C80.4423 247.836 81.9162 248.437 83.4202 249.092C86.4282 250.408 89.5264 251.633 92.5946 252.852C98.6326 255.262 104.789 257.363 111.041 259.146C114.53 260.139 118.057 260.883 121.607 261.59C121.75 261.62 121.78 261.387 121.637 261.349Z" fill="#263238"/>
<path d="M135.278 213.808C135.157 213.552 121.922 211.687 121.922 211.687C121.922 211.687 111.394 234.698 111.545 237.383C111.695 240.068 112.59 260.575 112.8 260.815C113.011 261.056 128.998 264.808 129.299 264.32C129.6 263.831 129.405 241.722 129.367 240.023C129.329 238.323 135.278 213.808 135.278 213.808Z" fill="#D2161D"/>
<path opacity="0.2" d="M135.203 213.808C135.082 213.552 121.84 211.732 121.84 211.732C121.84 211.732 111.364 234.774 111.545 237.466C111.725 240.158 112.658 260.65 112.868 260.891C113.079 261.131 129.081 264.831 129.412 264.342C129.743 263.853 129.45 241.745 129.412 240.045C129.375 238.346 135.203 213.808 135.203 213.808Z" fill="black"/>
<path d="M347.973 249.851V281.984C347.973 284.24 347.116 286.158 346.071 286.158H333.708H321.33C320.285 286.158 319.442 284.3 319.442 282.007V249.851C319.442 247.558 320.285 245.7 321.33 245.7H322.473V242.692H333.708H344.928V245.7H346.071C347.116 245.7 347.973 247.558 347.973 249.851Z" fill="#D2161D"/>
<path d="M345.71 237.752H321.668V243.158H345.71V237.752Z" fill="#37474F"/>
<path d="M347.973 256.664H319.442V276.961H347.973V256.664Z" fill="#EBEBEB"/>
<path d="M316.269 280.495C316.269 284.706 314.69 286.158 313.885 286.158H306.809H300.169C299.364 286.158 297.778 284.714 297.77 280.495C297.77 275.502 301.342 272.509 301.342 269.772C301.342 267.997 299.62 262.47 300.357 262.47H313.63C314.382 262.47 312.667 267.989 312.667 269.772C312.675 272.516 316.262 275.472 316.269 280.495Z" fill="#C7C7C7"/>
<path d="M301.375 258.8L312.557 258.785C312.986 258.784 313.397 258.954 313.701 259.257C314.004 259.559 314.175 259.971 314.176 260.399L314.18 263.686C314.18 263.715 314.169 263.744 314.148 263.765C314.126 263.787 314.098 263.798 314.068 263.798L299.878 263.818C299.848 263.818 299.819 263.807 299.798 263.785C299.777 263.764 299.765 263.736 299.765 263.706L299.76 260.419C299.759 259.991 299.929 259.579 300.232 259.276C300.535 258.972 300.946 258.801 301.375 258.8Z" fill="#37474F"/>
<path d="M95.1738 252.438L91.9627 249.851C94.4142 246.798 97.2267 242.895 97.6704 241.669C97.1891 238.579 94.3014 228.374 92.4666 226.953H80.4346V222.832H92.6771C98.5201 222.832 101.754 241.233 101.776 241.421C101.889 242.136 102.1 243.828 95.1738 252.438Z" fill="#EBEBEB"/>
<path d="M74.2832 279.728C53.4754 279.728 48.4445 266.192 50.4975 256.717C52.5504 247.242 67.0791 239.098 67.252 235.999C67.425 232.901 67.252 218.989 66.5 218.042C65.748 217.094 60.9879 215.259 59.732 215.259C58.4762 215.259 58.4386 213.665 59.732 213.665H83.7208C85.0142 213.665 85.0142 215.259 83.7208 215.259C82.4274 215.259 81.6152 216.846 81.3896 218.523C81.2242 219.704 80.9911 233.42 81.337 235.999C81.7506 239.068 96.0235 247.227 98.0915 256.717C100.16 266.207 95.0835 279.728 74.2832 279.728Z" fill="#EBEBEB"/>
<path d="M73.772 276.525C56.2729 276.525 52.0467 265.154 53.7688 257.183C55.4909 249.212 70.2075 240.286 69.9217 237.699C69.8691 237.195 69.8315 227.043 69.8089 225.983H78.5246C78.5246 227.088 78.5848 237.263 78.6449 237.699C78.9984 240.278 92.023 249.197 93.7676 257.183C95.5123 265.169 91.2635 276.525 73.772 276.525Z" fill="#D2161D"/>
<path d="M154.341 278.766C154.31 279.929 154.037 281.073 153.539 282.126C153.042 283.178 152.332 284.116 151.453 284.879C147.693 288.451 141.136 290.444 134.255 290.098C129.593 289.858 123.569 287.842 117.756 285.857C111.943 283.872 106.273 281.984 102.446 282.022L57.1602 282.443V279.668H58.2205V281.383L102.446 280.969C106.454 280.931 112.109 282.841 118.102 284.864C123.855 286.804 129.796 288.812 134.315 289.045C140.918 289.384 147.205 287.496 150.724 284.12C151.499 283.457 152.127 282.64 152.569 281.72C153.01 280.801 153.255 279.8 153.288 278.781L154.341 278.766Z" fill="#A6A6A6"/>
<path d="M153.905 276.314C154.204 277.097 154.362 277.927 154.371 278.766H153.311C153.254 277.752 152.988 276.761 152.529 275.856C152.071 274.95 151.431 274.148 150.649 273.502C147.069 270.2 140.745 268.426 134.15 268.892C129.638 269.2 123.727 271.321 118.012 273.404C112.064 275.54 106.446 277.555 102.431 277.585L58.2131 277.999V279.713H57.1377V276.946L102.416 276.525C106.243 276.525 111.785 274.502 117.651 272.396C123.517 270.291 129.412 268.177 134.067 267.884C140.948 267.403 147.603 269.283 151.363 272.78C152.47 273.747 153.34 274.957 153.905 276.314Z" fill="#A6A6A6"/>
<path d="M154.341 278.766C154.325 279.339 154.189 279.904 153.941 280.422C153.694 280.94 153.341 281.4 152.905 281.774C149.822 284.782 142.309 286.669 134.225 286.428C129.593 286.286 123.592 284.985 117.794 283.721C111.996 282.458 106.296 281.217 102.438 281.255L57.1528 281.676V279.683H58.2132V280.616L102.438 280.202C106.416 280.164 112.056 281.39 118.027 282.691C123.78 283.947 129.728 285.24 134.27 285.376C141.963 285.609 149.31 283.819 152.175 281.022C152.506 280.742 152.776 280.398 152.967 280.01C153.159 279.622 153.268 279.198 153.288 278.766H154.341Z" fill="#A6A6A6"/>
<path d="M154.123 277.6C154.266 277.972 154.34 278.367 154.341 278.766V279.292L57.1377 280.202V277.675L102.423 277.254C106.281 277.216 111.838 275.9 117.726 274.509C123.502 273.133 129.48 271.719 134.112 271.501C142.189 271.11 149.731 272.832 152.875 275.803C153.42 276.301 153.846 276.915 154.123 277.6ZM153.213 278.247C153.013 277.595 152.636 277.012 152.123 276.562C149.22 273.825 141.828 272.178 134.142 272.554C129.63 272.772 123.682 274.178 117.944 275.562C112.004 276.968 106.394 278.299 102.408 278.337L58.1905 278.751V279.149L153.213 278.247Z" fill="#A6A6A6"/>
<path d="M55.1146 284.24L90.8646 283.909L90.7744 274.803L54.8213 275.141L55.1146 284.24Z" fill="#37474F"/>
</svg>
