<svg width="398" height="300" viewBox="0 0 398 300" fill="none" xmlns="http://www.w3.org/2000/svg">
<path d="M349.41 52.3125H265.319V145.364H349.41V52.3125Z" fill="#E6E6E6"/>
<path d="M345.93 55.998H269.02V141.87H345.93V55.998Z" fill="#F5F5F5"/>
<path d="M290.756 55.998L269.02 137.404V93.3335L278.965 55.998H290.756Z" fill="white"/>
<path d="M300.47 55.998L277.546 141.87H273.222L296.146 55.998H300.47Z" fill="white"/>
<path d="M345.93 79.4151V123.493L341.061 141.87H329.271L345.93 79.4151Z" fill="white"/>
<path d="M308.858 52.3125H305.871V145.364H308.858V52.3125Z" fill="#E6E6E6"/>
<path d="M347.797 71.1937H266.779V74.1805H347.797V71.1937Z" fill="#E6E6E6"/>
<path d="M99.6919 81.995H96.1821V223.346H99.6919V81.995Z" fill="#E0E0E0"/>
<path d="M116.267 223.346H112.75L99.0059 81.995H102.523L116.267 223.346Z" fill="#E6E6E6"/>
<path d="M86.9099 179.743H76.7788V189.875H86.9099V179.743Z" fill="#E0E0E0"/>
<path d="M93.3867 154.13L96.9444 142.309L98.8128 142.783L95.0281 154.742L93.3867 154.13Z" fill="#E0E0E0"/>
<path d="M85.5089 147.467L80.4056 148.697L78.915 153.725L82.5282 157.53L87.6314 156.307L89.122 151.28L85.5089 147.467Z" fill="#E0E0E0"/>
<path d="M91.4911 154.267C90.8138 154.264 90.2653 153.715 90.2617 153.038V150.737C90.2653 150.061 90.8148 149.515 91.4911 149.515C92.1663 149.515 92.7138 150.062 92.7138 150.737V153.038C92.7138 153.714 92.1674 154.264 91.4911 154.267Z" fill="#E0E0E0"/>
<path d="M96.945 152.502H75.7412V162.105H96.945V152.502Z" fill="#E6E6E6"/>
<path d="M91.5396 71.2319L88.5513 80.1061H94.0741L91.5396 71.2319Z" fill="#E0E0E0"/>
<path d="M101.959 80.1061H91.5396L88.5513 65.6133H98.9645L101.959 80.1061Z" fill="#E6E6E6"/>
<path d="M83.4448 124.646L80.457 133.52H85.9794L83.4448 124.646Z" fill="#E0E0E0"/>
<path d="M93.8647 133.52H83.4448L80.457 119.027H90.8698L93.8647 133.52Z" fill="#E6E6E6"/>
<path d="M114.199 105.046H66.3174V108.123H114.199V105.046Z" fill="#E0E0E0"/>
<path d="M114.199 133.318H66.3174V136.396H114.199V133.318Z" fill="#E0E0E0"/>
<path d="M114.199 161.597H66.3174V164.674H114.199V161.597Z" fill="#E0E0E0"/>
<path d="M114.206 161.597H81.5728V164.674H114.206V161.597Z" fill="#F0F0F0"/>
<path d="M114.199 189.868H66.3174V192.945H114.199V189.868Z" fill="#E0E0E0"/>
<path d="M114.206 189.868H81.5728V192.945H114.206V189.868Z" fill="#F0F0F0"/>
<path d="M69.8272 81.995H66.3174V223.346H69.8272V81.995Z" fill="#E0E0E0"/>
<path d="M86.4081 223.346H82.8912L69.1475 81.995H72.6639L86.4081 223.346Z" fill="#E6E6E6"/>
<path d="M114.199 79.6188H66.3174V82.6957H114.199V79.6188Z" fill="#E0E0E0"/>
<path d="M114.206 79.6188H81.5728V82.6957H114.206V79.6188Z" fill="#F0F0F0"/>
<path d="M76.4174 74.735C75.8602 73.3835 75.9101 71.8572 76.5549 70.5449C77.661 68.4844 77.9833 67.9762 77.2418 67.5499C76.4999 67.1242 76.2182 69.2122 76.2182 69.2122C75.8669 68.269 75.8307 67.2378 76.1154 66.2722C76.6032 64.7679 76.9124 62.3158 76.2391 62.0551C75.5659 61.7938 76.1154 65.1116 75.5521 66.2452C75.2563 65.4488 75.0648 64.6177 74.9823 63.7723C74.9069 62.5633 75.0302 60.6404 74.5015 60.1459C73.9724 59.6514 73.6363 59.988 74.1512 62.6529C74.4634 64.2372 74.6355 65.8465 74.6665 67.4608C74.6665 67.4608 73.5197 63.9648 72.7502 63.8614C71.9807 63.7585 71.9807 64.8916 72.6402 65.874C73.2997 66.8563 74.5703 68.6214 74.7832 69.5213C74.7832 69.5213 73.5192 66.8905 72.3927 67.7012C71.2662 68.5119 73.3751 70.0916 74.3162 70.6686C75.2573 71.2456 75.9168 74.845 75.9168 74.845L76.4184 74.735H76.4174Z" fill="#E0E0E0"/>
<path d="M75.6548 75.5661C76.1941 74.2095 76.1269 72.6868 75.4694 71.3831C74.3363 69.3227 74.0134 68.8348 74.7137 68.4019C75.4144 67.9691 75.7576 70.0504 75.7576 70.0504C76.0958 69.1011 76.1197 68.0679 75.8264 67.1038C75.3182 65.6066 74.9815 63.1612 75.6476 62.8933C76.3138 62.6255 75.8126 65.9427 76.4034 67.0692C76.6901 66.2697 76.8724 65.436 76.9462 64.5897C77.0079 63.3807 76.8637 61.4577 77.3857 60.9561C77.9077 60.4545 78.251 60.7845 77.7636 63.4632C77.4718 65.0495 77.318 66.6582 77.3032 68.2711C77.3032 68.2711 78.4088 64.7613 79.1783 64.6447C79.9478 64.528 79.9615 65.6683 79.3087 66.6572C78.6563 67.6462 77.4127 69.4047 77.2482 70.3386C77.2482 70.3386 78.471 67.6874 79.6112 68.4773C80.7514 69.2672 78.6563 70.8881 77.7224 71.4722C76.7884 72.0563 76.1701 75.6761 76.1701 75.6761L75.6548 75.5661Z" fill="#EBEBEB"/>
<path d="M79.996 74.0547H72.2202L72.8522 79.6188H79.3707L79.996 74.0547Z" fill="#E0E0E0"/>
<path d="M93.7305 102.574V104.703H94.0743V105.046H78.1596C77.3819 105.046 76.7515 104.416 76.7515 103.638C76.7515 102.861 77.3819 102.23 78.1596 102.23H94.0743V102.573H93.7305V102.574Z" fill="#E0E0E0"/>
<path opacity="0.3" d="M93.7303 102.574V104.703H94.074V105.046H86.0375C85.2599 105.046 84.6294 104.416 84.6294 103.638C84.6294 102.861 85.2599 102.23 86.0375 102.23H94.074V102.573H93.7308L93.7303 102.574Z" fill="white"/>
<path d="M93.7305 102.574V104.703H86.0377C85.4459 104.714 84.957 104.244 84.9458 103.653V103.639C84.9418 103.055 85.4123 102.578 85.9964 102.574H93.7305Z" fill="white"/>
<path d="M95.4405 99.7578V101.887H95.7838V102.23H79.869C79.0914 102.23 78.4609 101.6 78.4609 100.822C78.4609 100.044 79.0914 99.414 79.869 99.414H95.7838V99.7573H95.4405V99.7578Z" fill="#E0E0E0"/>
<path d="M95.4408 99.7578V101.887H95.784V102.23H87.7474C86.9698 102.23 86.3394 101.6 86.3394 100.822C86.3394 100.044 86.9698 99.414 87.7474 99.414H95.784V99.7573H95.4408V99.7578Z" fill="#E6E6E6"/>
<path d="M95.4413 99.7578V101.887H87.7485C87.1623 101.883 86.6877 101.409 86.6836 100.823C86.68 100.239 87.1501 99.7619 87.7347 99.7578C87.7393 99.7578 87.7439 99.7578 87.7485 99.7578H95.4413Z" fill="white"/>
<path d="M93.2906 96.9416V99.0708H93.6338V99.414H77.7191C76.9415 99.414 76.311 98.7836 76.311 98.0059C76.311 97.2283 76.9415 96.5978 77.7191 96.5978H93.6338V96.9411H93.2906V96.9416Z" fill="#E0E0E0"/>
<path d="M93.2909 96.9416V99.0708H93.6341V99.414H85.6322C84.8546 99.414 84.2241 98.7836 84.2241 98.0059C84.2241 97.2283 84.8546 96.5978 85.6322 96.5978H93.6688V96.9411H93.2909V96.9416Z" fill="#E6E6E6"/>
<path d="M93.2905 96.9416V99.0708H85.6318C85.04 99.0861 84.5481 98.6186 84.5328 98.0273V98.0131C84.5247 97.4289 84.9917 96.9487 85.5758 96.9411C85.5946 96.9411 85.613 96.9411 85.6318 96.9416H93.2905Z" fill="white"/>
<path d="M96.1623 175.327C98.0893 175.327 99.6517 176.889 99.6517 178.817V183.962C99.6517 185.889 98.0893 187.451 96.1623 187.451C94.2352 187.451 92.6729 185.889 92.6729 183.962V178.817C92.6729 176.889 94.2352 175.327 96.1623 175.327Z" fill="#E6E6E6"/>
<path d="M96.9993 184.318H95.3096V189.875H96.9993V184.318Z" fill="#E6E6E6"/>
<path d="M98.7991 189.346H93.5171V189.868H98.7991V189.346Z" fill="#E6E6E6"/>
<path d="M349.333 208.957C349.324 208.683 348.401 181.437 343.969 177.128C339.659 172.938 334.711 176.972 334.504 177.145L334.059 176.612C334.115 176.565 339.698 172.008 344.452 176.63C349.083 181.134 349.989 207.802 350.025 208.935L349.332 208.957H349.333Z" fill="#E0E0E0"/>
<path d="M349.713 214.312C349.681 213.986 346.685 181.603 358.511 168.031L359.034 168.486C347.404 181.834 350.373 213.922 350.404 214.244L349.713 214.312Z" fill="#E0E0E0"/>
<path d="M349.277 210.886L348.585 210.841C348.609 210.473 350.899 174.025 342.225 166.047L342.694 165.536C351.612 173.739 349.377 209.373 349.277 210.887L349.277 210.886Z" fill="#E0E0E0"/>
<path d="M350.406 210.866L349.712 210.86C349.721 209.857 349.998 186.241 356.706 182.398C358.197 181.542 359.657 181.4 361.046 181.974C365.103 183.652 367.113 190.871 367.196 191.177L366.527 191.359C366.507 191.288 364.523 184.162 360.781 182.615C359.601 182.128 358.346 182.256 357.051 182.999C350.686 186.646 350.408 210.624 350.406 210.865L350.406 210.866Z" fill="#E0E0E0"/>
<path d="M347.794 210.883L347.102 210.844C347.112 210.657 348.114 192.182 343.128 185.673C341.92 184.096 340.608 183.344 339.223 183.441C335.956 183.669 333.216 188.45 333.189 188.498L332.585 188.157C332.704 187.947 335.534 183.004 339.173 182.75C340.801 182.634 342.319 183.477 343.679 185.252C348.821 191.965 347.839 210.115 347.794 210.884L347.794 210.883Z" fill="#E0E0E0"/>
<path d="M348.886 213.396C348.75 211.603 345.627 169.419 351.123 161.985L351.681 162.397C346.337 169.625 349.545 212.907 349.578 213.343L348.886 213.396V213.396Z" fill="#E0E0E0"/>
<path d="M362.541 186.25C362.541 186.25 359.244 187.465 360.225 190.335C361.205 193.204 371.631 197.927 371.631 197.927C371.631 197.927 375.997 193.925 371.988 187.416C367.978 180.906 362.631 184.196 362.541 186.25Z" fill="#EBEBEB"/>
<path d="M348.208 180.787C348.208 180.787 351.719 180.64 351.918 183.666C352.118 186.692 344.312 195.063 344.312 195.063C344.312 195.063 338.741 193.049 339.938 185.498C341.134 177.947 347.335 178.925 348.208 180.786V180.787Z" fill="#EBEBEB"/>
<path d="M345.236 166.302C345.236 166.302 347.577 166.051 347.388 164.625C347.2 163.199 338.288 159.53 333.031 165.463C333.031 165.463 336.397 171.246 341.264 171.322C346.13 171.398 345.236 166.302 345.236 166.302Z" fill="#EBEBEB"/>
<path d="M349.597 162.84C349.597 162.84 347.477 163.864 346.883 162.554C346.289 161.245 351.911 153.417 359.511 155.672C359.511 155.672 359.713 162.361 355.623 164.999C351.533 167.637 349.597 162.84 349.597 162.84Z" fill="#EBEBEB"/>
<path d="M338.515 185.096C338.515 185.096 340.13 183.792 338.387 183.155C336.643 182.518 328.089 182.699 328 191.173C328 191.173 337.963 192.829 339.196 189.601C340.43 186.373 338.515 185.096 338.515 185.096L338.515 185.096Z" fill="#EBEBEB"/>
<path d="M358.832 166.09C358.832 166.09 357.217 164.786 358.96 164.148C360.703 163.512 369.258 163.693 369.347 172.167C369.347 172.167 359.383 173.823 358.15 170.595C356.917 167.367 358.832 166.09 358.832 166.09Z" fill="#EBEBEB"/>
<path d="M353.565 172.916C353.565 172.916 353.422 171.33 354.703 171.952C355.983 172.574 360.443 177.385 355.82 181.951C355.82 181.951 349.596 177.342 350.718 174.942C351.84 172.542 353.565 172.916 353.565 172.916Z" fill="#EBEBEB"/>
<path d="M337.07 175.176C337.07 175.176 338.036 173.91 336.621 173.754C335.207 173.597 328.869 175.288 330.345 181.616C330.345 181.616 338.067 181.035 338.398 178.407C338.729 175.778 337.07 175.176 337.07 175.176Z" fill="#EBEBEB"/>
<path d="M356.897 223.089H341.322L337.178 203.98H360.647L356.897 223.089Z" fill="#F0F0F0"/>
<path d="M361.998 203.703H335.766V209.199H361.998V203.703Z" fill="#E6E6E6"/>
<path d="M246.848 83.182H215.059V123.968H246.848V83.182Z" fill="#E6E6E6"/>
<path d="M245.288 83.182H207.947V123.968H245.288V83.182Z" fill="#F0F0F0"/>
<path d="M241.683 86.8044H211.389V120.345H241.683V86.8044Z" fill="white"/>
<path d="M232.275 97.5211H221.34V109.629H232.275V97.5211Z" fill="#F0F0F0"/>
<path d="M200.521 62.5384H169.099V102.854H200.521V62.5384Z" fill="#E6E6E6"/>
<path d="M198.978 62.5384H162.068V102.854H198.978V62.5384Z" fill="#F0F0F0"/>
<path d="M195.415 66.1189H165.471V99.2724H195.415V66.1189Z" fill="white"/>
<path d="M186.116 76.7119H175.307V88.6794H186.116V76.7119Z" fill="#F0F0F0"/>
<path d="M354.597 187.044H262.552C260.906 187.044 259.566 185.705 259.566 184.059V49.9853C259.566 48.3393 260.906 47 262.552 47H354.597C356.243 47 357.583 48.3388 357.583 49.9853V184.058C357.583 185.705 356.243 187.044 354.597 187.044V187.044ZM262.552 47.1273C260.976 47.1273 259.694 48.4096 259.694 49.9853V184.058C259.694 185.634 260.976 186.916 262.552 186.916H354.597C356.174 186.916 357.455 185.634 357.455 184.058V49.9853C357.455 48.4096 356.173 47.1273 354.597 47.1273H262.552Z" fill="#E0E0E0"/>
<path d="M248.455 187.044H156.409C154.763 187.044 153.423 185.705 153.423 184.059V49.9853C153.423 48.3393 154.762 47 156.409 47H248.455C250.101 47 251.44 48.3388 251.44 49.9853V184.058C251.44 185.705 250.101 187.044 248.455 187.044V187.044ZM156.409 47.1273C154.833 47.1273 153.551 48.4096 153.551 49.9853V184.058C153.551 185.634 154.833 186.916 156.409 186.916H248.455C250.032 186.916 251.313 185.634 251.313 184.058V49.9853C251.313 48.4096 250.031 47.1273 248.455 47.1273H156.409Z" fill="#E0E0E0"/>
<path d="M142.38 187.044H50.3339C48.688 187.044 47.3486 185.705 47.3486 184.059V49.9853C47.3486 48.3393 48.6875 47 50.3339 47H142.38C144.026 47 145.365 48.3388 145.365 49.9853V184.058C145.365 185.705 144.026 187.044 142.38 187.044V187.044ZM50.3339 47.1273C48.7582 47.1273 47.4759 48.4096 47.4759 49.9853V184.058C47.4759 185.634 48.7582 186.916 50.3339 186.916H142.38C143.956 186.916 145.238 185.634 145.238 184.058V49.9853C145.238 48.4096 143.956 47.1273 142.38 47.1273H50.3339Z" fill="#E0E0E0"/>
<path d="M389.941 223.089H8V223.15H389.941V223.089Z" fill="#E0E0E0"/>
<path d="M372.738 233.104H344.357V233.318H372.738V233.104Z" fill="#EBEBEB"/>
<path d="M271.047 235.429H263.598V235.643H271.047V235.429Z" fill="#EBEBEB"/>
<path d="M69.2029 226.587H32.1934V226.801H69.2029V226.587Z" fill="#EBEBEB"/>
<path d="M82.2577 226.587H76.8315V226.801H82.2577V226.587Z" fill="#EBEBEB"/>
<path d="M180.16 230.204H99.8945V230.419H180.16V230.204Z" fill="#EBEBEB"/>
<path d="M359.007 246.717C359.007 248.441 287.357 249.839 198.971 249.839C110.585 249.839 38.9346 248.441 38.9346 246.717C38.9346 244.992 110.585 243.594 198.971 243.594C287.357 243.594 359.007 244.992 359.007 246.717Z" fill="#F5F5F5"/>
<path d="M48.7119 193.672C49.8226 203.619 53.9429 212.842 56.1618 222.536C56.8029 225.337 57.2714 228.174 57.4644 231.043C57.4812 231.293 57.8729 231.295 57.8561 231.043C57.1838 221.044 53.1505 211.765 50.7036 202.15C49.9937 199.36 49.4233 196.534 49.1035 193.672C49.076 193.424 48.6839 193.421 48.7119 193.672V193.672Z" fill="#263238"/>
<path d="M53.1014 210.513C53.8342 206.562 55.0697 202.738 56.7263 199.079C56.8292 198.851 56.492 198.651 56.3882 198.881C54.7173 202.572 53.463 206.424 52.7241 210.409C52.6782 210.656 53.0551 210.761 53.1014 210.513Z" fill="#263238"/>
<path d="M51.8962 207.242C50.9536 205.617 49.9967 203.973 48.7037 202.65C48.4465 202.386 48.1649 202.13 47.8232 202.02C47.4815 201.911 47.0644 201.986 46.8505 202.29C46.6356 202.596 46.687 203.043 46.876 203.367C47.0654 203.692 47.3664 203.92 47.6592 204.14C49.0943 205.218 50.5294 206.296 51.9645 207.374L51.8962 207.243V207.242Z" fill="#263238"/>
<path d="M56.8461 207.233C56.6301 207.173 56.1127 207.327 55.9391 207.476C55.0764 208.218 54.6283 209.079 54.2606 210.194C53.8924 211.308 53.8954 212.669 53.8853 213.851L54.0482 214.506C54.3782 212.953 55.0357 211.48 55.9584 210.226C56.4422 209.569 57.0182 208.93 57.174 208.111C57.2392 207.77 57.1623 207.321 56.8461 207.233V207.233Z" fill="#263238"/>
<path d="M59.4027 215.759C59.1868 215.699 58.6694 215.852 58.4957 216.001C57.633 216.744 57.1849 217.604 56.8172 218.719C56.4495 219.834 56.4521 221.194 56.4419 222.376L56.6049 223.031C56.9349 221.478 57.5923 220.004 58.5146 218.752C58.9984 218.094 59.5743 217.455 59.7302 216.636C59.7953 216.295 59.7184 215.846 59.4022 215.758L59.4027 215.759Z" fill="#263238"/>
<path d="M51.992 221.514C52.1402 221.366 52.6174 221.25 52.8175 221.289C53.8111 221.485 54.5205 221.968 55.2691 222.691C56.0177 223.414 56.5697 224.505 57.0591 225.447L57.1956 226.047C56.2988 224.956 55.1718 224.079 53.9226 223.502C53.2672 223.199 52.5456 222.953 52.0873 222.369C51.8963 222.126 51.7751 221.731 51.992 221.514V221.514Z" fill="#263238"/>
<path d="M58.3464 202.668C58.21 202.534 57.7735 202.43 57.5907 202.467C56.6832 202.652 56.037 203.096 55.3556 203.761C54.6742 204.426 54.1746 205.427 53.7316 206.291L53.6099 206.84C54.4247 205.837 55.4513 205.03 56.591 204.496C57.1889 204.216 57.8474 203.987 58.2639 203.451C58.4376 203.227 58.5461 202.866 58.3464 202.668Z" fill="#263238"/>
<path d="M52.4484 197.184C52.264 197.161 51.8536 197.351 51.7262 197.495C51.0943 198.214 50.8177 198.978 50.6344 199.943C50.4511 200.908 50.5998 202.03 50.7189 203.007L50.9242 203.528C51.0291 202.206 51.4125 200.91 52.0389 199.763C52.3674 199.161 52.7738 198.563 52.814 197.869C52.8308 197.579 52.7188 197.218 52.4484 197.184Z" fill="#263238"/>
<path d="M56.9281 194.692C56.8863 194.331 56.7799 193.922 56.4865 193.811C56.2136 193.707 55.8958 193.936 55.7512 194.242C55.6065 194.549 55.5953 194.909 55.606 195.251C55.6422 196.414 55.5999 198.529 56.3276 199.278L56.3877 199.143C56.5899 198.164 57.033 195.598 56.9281 194.692Z" fill="#D2161D"/>
<g opacity="0.3">
<path d="M56.9281 194.692C56.8863 194.331 56.7799 193.922 56.4865 193.811C56.2136 193.707 55.8958 193.936 55.7512 194.242C55.6065 194.549 55.5953 194.909 55.606 195.251C55.6422 196.414 55.5999 198.529 56.3276 199.278L56.3877 199.143C56.5899 198.164 57.033 195.598 56.9281 194.692Z" fill="black"/>
</g>
<path d="M60.4156 197.557C60.6743 197.32 60.9346 196.999 60.8592 196.677C60.7889 196.377 60.4345 196.222 60.1142 196.264C59.7943 196.306 59.5066 196.496 59.2459 196.694C58.3572 197.371 56.6818 198.507 56.5005 199.568L56.639 199.546C57.5159 199.183 59.7663 198.152 60.4156 197.557Z" fill="#D2161D"/>
<g opacity="0.3">
<path d="M60.4156 197.557C60.6743 197.32 60.9346 196.999 60.8592 196.677C60.7889 196.377 60.4345 196.222 60.1142 196.264C59.7943 196.306 59.5066 196.496 59.2459 196.694C58.3572 197.371 56.6818 198.507 56.5005 199.568L56.639 199.546C57.5159 199.183 59.7663 198.152 60.4156 197.557Z" fill="black"/>
</g>
<path d="M60.8963 198.378C60.7995 198.061 60.4379 197.937 60.1248 197.922C59.5269 197.892 58.9341 198.084 58.4009 198.373C58.0842 198.546 57.499 198.783 56.9755 199.028C57.7134 198.205 58.4213 197.181 58.9896 196.317C59.3609 195.752 59.3532 195.162 59.2636 194.894C59.2045 194.717 59.0574 194.584 58.8913 194.519C58.7258 194.455 58.5435 194.453 58.3693 194.481C57.5775 194.606 57.0468 195.507 56.7535 196.301C56.5019 196.982 56.2565 198.186 56.179 199.053C56.2239 197.968 56.0151 196.724 55.7085 195.774C55.5863 195.395 55.3775 194.976 55.0067 194.909C54.661 194.847 54.3284 195.15 54.2179 195.504C54.1074 195.859 54.1665 196.247 54.2474 196.611C54.5235 197.85 55.0959 199.088 56.1123 199.759C56.783 200.009 57.5362 200.025 58.2466 200.015C58.706 200.008 59.1704 199.98 59.6104 199.841C60.0509 199.702 60.47 199.442 60.7389 199.045C60.8698 198.852 60.9645 198.604 60.8958 198.377L60.8963 198.378Z" fill="#D2161D"/>
<path d="M58.1634 199.311C58.1186 199.164 57.9515 199.107 57.8069 199.1C57.5309 199.086 57.2569 199.175 57.0109 199.309C56.8648 199.388 56.5944 199.498 56.3525 199.611C56.6932 199.232 57.0201 198.758 57.2824 198.359C57.454 198.098 57.4504 197.825 57.4092 197.702C57.3817 197.621 57.3139 197.559 57.237 197.529C57.1607 197.5 57.0766 197.499 56.9962 197.511C56.63 197.569 56.3851 197.985 56.2496 198.352C56.1335 198.667 56.0199 199.223 55.9843 199.623C56.0046 199.122 55.9084 198.548 55.7668 198.108C55.7103 197.933 55.6141 197.739 55.4429 197.709C55.283 197.68 55.1297 197.82 55.0783 197.984C55.0274 198.148 55.0544 198.327 55.0921 198.495C55.2194 199.067 55.4842 199.639 55.9532 199.949C56.2628 200.064 56.6112 200.072 56.9391 200.067C57.1515 200.064 57.3659 200.05 57.5691 199.986C57.7723 199.922 57.9663 199.802 58.0906 199.619C58.1512 199.529 58.195 199.415 58.1629 199.31L58.1634 199.311Z" fill="#263238"/>
<path d="M44.8085 188.296C44.4337 188.058 43.9627 187.852 43.6271 188.079C43.3139 188.291 43.2813 188.812 43.4585 189.209C43.6357 189.606 43.9683 189.9 44.3003 190.157C45.4309 191.032 47.4017 192.738 48.683 192.543L48.602 192.372C47.833 191.386 45.7491 188.895 44.8085 188.296Z" fill="#D2161D"/>
<g opacity="0.3">
<path d="M44.8085 188.296C44.4337 188.058 43.9627 187.852 43.6271 188.079C43.3139 188.291 43.2813 188.812 43.4585 189.209C43.6357 189.606 43.9683 189.9 44.3003 190.157C45.4309 191.032 47.4017 192.738 48.683 192.543L48.602 192.372C47.833 191.386 45.7491 188.895 44.8085 188.296Z" fill="black"/>
</g>
<path d="M50.2616 186.793C50.2397 186.329 50.1399 185.796 49.7763 185.625C49.4371 185.465 49.0119 185.725 48.8 186.102C48.5887 186.479 48.5428 186.937 48.526 187.374C48.4695 188.861 48.2302 191.555 49.0923 192.583L49.1804 192.417C49.5247 191.188 50.3151 187.959 50.2611 186.793L50.2616 186.793Z" fill="#D2161D"/>
<g opacity="0.3">
<path d="M50.2616 186.793C50.2397 186.329 50.1399 185.796 49.7763 185.625C49.4371 185.465 49.0119 185.725 48.8 186.102C48.5887 186.479 48.5428 186.937 48.526 187.374C48.4695 188.861 48.2302 191.555 49.0923 192.583L49.1804 192.417C49.5247 191.188 50.3151 187.959 50.2611 186.793L50.2616 186.793Z" fill="black"/>
</g>
<path d="M51.4174 186.922C51.0405 186.776 50.6398 187.068 50.379 187.393C49.8815 188.012 49.5978 188.801 49.4537 189.602C49.3681 190.078 49.1334 190.894 48.9546 191.649C48.7545 190.21 48.3405 188.644 47.9672 187.354C47.7233 186.511 47.1585 186.056 46.8346 185.943C46.6207 185.867 46.3783 185.921 46.1873 186.048C45.9964 186.176 45.8517 186.37 45.7407 186.58C45.2381 187.53 45.6745 188.808 46.197 189.747C46.6452 190.552 47.5929 191.761 48.3537 192.526C47.3607 191.626 46.0188 190.874 44.877 190.457C44.4223 190.291 43.8616 190.186 43.5071 190.533C43.1766 190.856 43.2021 191.451 43.4516 191.848C43.7007 192.246 44.1147 192.487 44.5231 192.686C45.9139 193.362 47.5369 193.718 48.9699 193.152C49.7333 192.626 50.3403 191.829 50.8883 191.056C51.2422 190.557 51.5804 190.035 51.7942 189.452C52.0081 188.869 52.0911 188.214 51.9266 187.613C51.8467 187.321 51.6863 187.025 51.4179 186.921L51.4174 186.922Z" fill="#D2161D"/>
<g opacity="0.6">
<path d="M51.4174 186.922C51.0405 186.776 50.6398 187.068 50.379 187.393C49.8815 188.012 49.5978 188.801 49.4537 189.602C49.3681 190.078 49.1334 190.894 48.9546 191.649C48.7545 190.21 48.3405 188.644 47.9672 187.354C47.7233 186.511 47.1585 186.056 46.8346 185.943C46.6207 185.867 46.3783 185.921 46.1873 186.048C45.9964 186.176 45.8517 186.37 45.7407 186.58C45.2381 187.53 45.6745 188.808 46.197 189.747C46.6452 190.552 47.5929 191.761 48.3537 192.526C47.3607 191.626 46.0188 190.874 44.877 190.457C44.4223 190.291 43.8616 190.186 43.5071 190.533C43.1766 190.856 43.2021 191.451 43.4516 191.848C43.7007 192.246 44.1147 192.487 44.5231 192.686C45.9139 193.362 47.5369 193.718 48.9699 193.152C49.7333 192.626 50.3403 191.829 50.8883 191.056C51.2422 190.557 51.5804 190.035 51.7942 189.452C52.0081 188.869 52.0911 188.214 51.9266 187.613C51.8467 187.321 51.6863 187.025 51.4179 186.921L51.4174 186.922Z" fill="white"/>
</g>
<path d="M50.1543 190.594C49.9801 190.527 49.7953 190.662 49.6746 190.811C49.4444 191.098 49.314 191.462 49.2473 191.832C49.2076 192.052 49.0996 192.428 49.0166 192.777C48.9245 192.113 48.733 191.389 48.5609 190.794C48.4483 190.404 48.1876 190.194 48.0378 190.141C47.9391 190.107 47.827 190.132 47.7389 190.19C47.6508 190.249 47.5836 190.339 47.5327 190.436C47.3004 190.875 47.5021 191.465 47.7435 191.899C47.9503 192.271 48.3882 192.829 48.7396 193.183C48.2808 192.767 47.661 192.419 47.1339 192.227C46.9236 192.15 46.6649 192.102 46.5014 192.262C46.3487 192.411 46.3609 192.686 46.476 192.869C46.5911 193.053 46.782 193.164 46.971 193.256C47.6131 193.568 48.3628 193.733 49.0248 193.471C49.3772 193.228 49.6578 192.86 49.9109 192.503C50.0744 192.273 50.2302 192.032 50.3295 191.762C50.4283 191.493 50.4665 191.19 50.3906 190.913C50.3534 190.778 50.2796 190.641 50.1553 190.593L50.1543 190.594Z" fill="#263238"/>
<path d="M41.4779 212.34C41.0441 212.391 40.5511 212.528 40.4121 212.925C40.2822 213.296 40.5511 213.733 40.9167 213.935C41.2824 214.138 41.7147 214.159 42.1247 214.151C43.5216 214.123 46.0592 214.219 46.9713 213.241L46.8103 213.157C45.6391 212.864 42.5667 212.213 41.4779 212.34Z" fill="#D2161D"/>
<g opacity="0.3">
<path d="M41.4779 212.34C41.0441 212.391 40.5511 212.528 40.4121 212.925C40.2822 213.296 40.5511 213.733 40.9167 213.935C41.2824 214.138 41.7147 214.159 42.1247 214.151C43.5216 214.123 46.0592 214.219 46.9713 213.241L46.8103 213.157C45.6391 212.864 42.5667 212.213 41.4779 212.34Z" fill="black"/>
</g>
<path d="M44.9796 207.639C44.6995 207.283 44.3191 206.922 43.9315 207.019C43.5705 207.109 43.378 207.59 43.4223 208.026C43.4666 208.463 43.6896 208.858 43.9229 209.217C44.7194 210.44 46.0516 212.744 47.3211 213.01L47.2977 212.82C46.8776 211.619 45.6819 208.535 44.9791 207.639L44.9796 207.639Z" fill="#D2161D"/>
<g opacity="0.3">
<path d="M44.9796 207.639C44.6995 207.283 44.3191 206.922 43.9315 207.019C43.5705 207.109 43.378 207.59 43.4223 208.026C43.4666 208.463 43.6896 208.858 43.9229 209.217C44.7194 210.44 46.0516 212.744 47.3211 213.01L47.2977 212.82C46.8776 211.619 45.6819 208.535 44.9791 207.639L44.9796 207.639Z" fill="black"/>
</g>
<path d="M45.9743 207C45.5914 207.125 45.4365 207.616 45.4121 208.043C45.3653 208.856 45.5853 209.668 45.9234 210.399C46.1246 210.834 46.399 211.636 46.6832 212.353C45.7095 211.333 44.4934 210.35 43.4662 209.56C42.7945 209.044 42.0867 209.044 41.7638 209.161C41.5504 209.238 41.3875 209.436 41.3075 209.661C41.227 209.886 41.2214 210.134 41.252 210.371C41.3885 211.453 42.4594 212.192 43.4072 212.606C44.2205 212.962 45.6606 213.317 46.7 213.439C45.3984 213.358 43.9022 213.619 42.7553 214.02C42.2985 214.18 41.7918 214.457 41.7052 214.961C41.6248 215.431 41.9813 215.889 42.405 216.047C42.8287 216.204 43.2951 216.131 43.7336 216.027C45.2262 215.673 46.7224 214.916 47.5459 213.543C47.8575 212.634 47.8917 211.607 47.8917 210.639C47.8917 210.013 47.8662 209.38 47.7073 208.777C47.5484 208.175 47.2439 207.599 46.7728 207.225C46.5437 207.043 46.2483 206.91 45.9753 206.999L45.9743 207Z" fill="#D2161D"/>
<g opacity="0.6">
<path d="M45.9743 207C45.5914 207.125 45.4365 207.616 45.4121 208.043C45.3653 208.856 45.5853 209.668 45.9234 210.399C46.1246 210.834 46.399 211.636 46.6832 212.353C45.7095 211.333 44.4934 210.35 43.4662 209.56C42.7945 209.044 42.0867 209.044 41.7638 209.161C41.5504 209.238 41.3875 209.436 41.3075 209.661C41.227 209.886 41.2214 210.134 41.252 210.371C41.3885 211.453 42.4594 212.192 43.4072 212.606C44.2205 212.962 45.6606 213.317 46.7 213.439C45.3984 213.358 43.9022 213.619 42.7553 214.02C42.2985 214.18 41.7918 214.457 41.7052 214.961C41.6248 215.431 41.9813 215.889 42.405 216.047C42.8287 216.204 43.2951 216.131 43.7336 216.027C45.2262 215.673 46.7224 214.916 47.5459 213.543C47.8575 212.634 47.8917 211.607 47.8917 210.639C47.8917 210.013 47.8662 209.38 47.7073 208.777C47.5484 208.175 47.2439 207.599 46.7728 207.225C46.5437 207.043 46.2483 206.91 45.9753 206.999L45.9743 207Z" fill="white"/>
</g>
<path d="M47.0438 210.741C46.8666 210.799 46.7953 211.026 46.7841 211.223C46.7627 211.599 46.864 211.974 47.0204 212.312C47.1131 212.513 47.2399 212.883 47.3713 213.214C46.9216 212.743 46.3599 212.289 45.8852 211.924C45.5751 211.686 45.2482 211.685 45.099 211.74C45.0002 211.775 44.9253 211.867 44.8881 211.971C44.8509 212.075 44.8484 212.189 44.8622 212.299C44.9253 212.799 45.4198 213.14 45.8577 213.332C46.2336 213.496 46.8987 213.66 47.3789 213.716C46.7775 213.679 46.0864 213.8 45.5568 213.985C45.3459 214.058 45.1117 214.186 45.072 214.419C45.0348 214.636 45.1993 214.848 45.3953 214.921C45.5914 214.993 45.8063 214.959 46.009 214.911C46.6985 214.748 47.3896 214.398 47.77 213.764C47.9141 213.344 47.9294 212.87 47.9294 212.423C47.9294 212.134 47.9177 211.842 47.8443 211.564C47.771 211.285 47.6305 211.019 47.4125 210.847C47.3066 210.763 47.1701 210.701 47.0443 210.742L47.0438 210.741Z" fill="#263238"/>
<path d="M47.3823 213.823C50.3248 214.942 53.0137 216.43 55.1907 218.732C55.2814 218.828 55.4311 218.795 55.4983 218.692C57.2939 215.949 59.0896 213.206 60.8852 210.463C61.1465 210.063 61.4082 209.664 61.6695 209.264C61.808 209.053 61.4688 208.856 61.3313 209.067C59.5357 211.81 57.74 214.553 55.9444 217.296C55.6832 217.696 55.4214 218.095 55.1602 218.495C55.2625 218.481 55.3654 218.468 55.4678 218.455C53.2449 216.105 50.4908 214.587 47.4867 213.445C47.2509 213.355 47.1491 213.734 47.3828 213.822L47.3823 213.823Z" fill="#263238"/>
<path d="M62.1263 204.048C62.0845 203.687 61.9781 203.278 61.6853 203.167C61.4118 203.063 61.0945 203.292 60.9499 203.598C60.8053 203.905 60.7941 204.265 60.8048 204.607C60.8409 205.77 60.7987 207.886 61.5264 208.634L61.5865 208.499C61.7892 207.52 62.2312 204.954 62.1263 204.048Z" fill="#D2161D"/>
<g opacity="0.3">
<path d="M62.1263 204.048C62.0845 203.687 61.9781 203.278 61.6853 203.167C61.4118 203.063 61.0945 203.292 60.9499 203.598C60.8053 203.905 60.7941 204.265 60.8048 204.607C60.8409 205.77 60.7987 207.886 61.5264 208.634L61.5865 208.499C61.7892 207.52 62.2312 204.954 62.1263 204.048Z" fill="black"/>
</g>
<path d="M65.6149 206.913C65.8736 206.675 66.1338 206.354 66.0584 206.033C65.9881 205.733 65.6337 205.578 65.3134 205.62C64.9936 205.661 64.7058 205.851 64.4451 206.05C63.5564 206.727 61.881 207.862 61.6997 208.923L61.8382 208.901C62.7152 208.538 64.9656 207.507 65.6144 206.912L65.6149 206.913Z" fill="#D2161D"/>
<g opacity="0.3">
<path d="M65.6149 206.913C65.8736 206.675 66.1338 206.354 66.0584 206.033C65.9881 205.733 65.6337 205.578 65.3134 205.62C64.9936 205.661 64.7058 205.851 64.4451 206.05C63.5564 206.727 61.881 207.862 61.6997 208.923L61.8382 208.901C62.7152 208.538 64.9656 207.507 65.6144 206.912L65.6149 206.913Z" fill="black"/>
</g>
<path d="M66.095 207.735C65.9983 207.417 65.6367 207.294 65.3235 207.278C64.7256 207.248 64.1329 207.44 63.5997 207.729C63.2829 207.902 62.6978 208.139 62.1743 208.384C62.9122 207.561 63.62 206.537 64.1879 205.673C64.5596 205.108 64.5515 204.518 64.4618 204.251C64.4028 204.074 64.2551 203.941 64.0896 203.876C63.9241 203.811 63.7418 203.81 63.5676 203.837C62.7752 203.963 62.2451 204.863 61.9517 205.657C61.7002 206.339 61.4547 207.543 61.3773 208.41C61.4221 207.325 61.2133 206.081 60.9067 205.13C60.7845 204.751 60.5757 204.332 60.205 204.265C59.8587 204.203 59.5267 204.506 59.4161 204.86C59.3056 205.215 59.3647 205.603 59.4457 205.967C59.7217 207.206 60.2941 208.444 61.3106 209.115C61.9813 209.365 62.7345 209.381 63.4449 209.371C63.9042 209.364 64.3687 209.336 64.8086 209.197C65.2492 209.058 65.6683 208.797 65.9372 208.401C66.068 208.208 66.1628 207.96 66.094 207.734L66.095 207.735Z" fill="#D2161D"/>
<path d="M63.3616 208.667C63.3168 208.52 63.1498 208.463 63.0051 208.456C62.7291 208.442 62.4551 208.531 62.2092 208.665C62.063 208.744 61.7926 208.854 61.5507 208.967C61.8914 208.588 62.2183 208.114 62.4811 207.715C62.6527 207.454 62.6492 207.182 62.6079 207.058C62.5804 206.977 62.5127 206.915 62.4358 206.885C62.3594 206.856 62.2754 206.855 62.1944 206.867C61.8287 206.925 61.5838 207.341 61.4483 207.708C61.3322 208.023 61.2187 208.579 61.183 208.98C61.2034 208.479 61.1071 207.904 60.9656 207.465C60.909 207.289 60.8128 207.096 60.6417 207.065C60.4818 207.037 60.3285 207.176 60.277 207.34C60.2261 207.504 60.2531 207.684 60.2908 207.852C60.4181 208.424 60.6829 208.996 61.1525 209.306C61.4621 209.421 61.8104 209.429 62.1384 209.424C62.3507 209.421 62.5651 209.407 62.7683 209.343C62.9715 209.279 63.1655 209.159 63.2898 208.976C63.3504 208.886 63.3942 208.772 63.3621 208.667L63.3616 208.667Z" fill="#263238"/>
<path d="M57.8704 229.213C58.3068 226.61 59.4491 224.059 61.0354 221.954C61.3389 221.551 60.6591 221.161 60.3591 221.559C58.7387 223.709 57.5613 226.346 57.1152 229.006C57.0327 229.499 57.7869 229.71 57.8704 229.213Z" fill="#263238"/>
<path d="M61.7303 219.344C61.7538 219.151 61.7497 218.923 61.6117 218.824C61.4828 218.731 61.2893 218.804 61.1763 218.943C61.0632 219.081 61.0118 219.267 60.9746 219.445C60.8478 220.054 60.5611 221.146 60.8448 221.638L60.8926 221.576C61.1203 221.097 61.6713 219.828 61.7303 219.343V219.344Z" fill="#D2161D"/>
<g opacity="0.3">
<path d="M61.7303 219.344C61.7538 219.151 61.7497 218.923 61.6117 218.824C61.4828 218.731 61.2893 218.804 61.1763 218.943C61.0632 219.081 61.0118 219.267 60.9746 219.445C60.8478 220.054 60.5611 221.146 60.8448 221.638L60.8926 221.576C61.1203 221.097 61.6713 219.828 61.7303 219.343V219.344Z" fill="black"/>
</g>
<path d="M63.1824 221.326C63.3464 221.239 63.5216 221.11 63.5226 220.932C63.5236 220.766 63.3591 220.635 63.188 220.612C63.0169 220.588 62.8438 220.646 62.6834 220.712C62.1374 220.937 61.1261 221.288 60.8989 221.812L60.9738 221.821C61.4744 221.757 62.7709 221.542 63.1824 221.326Z" fill="#D2161D"/>
<g opacity="0.3">
<path d="M63.1824 221.326C63.3464 221.239 63.5216 221.11 63.5226 220.932C63.5236 220.766 63.3591 220.635 63.188 220.612C63.0169 220.588 62.8438 220.646 62.6834 220.712C62.1374 220.937 61.1261 221.288 60.8989 221.812L60.9738 221.821C61.4744 221.757 62.7709 221.542 63.1824 221.326Z" fill="black"/>
</g>
<path d="M63.3285 221.821C63.3183 221.642 63.1457 221.527 62.9852 221.474C62.6787 221.373 62.3471 221.389 62.0345 221.464C61.8486 221.508 61.515 221.548 61.213 221.601C61.6989 221.279 62.1944 220.848 62.5972 220.48C62.8605 220.24 62.9307 219.933 62.9175 219.781C62.9089 219.681 62.8493 219.59 62.7714 219.533C62.6934 219.476 62.5992 219.449 62.505 219.439C62.0783 219.392 61.6902 219.783 61.4386 220.154C61.2227 220.472 60.9447 221.062 60.796 221.501C60.9548 220.944 61.0027 220.269 60.9625 219.732C60.9467 219.518 60.8907 219.271 60.7063 219.184C60.5347 219.103 60.3244 219.213 60.2225 219.381C60.1207 219.549 60.1029 219.759 60.0993 219.959C60.0876 220.642 60.2297 221.365 60.6727 221.858C60.9895 222.083 61.3785 222.198 61.7483 222.294C61.9876 222.355 62.2321 222.407 62.478 222.397C62.724 222.387 62.974 222.312 63.1635 222.144C63.2557 222.063 63.3356 221.948 63.3285 221.821Z" fill="#D2161D"/>
<g opacity="0.6">
<path d="M63.3285 221.821C63.3183 221.642 63.1457 221.527 62.9852 221.474C62.6787 221.373 62.3471 221.389 62.0345 221.464C61.8486 221.508 61.515 221.548 61.213 221.601C61.6989 221.279 62.1944 220.848 62.5972 220.48C62.8605 220.24 62.9307 219.933 62.9175 219.781C62.9089 219.681 62.8493 219.59 62.7714 219.533C62.6934 219.476 62.5992 219.449 62.505 219.439C62.0783 219.392 61.6902 219.783 61.4386 220.154C61.2227 220.472 60.9447 221.062 60.796 221.501C60.9548 220.944 61.0027 220.269 60.9625 219.732C60.9467 219.518 60.8907 219.271 60.7063 219.184C60.5347 219.103 60.3244 219.213 60.2225 219.381C60.1207 219.549 60.1029 219.759 60.0993 219.959C60.0876 220.642 60.2297 221.365 60.6727 221.858C60.9895 222.083 61.3785 222.198 61.7483 222.294C61.9876 222.355 62.2321 222.407 62.478 222.397C62.724 222.387 62.974 222.312 63.1635 222.144C63.2557 222.063 63.3356 221.948 63.3285 221.821Z" fill="white"/>
</g>
<path d="M61.7937 221.916C61.7891 221.833 61.7091 221.78 61.6353 221.755C61.4937 221.709 61.3404 221.716 61.1963 221.75C61.1102 221.771 60.9564 221.789 60.8169 221.813C61.041 221.665 61.2701 221.466 61.4565 221.296C61.5782 221.185 61.6103 221.043 61.6047 220.973C61.6006 220.927 61.5731 220.885 61.537 220.859C61.5008 220.833 61.4575 220.82 61.4143 220.815C61.2172 220.793 61.0379 220.974 60.9218 221.145C60.822 221.292 60.6937 221.564 60.6249 221.767C60.6982 221.51 60.7201 221.198 60.7018 220.95C60.6947 220.851 60.6687 220.737 60.5837 220.697C60.5042 220.659 60.4075 220.71 60.3601 220.788C60.3132 220.866 60.3046 220.962 60.3031 221.055C60.2975 221.37 60.3632 221.704 60.5679 221.932C60.714 222.035 60.8938 222.089 61.0644 222.133C61.1749 222.162 61.288 222.186 61.4015 222.181C61.5151 222.176 61.6307 222.142 61.7183 222.064C61.7605 222.027 61.7977 221.974 61.7942 221.915L61.7937 221.916Z" fill="#263238"/>
<path d="M70.5321 194.516C67.2138 204.025 66.9719 214.197 64.7358 223.953C64.1079 226.691 63.3129 229.388 62.271 231.998C62.1778 232.232 62.5562 232.334 62.6489 232.102C66.3878 222.736 66.731 212.55 68.7202 202.765C69.2809 200.007 69.9816 197.278 70.9095 194.62C70.9925 194.381 70.6146 194.279 70.5321 194.516Z" fill="#263238"/>
<path d="M67.2446 211.537C69.6106 208.291 72.3876 205.379 75.4635 202.798C75.657 202.636 75.3784 202.36 75.1865 202.521C72.0841 205.124 69.2928 208.065 66.9065 211.339C66.7578 211.542 67.0975 211.738 67.2446 211.536V211.537Z" fill="#263238"/>
<path d="M67.5506 208.096C67.4029 206.223 67.2511 204.327 66.6568 202.575C66.5387 202.226 66.3956 201.873 66.1349 201.627C65.8741 201.38 65.4657 201.267 65.1413 201.449C64.8154 201.632 64.6682 202.057 64.6988 202.432C64.7293 202.806 64.902 203.142 65.0705 203.467C65.8986 205.059 66.7266 206.651 67.5552 208.244L67.5506 208.096V208.096Z" fill="#263238"/>
<path d="M72.0176 210.228C71.849 210.08 71.3163 209.995 71.0948 210.055C69.9958 210.352 69.2202 210.934 68.4064 211.78C67.5927 212.626 67.0075 213.854 66.4871 214.916L66.3506 215.577C67.3192 214.319 68.549 213.275 69.923 212.543C70.6436 212.16 71.4391 211.832 71.9335 211.161C72.1398 210.882 72.2646 210.444 72.0176 210.228Z" fill="#263238"/>
<path d="M70.6382 219.021C70.4696 218.873 69.9364 218.788 69.7154 218.848C68.6164 219.144 67.8408 219.726 67.0271 220.573C66.2133 221.419 65.6281 222.647 65.1077 223.708L64.9712 224.37C65.9398 223.111 67.1696 222.067 68.5436 221.336C69.2642 220.953 70.0597 220.625 70.5542 219.954C70.7604 219.675 70.8852 219.237 70.6382 219.021Z" fill="#263238"/>
<path d="M61.4671 221.008C61.6647 220.939 62.1454 221.04 62.3084 221.162C63.1196 221.768 63.5505 222.51 63.9136 223.485C64.2762 224.461 64.3021 225.683 64.3363 226.744L64.1998 227.344C63.8632 225.971 63.2261 224.694 62.3486 223.634C61.8883 223.078 61.3444 222.544 61.1835 221.82C61.1162 221.518 61.1779 221.109 61.4671 221.008Z" fill="#263238"/>
<path d="M75.3439 206.76C75.2793 206.58 74.9304 206.297 74.7496 206.252C73.8513 206.026 73.0767 206.147 72.1749 206.452C71.273 206.757 70.3899 207.444 69.6169 208.031L69.269 208.474C70.4378 207.921 71.7119 207.638 72.9703 207.649C73.6308 207.654 74.3234 207.733 74.9304 207.429C75.1835 207.303 75.4382 207.024 75.3434 206.759L75.3439 206.76Z" fill="#263238"/>
<path d="M72.3952 199.265C72.2388 199.164 71.7866 199.158 71.6094 199.233C70.7289 199.608 70.1488 200.178 69.5662 200.969C68.9837 201.759 68.6333 202.836 68.3181 203.767L68.2778 204.326C68.9439 203.179 69.8499 202.176 70.9102 201.412C71.4663 201.012 72.0911 200.648 72.4278 200.039C72.5678 199.786 72.6233 199.412 72.3941 199.265H72.3952Z" fill="#263238"/>
<path d="M66.2237 192.719C66.0674 192.618 65.6152 192.612 65.438 192.688C64.5575 193.062 63.9774 193.632 63.3948 194.423C62.8123 195.214 62.4619 196.29 62.1472 197.222L62.1069 197.78C62.773 196.633 63.679 195.63 64.7393 194.867C65.2954 194.466 65.9202 194.102 66.2569 193.494C66.3974 193.24 66.4529 192.866 66.2237 192.719Z" fill="#263238"/>
<path d="M77.5118 198.954C77.63 198.61 77.7109 198.196 77.495 197.969C77.2933 197.757 76.9084 197.825 76.6451 198.04C76.3818 198.254 76.2163 198.574 76.0783 198.887C75.6077 199.951 74.6554 201.84 74.988 202.83L75.1005 202.735C75.706 201.939 77.2149 199.817 77.5118 198.954Z" fill="#D2161D"/>
<g opacity="0.3">
<path d="M77.5118 198.954C77.63 198.61 77.7109 198.196 77.495 197.969C77.2933 197.757 76.9084 197.825 76.6451 198.04C76.3818 198.254 76.2163 198.574 76.0783 198.887C75.6077 199.951 74.6554 201.84 74.988 202.83L75.1005 202.735C75.706 201.939 77.2149 199.817 77.5118 198.954Z" fill="black"/>
</g>
<path d="M79.4199 203.045C79.7555 202.943 80.1293 202.766 80.2006 202.444C80.2668 202.143 80.0142 201.85 79.7077 201.75C79.4011 201.649 79.0599 201.696 78.7386 201.763C77.6447 201.989 75.6428 202.289 75.021 203.167L75.1554 203.207C76.1032 203.258 78.5771 203.302 79.4199 203.045Z" fill="#D2161D"/>
<g opacity="0.3">
<path d="M79.4199 203.045C79.7555 202.943 80.1293 202.766 80.2006 202.444C80.2668 202.143 80.0142 201.85 79.7077 201.75C79.4011 201.649 79.0599 201.696 78.7386 201.763C77.6447 201.989 75.6428 202.289 75.021 203.167L75.1554 203.207C76.1032 203.258 78.5771 203.302 79.4199 203.045Z" fill="black"/>
</g>
<path d="M79.4979 203.994C79.5483 203.666 79.2753 203.398 78.9998 203.249C78.4738 202.963 77.856 202.88 77.25 202.911C76.89 202.929 76.2595 202.891 75.6815 202.885C76.7021 202.462 77.7832 201.845 78.6693 201.311C79.2489 200.962 79.4964 200.427 79.5315 200.147C79.5544 199.962 79.4795 199.777 79.3578 199.648C79.2361 199.519 79.0727 199.438 78.9036 199.388C78.1351 199.159 77.2674 199.741 76.6598 200.331C76.1383 200.837 75.3969 201.816 74.9518 202.565C75.461 201.605 75.8109 200.394 75.9453 199.404C75.9988 199.009 75.9917 198.542 75.6861 198.321C75.4009 198.115 74.9706 198.245 74.7175 198.517C74.4644 198.788 74.3498 199.164 74.2658 199.527C73.9791 200.764 73.9603 202.128 74.5866 203.172C75.0837 203.687 75.7554 204.028 76.4006 204.326C76.8177 204.518 77.2485 204.693 77.7058 204.758C78.1631 204.823 78.6535 204.77 79.0676 204.528C79.2687 204.411 79.4612 204.228 79.4974 203.995L79.4979 203.994Z" fill="#D2161D"/>
<path d="M76.6294 203.653C76.6528 203.501 76.5265 203.378 76.3992 203.309C76.1563 203.177 75.8711 203.139 75.591 203.153C75.4245 203.161 75.1332 203.143 74.8663 203.141C75.3379 202.946 75.837 202.66 76.2464 202.413C76.5138 202.252 76.6284 202.005 76.6447 201.876C76.6554 201.79 76.6207 201.705 76.5647 201.645C76.5087 201.585 76.4333 201.549 76.3549 201.525C75.9999 201.419 75.5992 201.689 75.3186 201.961C75.0777 202.194 74.735 202.647 74.5297 202.992C74.765 202.549 74.9264 201.99 74.9886 201.532C75.0135 201.35 75.01 201.134 74.8689 201.032C74.737 200.938 74.5384 200.997 74.4218 201.122C74.3046 201.248 74.2522 201.421 74.213 201.589C74.0806 202.161 74.0719 202.791 74.3612 203.273C74.5908 203.511 74.901 203.668 75.1989 203.806C75.3914 203.894 75.5905 203.975 75.8018 204.005C76.0132 204.035 76.2398 204.011 76.4308 203.899C76.524 203.845 76.6126 203.761 76.6294 203.653Z" fill="#263238"/>
<path d="M69.3492 187.948C69.1144 187.571 68.7788 187.181 68.378 187.241C68.0037 187.297 67.7491 187.753 67.7374 188.187C67.7257 188.622 67.8983 189.031 68.0867 189.406C68.7279 190.683 69.7678 193.074 71.0073 193.452L71.0083 193.264C70.7415 192.042 69.9394 188.894 69.3497 187.949L69.3492 187.948Z" fill="#D2161D"/>
<g opacity="0.3">
<path d="M69.3492 187.948C69.1144 187.571 68.7788 187.181 68.378 187.241C68.0037 187.297 67.7491 187.753 67.7374 188.187C67.7257 188.622 67.8983 189.031 68.0867 189.406C68.7279 190.683 69.7678 193.074 71.0073 193.452L71.0083 193.264C70.7415 192.042 69.9394 188.894 69.3497 187.949L69.3492 187.948Z" fill="black"/>
</g>
<path d="M74.9154 188.95C75.0967 188.521 75.2367 187.998 74.9826 187.687C74.7458 187.396 74.2498 187.446 73.8964 187.695C73.5424 187.943 73.3031 188.337 73.0999 188.724C72.4063 190.041 71.0257 192.366 71.3593 193.665L71.5105 193.554C72.3518 192.595 74.4606 190.025 74.9154 188.95Z" fill="#D2161D"/>
<g opacity="0.3">
<path d="M74.9154 188.95C75.0967 188.521 75.2367 187.998 74.9826 187.687C74.7458 187.396 74.2498 187.446 73.8964 187.695C73.5424 187.943 73.3031 188.337 73.0999 188.724C72.4063 190.041 71.0257 192.366 71.3593 193.665L71.5105 193.554C72.3518 192.595 74.4606 190.025 74.9154 188.95Z" fill="black"/>
</g>
<path d="M75.9022 189.565C75.6251 189.271 75.1373 189.361 74.762 189.541C74.0454 189.885 73.4491 190.473 72.9729 191.133C72.6898 191.526 72.126 192.16 71.6382 192.764C72.0802 191.38 72.3827 189.789 72.6042 188.465C72.7489 187.599 72.4362 186.945 72.1933 186.702C72.0329 186.542 71.7915 186.486 71.5638 186.518C71.3362 186.551 71.1218 186.664 70.9313 186.805C70.0671 187.445 69.9088 188.785 69.9734 189.858C70.0294 190.778 70.3615 192.278 70.7169 193.296C70.2102 192.056 69.3257 190.797 68.4762 189.927C68.1376 189.581 67.6772 189.245 67.2082 189.404C66.7702 189.553 66.5365 190.101 66.5894 190.567C66.6424 191.033 66.9113 191.429 67.1939 191.785C68.1559 192.996 69.4652 194.018 71.0026 194.127C71.9178 193.983 72.81 193.527 73.638 193.066C74.1733 192.769 74.7034 192.445 75.148 192.012C75.5931 191.578 75.9506 191.024 76.0621 190.411C76.1161 190.113 76.0998 189.776 75.9022 189.566V189.565Z" fill="#D2161D"/>
<g opacity="0.6">
<path d="M75.9022 189.565C75.6251 189.271 75.1373 189.361 74.762 189.541C74.0454 189.885 73.4491 190.473 72.9729 191.133C72.6898 191.526 72.126 192.16 71.6382 192.764C72.0802 191.38 72.3827 189.789 72.6042 188.465C72.7489 187.599 72.4362 186.945 72.1933 186.702C72.0329 186.542 71.7915 186.486 71.5638 186.518C71.3362 186.551 71.1218 186.664 70.9313 186.805C70.0671 187.445 69.9088 188.785 69.9734 189.858C70.0294 190.778 70.3615 192.278 70.7169 193.296C70.2102 192.056 69.3257 190.797 68.4762 189.927C68.1376 189.581 67.6772 189.245 67.2082 189.404C66.7702 189.553 66.5365 190.101 66.5894 190.567C66.6424 191.033 66.9113 191.429 67.1939 191.785C68.1559 192.996 69.4652 194.018 71.0026 194.127C71.9178 193.983 72.81 193.527 73.638 193.066C74.1733 192.769 74.7034 192.445 75.148 192.012C75.5931 191.578 75.9506 191.024 76.0621 190.411C76.1161 190.113 76.0998 189.776 75.9022 189.566V189.565Z" fill="white"/>
</g>
<path d="M73.1762 192.331C73.0484 192.195 72.8228 192.236 72.6496 192.319C72.3186 192.478 72.0431 192.75 71.8231 193.055C71.6922 193.236 71.432 193.529 71.2064 193.808C71.4106 193.168 71.5506 192.434 71.6525 191.822C71.7192 191.423 71.5746 191.12 71.4625 191.008C71.3882 190.934 71.2772 190.908 71.1718 190.923C71.0668 190.938 70.9675 190.99 70.88 191.055C70.4807 191.351 70.4074 191.971 70.4374 192.466C70.4634 192.891 70.6167 193.583 70.7806 194.053C70.5469 193.481 70.138 192.899 69.7458 192.498C69.5895 192.338 69.3766 192.182 69.1602 192.256C68.958 192.325 68.8501 192.577 68.8745 192.793C68.899 193.008 69.0232 193.191 69.1536 193.355C69.5976 193.914 70.2026 194.387 70.9125 194.437C71.3352 194.371 71.7472 194.16 72.1297 193.947C72.3767 193.81 72.6216 193.66 72.8273 193.46C73.0331 193.26 73.1981 193.003 73.2495 192.72C73.2745 192.583 73.2668 192.427 73.1757 192.33L73.1762 192.331Z" fill="#263238"/>
<path d="M61.7973 185.018C60.7335 195.033 62.8164 204.993 62.8617 215.002C62.8744 217.811 62.715 220.618 62.2954 223.397C62.2577 223.646 62.6493 223.658 62.6865 223.412C64.1924 213.44 62.2058 203.444 61.9129 193.463C61.8304 190.65 61.891 187.833 62.1885 185.033C62.2149 184.782 61.8238 184.769 61.7973 185.018Z" fill="#263238"/>
<path d="M59.1479 178.893C58.8332 178.58 58.4177 178.276 58.0413 178.426C57.6899 178.566 57.5458 179.068 57.6334 179.493C57.721 179.919 57.9822 180.278 58.2511 180.6C59.1668 181.698 60.7241 183.788 62.0171 183.874L61.9748 183.69C61.4365 182.561 59.9383 179.679 59.1484 178.893H59.1479Z" fill="#D2161D"/>
<g opacity="0.3">
<path d="M59.1479 178.893C58.8332 178.58 58.4177 178.276 58.0413 178.426C57.6899 178.566 57.5458 179.068 57.6334 179.493C57.721 179.919 57.9822 180.278 58.2511 180.6C59.1668 181.698 60.7241 183.788 62.0171 183.874L61.9748 183.69C61.4365 182.561 59.9383 179.679 59.1484 178.893H59.1479Z" fill="black"/>
</g>
<path d="M64.7966 178.6C64.8756 178.141 64.8924 177.6 64.5741 177.354C64.2772 177.125 63.8061 177.287 63.5184 177.61C63.2307 177.932 63.0871 178.37 62.9771 178.793C62.6018 180.233 61.7875 182.812 62.4082 184.002L62.5305 183.859C63.1314 182.733 64.5985 179.75 64.7966 178.6Z" fill="#D2161D"/>
<g opacity="0.3">
<path d="M64.7966 178.6C64.8756 178.141 64.8924 177.6 64.5741 177.354C64.2772 177.125 63.8061 177.287 63.5184 177.61C63.2307 177.932 63.0871 178.37 62.9771 178.793C62.6018 180.233 61.7875 182.812 62.4082 184.002L62.5305 183.859C63.1314 182.733 64.5985 179.75 64.7966 178.6Z" fill="black"/>
</g>
<path d="M65.8973 178.974C65.5607 178.751 65.1064 178.95 64.7815 179.211C64.1623 179.708 63.7157 180.417 63.4025 181.168C63.2166 181.615 62.8117 182.361 62.4741 183.06C62.5887 181.611 62.5215 179.994 62.4349 178.654C62.3784 177.778 61.9246 177.212 61.6328 177.031C61.4398 176.911 61.1923 176.912 60.9779 176.995C60.764 177.079 60.5807 177.237 60.4274 177.418C59.7313 178.239 59.883 179.58 60.1906 180.609C60.4549 181.493 61.12 182.877 61.698 183.787C60.9219 182.694 59.7735 181.671 58.7484 181.018C58.34 180.758 57.8149 180.535 57.3943 180.798C57.0022 181.042 56.8988 181.628 57.0566 182.07C57.2145 182.512 57.5669 182.837 57.9224 183.118C59.1349 184.078 60.6428 184.775 62.1645 184.531C63.0231 184.182 63.788 183.535 64.4887 182.898C64.9419 182.487 65.3845 182.05 65.7186 181.527C66.0526 181.003 66.2752 180.382 66.2436 179.76C66.2283 179.457 66.1356 179.133 65.8958 178.974L65.8973 178.974Z" fill="#D2161D"/>
<g opacity="0.6">
<path d="M65.8973 178.974C65.5607 178.751 65.1064 178.95 64.7815 179.211C64.1623 179.708 63.7157 180.417 63.4025 181.168C63.2166 181.615 62.8117 182.361 62.4741 183.06C62.5887 181.611 62.5215 179.994 62.4349 178.654C62.3784 177.778 61.9246 177.212 61.6328 177.031C61.4398 176.911 61.1923 176.912 60.9779 176.995C60.764 177.079 60.5807 177.237 60.4274 177.418C59.7313 178.239 59.883 179.58 60.1906 180.609C60.4549 181.493 61.12 182.877 61.698 183.787C60.9219 182.694 59.7735 181.671 58.7484 181.018C58.34 180.758 57.8149 180.535 57.3943 180.798C57.0022 181.042 56.8988 181.628 57.0566 182.07C57.2145 182.512 57.5669 182.837 57.9224 183.118C59.1349 184.078 60.6428 184.775 62.1645 184.531C63.0231 184.182 63.788 183.535 64.4887 182.898C64.9419 182.487 65.3845 182.05 65.7186 181.527C66.0526 181.003 66.2752 180.382 66.2436 179.76C66.2283 179.457 66.1356 179.133 65.8958 178.974L65.8973 178.974Z" fill="white"/>
</g>
<path d="M63.8737 182.288C63.7179 182.185 63.5081 182.277 63.3584 182.397C63.0722 182.627 62.8659 182.954 62.7213 183.302C62.6352 183.508 62.4483 183.853 62.2925 184.175C62.3454 183.506 62.3144 182.759 62.2747 182.14C62.2487 181.736 62.0389 181.474 61.9044 181.391C61.8153 181.335 61.7007 181.336 61.6019 181.375C61.5031 181.413 61.4186 181.487 61.3478 181.57C61.0265 181.948 61.0962 182.568 61.2383 183.043C61.36 183.451 61.6676 184.091 61.9345 184.512C61.576 184.007 61.0458 183.534 60.5722 183.232C60.3838 183.112 60.1409 183.009 59.9469 183.13C59.7656 183.243 59.7182 183.514 59.791 183.718C59.8638 183.922 60.0268 184.072 60.1908 184.202C60.751 184.645 61.4476 184.968 62.1504 184.855C62.5466 184.694 62.9 184.394 63.2239 184.101C63.4332 183.911 63.6374 183.709 63.7922 183.467C63.9465 183.225 64.0494 182.938 64.0346 182.651C64.0275 182.511 63.9847 182.361 63.8737 182.288V182.288Z" fill="#263238"/>
<path d="M55.9517 208.19C55.5387 208.048 55.035 207.959 54.7376 208.257C54.4606 208.535 54.5141 209.045 54.756 209.386C54.9979 209.727 55.3783 209.933 55.7516 210.103C57.0232 210.682 59.2705 211.865 60.5156 211.377L60.4072 211.232C59.4778 210.461 56.9885 208.546 55.9517 208.19Z" fill="#D2161D"/>
<g opacity="0.3">
<path d="M55.9517 208.19C55.5387 208.048 55.035 207.959 54.7376 208.257C54.4606 208.535 54.5141 209.045 54.756 209.386C54.9979 209.727 55.3783 209.933 55.7516 210.103C57.0232 210.682 59.2705 211.865 60.5156 211.377L60.4072 211.232C59.4778 210.461 56.9885 208.546 55.9517 208.19Z" fill="black"/>
</g>
<path d="M61.1407 205.464C61.0424 205.022 60.855 204.532 60.4639 204.452C60.0992 204.377 59.7178 204.727 59.5696 205.14C59.4209 205.553 59.4509 206.006 59.5065 206.431C59.6959 207.878 59.9016 210.531 60.9314 211.32L60.992 211.139C61.1325 209.874 61.3876 206.576 61.1407 205.465V205.464Z" fill="#D2161D"/>
<g opacity="0.3">
<path d="M61.1407 205.464C61.0424 205.022 60.855 204.532 60.4639 204.452C60.0992 204.377 59.7178 204.727 59.5696 205.14C59.4209 205.553 59.4509 206.006 59.5065 206.431C59.6959 207.878 59.9016 210.531 60.9314 211.32L60.992 211.139C61.1325 209.874 61.3876 206.576 61.1407 205.465V205.464Z" fill="black"/>
</g>
<path d="M62.3146 205.318C61.9148 205.266 61.5634 205.641 61.3567 206.015C60.9625 206.728 60.8102 207.555 60.799 208.361C60.7924 208.84 60.6931 209.681 60.6396 210.451C60.2027 209.111 59.531 207.698 58.9459 206.542C58.5634 205.787 57.9253 205.481 57.5836 205.446C57.3575 205.424 57.1253 205.533 56.9557 205.7C56.7861 205.868 56.6741 206.089 56.5982 206.317C56.2539 207.351 56.9002 208.481 57.576 209.263C58.156 209.935 59.3008 210.879 60.1854 211.438C59.0467 210.803 57.5841 210.392 56.3767 210.257C55.8954 210.203 55.3195 210.234 55.0236 210.651C54.7476 211.04 54.8713 211.607 55.1855 211.932C55.4997 212.257 55.952 212.393 56.392 212.488C57.8907 212.815 59.5677 212.778 60.9034 211.897C61.5777 211.212 62.0518 210.301 62.4704 209.428C62.7408 208.863 62.9919 208.281 63.109 207.669C63.2262 207.057 63.2007 206.406 62.9374 205.866C62.8096 205.603 62.6008 205.354 62.3156 205.318H62.3146Z" fill="#D2161D"/>
<g opacity="0.6">
<path d="M62.3146 205.318C61.9148 205.266 61.5634 205.641 61.3567 206.015C60.9625 206.728 60.8102 207.555 60.799 208.361C60.7924 208.84 60.6931 209.681 60.6396 210.451C60.2027 209.111 59.531 207.698 58.9459 206.542C58.5634 205.787 57.9253 205.481 57.5836 205.446C57.3575 205.424 57.1253 205.533 56.9557 205.7C56.7861 205.868 56.6741 206.089 56.5982 206.317C56.2539 207.351 56.9002 208.481 57.576 209.263C58.156 209.935 59.3008 210.879 60.1854 211.438C59.0467 210.803 57.5841 210.392 56.3767 210.257C55.8954 210.203 55.3195 210.234 55.0236 210.651C54.7476 211.04 54.8713 211.607 55.1855 211.932C55.4997 212.257 55.952 212.393 56.392 212.488C57.8907 212.815 59.5677 212.778 60.9034 211.897C61.5777 211.212 62.0518 210.301 62.4704 209.428C62.7408 208.863 62.9919 208.281 63.109 207.669C63.2262 207.057 63.2007 206.406 62.9374 205.866C62.8096 205.603 62.6008 205.354 62.3156 205.318H62.3146Z" fill="white"/>
</g>
<path d="M61.6616 209.154C61.4768 209.13 61.3143 209.303 61.2191 209.476C61.0373 209.805 60.9665 210.187 60.9614 210.559C60.9583 210.781 60.9125 211.169 60.8875 211.525C60.6859 210.906 60.3752 210.253 60.1053 209.719C59.9286 209.37 59.6338 209.229 59.4759 209.213C59.3715 209.203 59.264 209.253 59.1861 209.33C59.1077 209.407 59.0558 209.51 59.0211 209.615C58.8622 210.092 59.1607 210.614 59.4728 210.976C59.7407 211.286 60.2693 211.722 60.6782 211.98C60.1522 211.687 59.4769 211.497 58.9193 211.435C58.6972 211.41 58.4309 211.424 58.2944 211.617C58.1666 211.797 58.2241 212.059 58.3693 212.209C58.5144 212.359 58.7232 212.422 58.9264 212.466C59.6185 212.617 60.3931 212.6 61.0103 212.193C61.3214 211.876 61.5409 211.455 61.7339 211.052C61.8592 210.792 61.9748 210.523 62.0288 210.24C62.0828 209.957 62.0711 209.656 61.9493 209.407C61.8903 209.286 61.7935 209.171 61.6616 209.154Z" fill="#263238"/>
<path d="M60.6254 212.07C62.7943 214.35 64.5823 216.852 65.5504 219.868C65.5881 219.986 65.7261 220.053 65.8382 219.985C68.6431 218.288 71.4481 216.59 74.2531 214.893C74.6615 214.646 75.0699 214.398 75.4784 214.151C75.6938 214.021 75.4972 213.682 75.2808 213.813C72.4758 215.51 69.6708 217.208 66.8658 218.906C66.4574 219.153 66.049 219.4 65.6406 219.647C65.7363 219.686 65.8326 219.725 65.9283 219.764C64.9393 216.684 63.1182 214.122 60.903 211.793C60.7288 211.611 60.4523 211.888 60.6259 212.07L60.6254 212.07Z" fill="#263238"/>
<path d="M78.1558 209.638C78.274 209.294 78.355 208.879 78.139 208.652C77.9374 208.44 77.5524 208.509 77.2896 208.724C77.0263 208.938 76.8608 209.258 76.7228 209.57C76.2522 210.635 75.2999 212.524 75.6325 213.514L75.745 213.418C76.3505 212.623 77.8595 210.5 78.1563 209.638H78.1558Z" fill="#D2161D"/>
<g opacity="0.3">
<path d="M78.1558 209.638C78.274 209.294 78.355 208.879 78.139 208.652C77.9374 208.44 77.5524 208.509 77.2896 208.724C77.0263 208.938 76.8608 209.258 76.7228 209.57C76.2522 210.635 75.2999 212.524 75.6325 213.514L75.745 213.418C76.3505 212.623 77.8595 210.5 78.1563 209.638H78.1558Z" fill="black"/>
</g>
<path d="M80.064 213.728C80.3996 213.626 80.7734 213.449 80.8442 213.127C80.9104 212.826 80.6578 212.533 80.3512 212.433C80.0447 212.333 79.7035 212.379 79.3821 212.446C78.2882 212.672 76.2864 212.972 75.6646 213.85L75.799 213.89C76.7467 213.941 79.2212 213.985 80.064 213.728Z" fill="#D2161D"/>
<g opacity="0.3">
<path d="M80.064 213.728C80.3996 213.626 80.7734 213.449 80.8442 213.127C80.9104 212.826 80.6578 212.533 80.3512 212.433C80.0447 212.333 79.7035 212.379 79.3821 212.446C78.2882 212.672 76.2864 212.972 75.6646 213.85L75.799 213.89C76.7467 213.941 79.2212 213.985 80.064 213.728Z" fill="black"/>
</g>
<path d="M80.141 214.677C80.1914 214.349 79.9184 214.081 79.6429 213.932C79.1168 213.646 78.4991 213.563 77.8931 213.594C77.5331 213.612 76.9026 213.574 76.3246 213.568C77.3451 213.145 78.4263 212.528 79.3124 211.994C79.8919 211.645 80.1394 211.11 80.1746 210.83C80.198 210.645 80.1226 210.461 80.0009 210.331C79.8792 210.201 79.7157 210.121 79.5466 210.07C78.7782 209.841 77.9104 210.424 77.3029 211.014C76.7814 211.519 76.0399 212.499 75.5948 213.247C76.1041 212.288 76.4539 211.076 76.5884 210.086C76.6419 209.692 76.6347 209.224 76.3292 209.004C76.044 208.798 75.6137 208.927 75.3606 209.199C75.1075 209.471 74.9929 209.846 74.9089 210.21C74.6222 211.446 74.6033 212.81 75.2297 213.855C75.7267 214.37 76.3984 214.711 77.0437 215.008C77.4607 215.2 77.8916 215.375 78.3489 215.44C78.8062 215.505 79.2966 215.452 79.7106 215.21C79.9118 215.093 80.1043 214.91 80.1404 214.677L80.141 214.677Z" fill="#D2161D"/>
<path d="M77.2734 214.336C77.2969 214.185 77.1706 214.062 77.0432 213.992C76.8003 213.86 76.5152 213.822 76.2351 213.836C76.0685 213.845 75.7772 213.827 75.5104 213.825C75.982 213.63 76.481 213.344 76.8905 213.097C77.1578 212.936 77.2724 212.689 77.2887 212.56C77.2994 212.474 77.2648 212.389 77.2088 212.33C77.1527 212.27 77.0774 212.232 76.9989 212.209C76.644 212.103 76.2432 212.373 75.9626 212.645C75.7217 212.879 75.379 213.331 75.1738 213.677C75.4091 213.233 75.5705 212.674 75.6326 212.216C75.6576 212.034 75.654 211.818 75.5129 211.716C75.381 211.622 75.1824 211.681 75.0658 211.807C74.9487 211.932 74.8962 212.105 74.857 212.273C74.7246 212.844 74.716 213.474 75.0052 213.957C75.2349 214.194 75.545 214.352 75.8429 214.489C76.0354 214.578 76.2346 214.659 76.4459 214.689C76.6572 214.719 76.8839 214.695 77.0748 214.583C77.168 214.529 77.2566 214.444 77.2734 214.336Z" fill="#263238"/>
<path d="M63.4828 230.432C64.977 228.305 67.1072 226.518 69.4106 225.326C69.8582 225.095 69.4625 224.419 69.0154 224.65C66.5898 225.905 64.3781 227.8 62.8065 230.036C62.5163 230.449 63.1951 230.841 63.4828 230.431V230.432Z" fill="#263238"/>
<path d="M71.1874 223.259C71.2923 223.095 71.3865 222.888 71.3051 222.739C71.2292 222.6 71.0229 222.582 70.8605 222.659C70.698 222.735 70.5722 222.88 70.4612 223.025C70.0839 223.519 69.3531 224.38 69.3964 224.946L69.4661 224.911C69.8786 224.578 70.9241 223.672 71.1864 223.26L71.1874 223.259Z" fill="#D2161D"/>
<g opacity="0.3">
<path d="M71.1874 223.259C71.2923 223.095 71.3865 222.888 71.3051 222.739C71.2292 222.6 71.0229 222.582 70.8605 222.659C70.698 222.735 70.5722 222.88 70.4612 223.025C70.0839 223.519 69.3531 224.38 69.3964 224.946L69.4661 224.911C69.8786 224.578 70.9241 223.672 71.1864 223.26L71.1874 223.259Z" fill="black"/>
</g>
<path d="M71.6394 225.674C71.8247 225.667 72.0386 225.626 72.1165 225.466C72.1894 225.318 72.0972 225.128 71.9531 225.033C71.8089 224.937 71.6281 224.915 71.455 224.905C70.8658 224.872 69.802 224.751 69.3701 225.126L69.4338 225.166C69.913 225.325 71.1749 225.691 71.6394 225.674V225.674Z" fill="#D2161D"/>
<g opacity="0.3">
<path d="M71.6394 225.674C71.8247 225.667 72.0386 225.626 72.1165 225.466C72.1894 225.318 72.0972 225.128 71.9531 225.033C71.8089 224.937 71.6281 224.915 71.455 224.905C70.8658 224.872 69.802 224.751 69.3701 225.126L69.4338 225.166C69.913 225.325 71.1749 225.691 71.6394 225.674V225.674Z" fill="black"/>
</g>
<path d="M71.5567 226.183C71.6244 226.018 71.519 225.839 71.3973 225.722C71.1645 225.499 70.8585 225.37 70.5443 225.302C70.3574 225.262 70.0396 225.154 69.7442 225.07C70.3212 224.99 70.9542 224.815 71.4767 224.658C71.8184 224.555 72.014 224.308 72.068 224.166C72.1036 224.072 72.0888 223.965 72.043 223.88C71.9972 223.795 71.9238 223.73 71.8439 223.68C71.4798 223.453 70.9603 223.638 70.5733 223.864C70.2413 224.057 69.7356 224.469 69.4117 224.8C69.7957 224.367 70.1302 223.779 70.3263 223.277C70.4042 223.077 70.4608 222.83 70.3324 222.672C70.2127 222.524 69.9759 222.532 69.8109 222.64C69.6465 222.748 69.5395 222.93 69.4499 223.108C69.1443 223.719 68.9595 224.433 69.1464 225.069C69.3348 225.408 69.6352 225.681 69.9276 225.927C70.1165 226.086 70.3146 226.238 70.5407 226.335C70.7668 226.433 71.0245 226.473 71.2679 226.404C71.3861 226.37 71.5083 226.301 71.5567 226.183Z" fill="#D2161D"/>
<g opacity="0.6">
<path d="M71.5567 226.183C71.6244 226.018 71.519 225.839 71.3973 225.722C71.1645 225.499 70.8585 225.37 70.5443 225.302C70.3574 225.262 70.0396 225.154 69.7442 225.07C70.3212 224.99 70.9542 224.815 71.4767 224.658C71.8184 224.555 72.014 224.308 72.068 224.166C72.1036 224.072 72.0888 223.965 72.043 223.88C71.9972 223.795 71.9238 223.73 71.8439 223.68C71.4798 223.453 70.9603 223.638 70.5733 223.864C70.2413 224.057 69.7356 224.469 69.4117 224.8C69.7957 224.367 70.1302 223.779 70.3263 223.277C70.4042 223.077 70.4608 222.83 70.3324 222.672C70.2127 222.524 69.9759 222.532 69.8109 222.64C69.6465 222.748 69.5395 222.93 69.4499 223.108C69.1443 223.719 68.9595 224.433 69.1464 225.069C69.3348 225.408 69.6352 225.681 69.9276 225.927C70.1165 226.086 70.3146 226.238 70.5407 226.335C70.7668 226.433 71.0245 226.473 71.2679 226.404C71.3861 226.37 71.5083 226.301 71.5567 226.183Z" fill="white"/>
</g>
<path d="M70.1324 225.606C70.164 225.529 70.1151 225.447 70.0586 225.393C69.9511 225.29 69.8096 225.23 69.6644 225.199C69.5778 225.18 69.4312 225.13 69.2947 225.092C69.5616 225.055 69.8539 224.974 70.0947 224.902C70.2526 224.854 70.3427 224.74 70.3677 224.674C70.384 224.631 70.3774 224.582 70.356 224.542C70.3351 224.503 70.301 224.473 70.2638 224.45C70.0958 224.345 69.8559 224.43 69.6772 224.535C69.5239 224.624 69.2901 224.814 69.1409 224.967C69.3181 224.767 69.4729 224.496 69.5636 224.264C69.5997 224.172 69.6257 224.058 69.5666 223.984C69.5111 223.916 69.4022 223.92 69.3258 223.97C69.2499 224.02 69.2005 224.103 69.1587 224.186C69.0177 224.468 68.9321 224.798 69.0187 225.091C69.1058 225.248 69.2448 225.374 69.3797 225.488C69.4673 225.561 69.5585 225.631 69.6629 225.677C69.7673 225.721 69.8865 225.74 69.9985 225.708C70.053 225.692 70.1095 225.661 70.1319 225.606L70.1324 225.606Z" fill="#263238"/>
<path d="M75.855 219.892H46.4404V224.536H75.855V219.892Z" fill="#D2161D"/>
<path d="M49.3369 223.463L52.9144 242.709L70.032 243.045L73.6034 223.683L49.3369 223.463Z" fill="#D2161D"/>
<path opacity="0.3" d="M49.5366 224.536L49.9461 226.741H73.0392L73.4456 224.536H49.5366Z" fill="black"/>
<path d="M273.956 108.795H288.475C292.198 108.795 295.216 111.813 295.216 115.536V123.671C295.216 127.395 292.197 130.412 288.475 130.412H285.172L284.645 134.172L280.638 130.412H273.956C270.233 130.412 267.215 127.394 267.215 123.671V115.536C267.215 111.813 270.233 108.795 273.956 108.795H273.956Z" fill="#D2161D"/>
<path d="M277.787 119.63C277.787 120.589 277.01 121.365 276.051 121.365C275.093 121.365 274.316 120.588 274.316 119.63C274.316 118.673 275.093 117.895 276.051 117.895C277.01 117.895 277.787 118.672 277.787 119.63Z" fill="white"/>
<path d="M283.699 119.63C283.699 120.589 282.922 121.365 281.964 121.365C281.006 121.365 280.229 120.588 280.229 119.63C280.229 118.673 281.006 117.895 281.964 117.895C282.922 117.895 283.699 118.672 283.699 119.63Z" fill="white"/>
<path d="M289.767 119.63C289.767 120.589 288.99 121.365 288.032 121.365C287.073 121.365 286.297 120.588 286.297 119.63C286.297 118.673 287.073 117.895 288.032 117.895C288.99 117.895 289.767 118.672 289.767 119.63Z" fill="white"/>
<path d="M273.582 107.901H282.791C283.037 107.901 283.037 107.519 282.791 107.519H273.582C273.336 107.519 273.336 107.901 273.582 107.901Z" fill="#D2161D"/>
<path d="M283.946 107.901H284.717C284.817 107.901 284.913 107.814 284.908 107.71C284.903 107.607 284.824 107.519 284.717 107.519H283.946C283.846 107.519 283.75 107.607 283.755 107.71C283.759 107.814 283.839 107.901 283.946 107.901Z" fill="#D2161D"/>
<path d="M151.902 98.0783H137.384C133.66 98.0783 130.643 101.096 130.643 104.819V112.955C130.643 116.678 133.661 119.696 137.384 119.696H140.686L141.214 123.455L145.221 119.696H151.902C155.625 119.696 158.643 116.677 158.643 112.955V104.819C158.643 101.096 155.626 98.0783 151.902 98.0783H151.902Z" fill="#D2161D"/>
<path d="M148.898 108.914C148.898 109.872 149.675 110.649 150.633 110.649C151.592 110.649 152.369 109.872 152.369 108.914C152.369 107.956 151.592 107.178 150.633 107.178C149.675 107.178 148.898 107.955 148.898 108.914Z" fill="white"/>
<path d="M142.986 108.914C142.986 109.872 143.763 110.649 144.721 110.649C145.679 110.649 146.456 109.872 146.456 108.914C146.456 107.956 145.679 107.178 144.721 107.178C143.763 107.178 142.986 107.955 142.986 108.914Z" fill="white"/>
<path d="M136.918 108.914C136.918 109.872 137.695 110.649 138.653 110.649C139.611 110.649 140.388 109.872 140.388 108.914C140.388 107.956 139.611 107.178 138.653 107.178C137.695 107.178 136.918 107.955 136.918 108.914Z" fill="white"/>
<path d="M152.277 96.8026H143.068C142.822 96.8026 142.822 97.1845 143.068 97.1845H152.277C152.523 97.1845 152.523 96.8026 152.277 96.8026Z" fill="#D2161D"/>
<path d="M141.913 96.8026H141.141C141.042 96.8026 140.946 96.8902 140.95 96.9935C140.955 97.0969 141.034 97.1845 141.141 97.1845H141.913C142.013 97.1845 142.108 97.0969 142.104 96.9935C142.099 96.8902 142.02 96.8026 141.913 96.8026Z" fill="#D2161D"/>
<path d="M285.194 224.547H274.757L277.241 243.547H283.329L285.194 224.547Z" fill="#263238"/>
<path d="M258.479 224.547H248.051L250.535 243.547H256.623L258.479 224.547Z" fill="#263238"/>
<path opacity="0.2" d="M258.479 224.547H248.051L250.535 243.547H256.623L258.479 224.547Z" fill="white"/>
<path d="M293.333 143.765C296.03 144.183 297.877 146.707 297.46 149.404L288.361 223.756H116.672L125.772 149.404C126.223 146.206 128.913 143.8 132.141 143.708H292.492C292.774 143.703 293.055 143.722 293.333 143.766V143.765Z" fill="#263238"/>
<path opacity="0.6" d="M293.333 143.765C296.03 144.183 297.877 146.707 297.46 149.404L288.361 223.756H116.672L125.772 149.404C126.223 146.206 128.913 143.8 132.141 143.708H292.492C292.774 143.703 293.055 143.722 293.333 143.766V143.765Z" fill="white"/>
<path opacity="0.2" d="M280.117 149.404C280.571 146.208 283.26 143.804 286.486 143.708H292.455C292.749 143.701 293.044 143.72 293.334 143.765C296.031 144.183 297.879 146.708 297.46 149.404L288.361 223.756H271L280.117 149.404Z" fill="black"/>
<path d="M131.186 224.547H120.749L123.233 243.547H129.321L131.186 224.547Z" fill="#263238"/>
<path d="M104.47 224.547H94.042L96.5261 243.547H102.614L104.47 224.547Z" fill="#263238"/>
<path opacity="0.2" d="M104.47 224.547H94.042L96.5261 243.547H102.614L104.47 224.547Z" fill="white"/>
<path d="M91.9043 223.346L92.4502 230.343C92.4884 230.858 92.9172 231.255 93.4331 231.253H286.268C286.784 231.255 287.213 230.858 287.251 230.343L287.797 223.346H91.9043Z" fill="#263238"/>
<path opacity="0.2" d="M91.9043 223.346L92.4502 230.343C92.4884 230.858 92.9172 231.255 93.4331 231.253H259.862C260.376 231.254 260.802 230.856 260.836 230.343L261.391 223.346H91.9043Z" fill="white"/>
<path d="M264.967 228.296H93.16C90.5262 228.301 88.3277 226.288 88.1006 223.665L84.9524 187.704C84.82 186.087 83.5763 184.782 81.9676 184.573L80.6665 184.409C78.5225 184.135 76.8598 182.404 76.6719 180.251L76.0985 173.69C76.0878 173.566 76.0816 173.442 76.0811 173.318C76.0659 170.78 78.1105 168.71 80.6481 168.695H117.137C122.829 168.675 127.582 173.031 128.056 178.704L130.55 207.203H264.967V228.296Z" fill="#263238"/>
<path opacity="0.6" d="M264.967 228.296H93.16C90.5262 228.301 88.3277 226.288 88.1006 223.665L84.9524 187.704C84.82 186.087 83.5763 184.782 81.9676 184.573L80.6665 184.409C78.5225 184.135 76.8598 182.404 76.6719 180.251L76.0985 173.69C76.0878 173.566 76.0816 173.442 76.0811 173.318C76.0659 170.78 78.1105 168.71 80.6481 168.695H117.137C122.829 168.675 127.582 173.031 128.056 178.704L130.55 207.203H264.967V228.296Z" fill="white"/>
<path opacity="0.2" d="M105.317 207.203H130.577L128.083 178.704C127.609 173.031 122.856 168.675 117.164 168.695H91.8765C97.5689 168.675 102.321 173.031 102.796 178.704L105.316 207.203H105.317Z" fill="black"/>
<path d="M310.575 168.742C313.102 168.978 314.958 171.218 314.722 173.745L314.149 180.306C313.96 182.462 312.293 184.194 310.145 184.464L308.853 184.628C307.255 184.835 306.018 186.126 305.877 187.731L302.729 223.692C302.498 226.314 300.302 228.324 297.67 228.324H253.628V207.231H256.486L258.979 178.732C259.453 173.059 264.206 168.703 269.899 168.723H310.136C310.283 168.723 310.429 168.729 310.575 168.742V168.742Z" fill="#263238"/>
<path opacity="0.6" d="M310.575 168.742C313.102 168.978 314.958 171.218 314.722 173.745L314.149 180.306C313.96 182.462 312.293 184.194 310.145 184.464L308.853 184.628C307.255 184.835 306.018 186.126 305.877 187.731L302.729 223.692C302.498 226.314 300.302 228.324 297.67 228.324H253.628V207.231H256.486L258.979 178.732C259.453 173.059 264.206 168.703 269.899 168.723H310.136C310.283 168.723 310.429 168.729 310.575 168.742V168.742Z" fill="white"/>
<g opacity="0.2">
<path d="M268.661 228.296H297.679C300.31 228.297 302.507 226.286 302.738 223.665L305.886 187.704C306.027 186.099 307.264 184.808 308.862 184.601L310.154 184.437C312.301 184.166 313.969 182.434 314.157 180.278L314.731 173.717C314.742 173.594 314.748 173.469 314.748 173.345C314.764 170.807 312.719 168.737 310.181 168.722H281.154C281.272 168.723 281.39 168.729 281.508 168.738C284.041 168.954 285.92 171.184 285.704 173.717L285.13 180.278C284.942 182.434 283.274 184.166 281.127 184.437L279.835 184.601C278.237 184.81 276.998 186.099 276.85 187.704L273.71 223.665C273.476 226.281 271.287 228.288 268.66 228.296H268.661Z" fill="black"/>
</g>
<path opacity="0.1" d="M281.538 168.741C284.07 168.972 285.936 171.212 285.704 173.745L285.131 180.306C284.942 182.462 283.275 184.194 281.127 184.464L279.835 184.628C278.238 184.838 276.999 186.126 276.85 187.731L273.711 223.692C273.476 226.312 271.282 228.32 268.651 228.324H253.628V207.231H256.486L258.979 178.732C259.453 173.059 264.206 168.703 269.899 168.723H281.118C281.258 168.723 281.398 168.729 281.538 168.742V168.741Z" fill="white"/>
<path d="M86.6455 207.203L88.0831 223.664C88.3103 226.288 90.5087 228.301 93.1426 228.296H264.967V207.203H86.6455Z" fill="#263238"/>
<path opacity="0.6" d="M86.6455 207.203L88.0831 223.664C88.3103 226.288 90.5087 228.301 93.1426 228.296H264.967V207.203H86.6455Z" fill="white"/>
<path opacity="0.1" d="M86.6455 207.203L88.0831 223.664C88.3103 226.288 90.5087 228.301 93.1426 228.296H264.967V207.203H86.6455Z" fill="white"/>
<path d="M134.104 161.534C127.625 160.626 102.677 165.189 96.856 168.175C97.9402 180.644 101.837 192.86 108.174 203.653C109.131 205.282 110.27 206.987 112.047 207.63C113.882 208.294 115.906 207.654 117.744 206.996C126.895 203.721 135.878 199.973 144.643 195.772C143.183 183.858 139.597 172.207 134.105 161.534L134.104 161.534Z" fill="#D2161D"/>
<g opacity="0.3">
<path d="M134.104 161.534C127.625 160.626 102.677 165.189 96.856 168.175C97.9402 180.644 101.837 192.86 108.174 203.653C109.131 205.282 110.27 206.987 112.047 207.63C113.882 208.294 115.906 207.654 117.744 206.996C126.895 203.721 135.878 199.973 144.643 195.772C143.183 183.858 139.597 172.207 134.105 161.534L134.104 161.534Z" fill="white"/>
</g>
<path d="M112.343 205.861C112.21 205.861 112.098 205.757 112.089 205.622C111.249 192.503 106.394 179.524 98.4188 169.075C98.3337 168.963 98.3551 168.804 98.4666 168.718C98.5782 168.632 98.7381 168.654 98.8236 168.766C106.859 179.294 111.751 192.372 112.597 205.59C112.607 205.73 112.5 205.851 112.36 205.86C112.354 205.86 112.349 205.861 112.343 205.861Z" fill="#D2161D"/>
<path d="M102.848 156.427C100.211 149.049 108.424 149.643 105.306 140.205C101.873 129.814 109.292 126.513 109.292 126.513C109.292 126.513 110.762 122.128 115.774 121.636C120.786 121.145 132.179 121.361 131.722 134.942C131.457 142.856 134.098 143.023 135.941 146.285C138.55 150.903 133.341 156.21 137.705 158.969C137.705 158.969 119.07 161.31 104.543 162.575C104.543 162.575 104.457 160.932 102.848 156.427V156.427Z" fill="#263238"/>
<path d="M139.047 157.995C144.751 160.835 151.697 162.047 151.697 162.047C152.825 161.057 156.574 145.798 156.574 145.798L160.679 147.189C160.679 147.189 160.155 159.349 158.988 164.07C157.604 169.667 155.743 171.727 151.519 170.719C147.295 169.712 135.777 164.215 135.777 164.215L139.047 157.995H139.047Z" fill="#FDAD6A"/>
<path d="M129.558 151.561C134.261 151.433 144.144 160.024 144.144 160.024C143.086 161.09 141.964 162.093 140.787 163.027C139.417 164.199 137.852 165.123 136.164 165.756C135.847 165.852 135.521 165.916 135.191 165.947C128.63 159.669 124.981 155.537 129.558 151.561H129.558Z" fill="#D2161D"/>
<path opacity="0.2" d="M140.823 163.044C139.453 164.216 137.889 165.14 136.201 165.774C134.562 164.043 133.593 161.785 133.471 159.404C133.471 159.404 138.285 158.83 140.823 163.043V163.044Z" fill="black"/>
<path opacity="0.2" d="M105.335 165.608C105.335 165.608 118.017 185.796 122.479 188.723L123.98 204.681L128.371 203.013V186.39L109.368 164.122L105.335 165.608Z" fill="black"/>
<path d="M123.98 185.265C125.877 199.129 123.098 208.55 144.145 210.3C154.782 210.081 160.405 199.878 159.095 191.77C158.469 188.942 150.408 186.247 148.971 183.731C148.34 183.731 141.478 178.513 141.478 178.513L123.98 185.264V185.265Z" fill="#263238"/>
<path d="M249.653 210.517C249.684 206.915 249.743 203.07 249.803 198.049C249.862 193.027 247.239 190.181 246.656 194.635C245.314 204.889 240.94 203.526 240.94 203.526C240.94 203.526 238.817 209.438 239.338 209.511C244.708 210.288 249.622 214.119 249.653 210.517V210.517Z" fill="#FDAD6A"/>
<path d="M192.286 170.343C188.569 169.609 140.255 184.313 139.541 183.844L162.957 194.566L190.409 185.488C193.577 193.936 218.036 205.582 218.036 205.582C218.036 205.582 223.268 202.967 223.268 202.554C223.268 202.141 196.004 171.076 192.286 170.343Z" fill="#263238"/>
<path d="M231.435 202.308C210.525 201.58 198.013 198.895 198.013 198.895C191.315 198.029 176.161 194.014 164.255 190.942L144.581 185.701C134.044 186.993 129.294 202.189 134.317 207.276C139.34 212.362 160.537 209.938 160.537 209.938C174.528 210.476 192.375 211.316 192.375 211.316C206.225 214.137 235.978 211.354 241.883 210.68V203.083L231.435 202.307V202.308Z" fill="#263238"/>
<path d="M108.465 154.027C108.465 154.027 109.985 153.644 112.305 153.171L112.888 153.053C117.085 152.181 121.345 151.64 125.627 151.433H126.828C127.792 151.442 128.702 151.478 129.557 151.56C131.641 151.779 131.923 152.121 133.47 155.288C134.386 157.199 138.151 158.787 138.768 160.814C139.632 163.498 141.477 178.513 141.477 178.513L124.488 188.722C120.789 184.421 117.441 179.829 114.479 174.991L114.333 174.754C114.088 174.345 113.842 173.926 113.606 173.508C113.041 172.543 112.495 171.569 111.986 170.586C110.785 168.374 109.744 166.078 108.874 163.717C108.564 162.861 108.309 162.024 108.1 161.223C107.345 158.302 107.308 155.764 108.464 154.026L108.465 154.027Z" fill="#D2161D"/>
<path d="M114.307 141.651L122.051 144.736C122.014 144.963 121.96 145.2 121.96 145.409C121.732 146.755 121.803 148.134 122.169 149.449C122.733 151.287 123.989 151.451 123.989 151.451C125.545 153.417 125.002 155.7 125.002 155.7C123.535 155.283 115.095 152.626 115.095 152.626C117.979 148.704 114.307 141.651 114.307 141.651Z" fill="#FDAD6A"/>
<path opacity="0.2" d="M121.924 145.455C121.696 146.801 121.767 148.18 122.133 149.495C117.574 148.84 116.292 143.936 116.292 143.936C116.292 143.936 119.14 144.545 121.924 145.455Z" fill="black"/>
<path opacity="0.2" d="M119.012 161.943C119.012 161.943 125.536 167.084 124.281 171.361C123.471 174.155 118.157 174.746 113.607 173.518C113.043 172.553 112.497 171.58 111.988 170.597C110.787 168.384 109.746 166.088 108.875 163.727C111.014 161.77 114.781 160.715 119.012 161.943V161.943Z" fill="black"/>
<path d="M145.233 165.622C144.657 164.906 143.656 164.692 142.838 165.112L137.864 167.571C136.205 168.383 134.56 169.21 132.909 169.997C131.258 170.784 129.58 171.534 128.014 172.232C127.207 172.565 126.406 172.88 125.68 173.104C125.632 173.118 125.589 173.129 125.541 173.143C124.955 172.5 124.384 171.842 123.853 171.152C123.005 170.073 122.172 168.912 121.35 167.745C120.528 166.578 119.737 165.345 118.935 164.146C118.133 162.947 117.338 161.693 116.572 160.563C115.45 158.732 113.057 158.158 111.226 159.28C109.395 160.402 108.821 162.795 109.943 164.626L109.962 164.594C110.76 165.991 111.604 167.241 112.458 168.551C113.311 169.861 114.236 171.097 115.197 172.335C116.158 173.573 117.14 174.837 118.261 175.991C119.386 177.261 120.619 178.43 121.946 179.486L122.146 179.643C122.391 179.835 122.667 179.985 122.962 180.084C123.677 180.326 124.437 180.403 125.187 180.312C125.584 180.257 125.977 180.178 126.364 180.074C126.943 179.908 127.512 179.705 128.065 179.465C129.074 179.032 129.967 178.574 130.846 178.102C132.582 177.16 134.205 176.127 135.798 175.094C137.392 174.061 138.941 172.957 140.466 171.836C141.991 170.715 143.475 169.573 144.938 168.347C145.772 167.677 145.905 166.456 145.234 165.622H145.233ZM124.525 173.359C124.573 173.352 124.622 173.361 124.671 173.359C124.484 173.39 124.512 173.372 124.525 173.359Z" fill="#FDAD6A"/>
<path d="M122.132 165.983C122.132 165.983 114.871 170.851 111.395 170.533C103.715 162.289 103.233 157.166 108.429 154.036C114.98 154.008 122.132 165.983 122.132 165.983Z" fill="#D2161D"/>
<path d="M111.396 134.614C112.806 140.254 113.282 142.665 116.699 145.208C121.839 149.034 128.437 146.458 128.736 140.604C129.004 135.335 126.653 126.996 120.664 125.461C114.763 123.949 109.985 128.973 111.396 134.614Z" fill="#FDAD6A"/>
<path d="M119.095 135.329C119.217 135.93 119.622 136.376 120 136.325C120.377 136.275 120.584 135.747 120.463 135.146C120.341 134.545 119.936 134.098 119.559 134.149C119.181 134.199 118.974 134.727 119.096 135.328L119.095 135.329Z" fill="#263238"/>
<path d="M124.735 134.439C124.854 135.021 125.256 135.452 125.633 135.402C126.009 135.351 126.217 134.838 126.098 134.256C125.979 133.674 125.577 133.243 125.201 133.293C124.824 133.344 124.616 133.856 124.735 134.439Z" fill="#263238"/>
<path d="M117.575 133.405C117.649 133.402 117.719 133.37 117.768 133.309C118.523 132.356 119.56 132.489 119.572 132.49C119.726 132.51 119.862 132.404 119.872 132.249C119.882 132.094 119.764 131.951 119.608 131.928C119.554 131.921 118.252 131.753 117.315 132.936C117.222 133.053 117.248 133.233 117.372 133.336C117.433 133.385 117.505 133.408 117.575 133.405Z" fill="#263238"/>
<path d="M126.188 131.273C126.243 131.245 126.285 131.195 126.3 131.128C126.332 130.99 126.243 130.836 126.101 130.782C124.679 130.249 123.797 130.958 123.76 130.989C123.655 131.075 123.653 131.242 123.754 131.362C123.855 131.482 124.021 131.509 124.126 131.423C124.16 131.395 124.855 130.856 125.985 131.281C126.058 131.308 126.131 131.303 126.188 131.273Z" fill="#263238"/>
<path d="M123.157 134.397C123.157 134.397 124.384 136.4 125.6 137.579C125.813 137.785 125.756 138.142 125.497 138.286C124.831 138.656 123.967 138.548 123.967 138.548L123.157 134.397Z" fill="#EF7F2B"/>
<path d="M119.347 134.208L120.612 133.695C120.612 133.695 120.045 134.785 119.347 134.208Z" fill="#263238"/>
<path d="M125.068 133.327L126.333 132.814C126.333 132.814 125.767 133.904 125.068 133.327Z" fill="#263238"/>
<path d="M113.688 136.283C113.688 136.283 115.952 131.383 115.242 127.809C115.242 127.809 120.664 125.461 126.101 130.782C126.968 131.63 127.643 133.162 128.499 134.442C128.499 134.442 127.892 123.388 118.093 123.992C108.31 124.594 108.514 138.447 113.926 142.282C113.926 142.282 112.29 139.346 113.688 136.283L113.688 136.283Z" fill="#263238"/>
<path d="M110.387 139.545C111.245 140.614 112.457 141.181 113.503 141.277C115.076 141.422 115.481 138.867 114.729 137.429C114.053 136.135 112.424 135.461 110.997 135.987C109.59 136.506 109.407 138.323 110.387 139.545Z" fill="#FDAD6A"/>
<path opacity="0.2" d="M113.54 138.872C113.482 138.872 113.429 138.832 113.416 138.773C113.302 138.266 112.987 137.816 112.548 137.537C112.11 137.259 111.569 137.163 111.062 137.275C110.992 137.291 110.925 137.247 110.91 137.178C110.895 137.11 110.938 137.042 111.007 137.027C111.578 136.901 112.191 137.008 112.685 137.323C113.179 137.638 113.536 138.146 113.664 138.718C113.679 138.787 113.636 138.855 113.568 138.87C113.558 138.872 113.549 138.873 113.54 138.873L113.54 138.872Z" fill="black"/>
<path d="M156.269 153.119L156.256 169.336C156.256 170.292 155.614 171.168 154.661 171.515L144.553 175.193C143.073 175.732 141.522 174.796 141.443 173.317L140.664 158.687C140.605 157.591 141.317 156.56 142.412 156.154L154.177 151.791C155.201 151.412 156.27 152.09 156.269 153.119Z" fill="#263238"/>
<path d="M140.997 164.934C140.997 164.934 145.018 164.695 145.759 165.416C146.499 166.136 145.097 166.592 145.097 166.592C145.097 166.592 146.671 166.185 146.934 166.83C147.251 167.604 145.779 168.075 145.779 168.075C145.779 168.075 147.078 167.795 147.273 168.384C147.477 168.996 145.854 169.646 145.854 169.646C145.854 169.646 146.805 169.621 146.71 170.108C146.614 170.595 143.197 172.042 141.929 171.781C140.662 171.52 138.964 167.068 138.793 166.02C138.623 164.972 139.355 163.402 140.859 162.332L140.997 164.934V164.934Z" fill="#FDAD6A"/>
<path opacity="0.2" d="M145.121 166.667L145.114 166.669L142.337 167.248C142.3 167.255 142.261 167.228 142.252 167.186C142.242 167.143 142.265 167.102 142.302 167.096L145.079 166.517C145.116 166.509 145.154 166.536 145.164 166.579C145.173 166.618 145.154 166.657 145.121 166.667V166.667Z" fill="black"/>
<path opacity="0.2" d="M145.727 168.175H145.726L143.102 168.944C143.065 168.954 143.025 168.929 143.013 168.888C143.001 168.846 143.017 168.813 143.057 168.794L145.681 168.025C145.717 168.015 145.757 168.04 145.769 168.081C145.782 168.122 145.763 168.163 145.728 168.175H145.727Z" fill="black"/>
<path opacity="0.2" d="M145.789 169.749L143.856 170.376C143.819 170.388 143.779 170.364 143.766 170.323C143.753 170.282 143.771 170.239 143.807 170.227L145.74 169.601C145.777 169.589 145.817 169.613 145.83 169.654C145.843 169.694 145.825 169.738 145.789 169.749Z" fill="black"/>
<path d="M148.067 159.186C147.97 159.736 148.296 160.254 148.795 160.342C149.294 160.43 149.777 160.055 149.874 159.505C149.971 158.954 149.645 158.437 149.146 158.349C148.647 158.26 148.164 158.635 148.067 159.186Z" fill="white"/>
<path d="M156.908 147.99C156.908 147.99 155.308 147.043 154.943 145.549C154.578 144.055 153.89 142.959 153.695 141.83C153.501 140.701 154.696 141.683 155.226 142.334C155.755 142.984 156.363 143.717 156.788 143.24C157.212 142.763 158.339 137.387 159.003 136.792C159.667 136.197 159.757 137.124 159.757 137.124C159.757 137.124 160.066 135.825 160.614 135.808C160.756 135.803 161.094 136.023 161.046 136.637C160.938 138.018 160.562 140.904 160.562 140.904C160.581 140.738 161.299 137.208 161.475 136.694C161.706 136.021 162.158 135.822 162.543 135.969C163.092 136.178 162.35 140.584 162.449 140.791C162.449 140.791 162.791 138.241 163.498 137.969C164.205 137.697 164.077 139.314 163.694 140.719C163.342 142.007 162.989 144.626 162.505 145.9C161.908 147.471 161.154 148.391 159.582 148.491C158.009 148.59 156.908 147.99 156.908 147.99L156.908 147.99Z" fill="#FDAD6A"/>
<path opacity="0.3" d="M159.163 140.517H159.156C159.121 140.512 159.096 140.48 159.1 140.445C159.225 139.385 159.401 138.319 159.622 137.273C159.629 137.239 159.662 137.217 159.697 137.224C159.731 137.231 159.754 137.265 159.746 137.3C159.526 138.341 159.351 139.404 159.226 140.46C159.223 140.492 159.195 140.516 159.163 140.516V140.517Z" fill="black"/>
<path opacity="0.3" d="M162.352 141.85C162.342 141.85 162.332 141.848 162.323 141.843C161.109 141.22 159.694 140.963 158.338 141.115C158.298 141.119 158.272 141.094 158.268 141.059C158.264 141.024 158.289 140.993 158.324 140.989C159.705 140.831 161.145 141.096 162.381 141.73C162.413 141.746 162.425 141.785 162.409 141.816C162.398 141.837 162.375 141.85 162.352 141.85H162.352Z" fill="black"/>
<path opacity="0.3" d="M158.801 146.519L158.79 146.518C158.756 146.512 158.733 146.479 158.738 146.444C158.831 145.907 158.728 145.329 158.457 144.856C158.186 144.384 157.737 144.003 157.227 143.813C157.194 143.801 157.177 143.764 157.19 143.731C157.202 143.698 157.238 143.682 157.272 143.694C157.809 143.895 158.282 144.295 158.568 144.793C158.853 145.29 158.961 145.9 158.864 146.466C158.859 146.497 158.832 146.519 158.801 146.519H158.801Z" fill="black"/>
<path opacity="0.2" d="M169.677 192.344C169.677 192.344 153.378 188.045 153.019 187.949C152.659 187.853 147.163 183.075 147.291 183.185C147.419 183.295 155.003 187.326 155.003 187.326L174.491 190.752L169.677 192.344Z" fill="black"/>
<path opacity="0.2" d="M208.517 200.539C208.517 200.539 221.311 202.097 222.751 201.874L221.275 200.126L205.857 198.973L208.517 200.539Z" fill="black"/>
<path d="M124.002 140.481C123.638 140.962 123.308 141.468 123.016 141.997C122.917 141.962 122.814 141.928 122.716 141.888C121.361 141.388 120.895 140.711 120.797 140.107C120.754 139.811 120.781 139.51 120.877 139.226C120.926 139.065 120.998 138.912 121.09 138.771C121.651 139.466 122.875 140.029 123.544 140.301C123.837 140.405 124.002 140.481 124.002 140.481Z" fill="#263238"/>
<path d="M123.561 140.293L123.257 140.732C121.985 140.26 121.152 139.76 120.893 139.218C120.943 139.057 121.015 138.904 121.107 138.763C121.671 139.464 122.892 140.02 123.561 140.293Z" fill="white"/>
<path d="M122.733 141.88C121.377 141.38 120.911 140.702 120.813 140.099C121.325 140.298 121.797 140.586 122.208 140.95C122.475 141.198 122.659 141.523 122.732 141.88H122.733Z" fill="#F54948"/>
<path d="M106.817 128.91C105.964 127.523 104.622 126.923 103.127 126.281C101.631 125.639 99.6556 125.892 98.7099 127.217C97.7036 128.627 98.2785 130.776 99.6724 131.804C101.066 132.832 103.012 132.866 104.637 132.266C103.193 133.453 101.448 134.269 99.6113 134.615C101.012 135.406 102.166 135.575 103.691 134.906C102.804 135.78 101.797 136.527 100.692 137.102C102.441 137.363 104.154 138.444 105.483 137.278C106.812 136.111 107.592 134.345 107.56 132.578L106.817 128.91Z" fill="#263238"/>
<path d="M298 182.917C297.452 183.113 296.895 183.278 296.326 183.399C296.159 183.435 295.99 183.462 295.823 183.496C295.733 183.515 295.373 183.558 295.825 183.503C295.486 183.544 295.146 183.573 294.805 183.588C294.258 183.613 293.711 183.604 293.165 183.563C293.046 183.554 292.262 183.459 292.753 183.531C292.413 183.481 292.075 183.419 291.739 183.345C291.168 183.219 290.604 183.06 290.052 182.868C289.889 182.812 289.729 182.748 289.566 182.691C289.491 182.664 289.159 182.524 289.54 182.687C289.223 182.551 288.912 182.402 288.607 182.243C288.118 181.99 287.644 181.71 287.186 181.404C286.963 181.255 286.745 181.098 286.53 180.939C286.886 181.202 286.532 180.937 286.445 180.866C286.317 180.761 286.19 180.654 286.065 180.545C285.64 180.174 285.235 179.781 284.85 179.369C284.646 179.151 284.448 178.928 284.256 178.699C284.17 178.597 284.087 178.494 284.003 178.391C283.694 178.016 284.18 178.659 283.875 178.223C283.224 177.29 282.624 176.338 282.124 175.314C282.051 175.164 281.98 175.012 281.911 174.861C281.884 174.802 281.71 174.417 281.824 174.676C281.938 174.934 281.773 174.547 281.749 174.486C281.687 174.331 281.627 174.175 281.569 174.018C281.361 173.455 281.178 172.881 281.02 172.302C280.864 171.725 280.733 171.141 280.625 170.552C280.597 170.395 280.573 170.238 280.545 170.082C280.409 169.335 280.564 170.308 280.51 169.865C280.467 169.51 280.43 169.154 280.402 168.797C280.279 167.209 280.315 165.61 280.483 164.026C280.499 163.867 280.519 163.708 280.537 163.55C280.491 163.945 280.588 163.21 280.588 163.209C280.65 162.815 280.719 162.421 280.797 162.029C280.951 161.246 281.139 160.47 281.349 159.7C281.664 158.544 280.957 157.156 279.748 156.881C278.54 156.605 277.267 157.244 276.929 158.481C275.278 164.538 275.258 170.996 277.789 176.808C280.003 181.893 284.321 186.06 289.719 187.566C292.799 188.425 296.195 188.42 299.218 187.336C300.343 186.933 301.219 185.756 300.818 184.517C300.46 183.408 299.207 182.483 297.999 182.917H298Z" fill="#263238"/>
<path opacity="0.2" d="M303.732 183.589L303.451 184.023L299.423 181.658L299.723 181.236L303.732 183.589Z" fill="black"/>
<path d="M290.354 248.563C298.333 248.563 304.802 241.039 304.802 231.757C304.802 222.475 298.333 214.95 290.354 214.95C282.374 214.95 275.906 222.475 275.906 231.757C275.906 241.039 282.374 248.563 290.354 248.563Z" fill="#263238"/>
<path opacity="0.2" d="M292.324 243.593C297.422 243.593 301.555 238.294 301.555 231.757C301.555 225.219 297.422 219.92 292.324 219.92C287.225 219.92 283.092 225.219 283.092 231.757C283.092 238.294 287.225 243.593 292.324 243.593Z" fill="black"/>
<path d="M342.825 224.489L330.698 234.759L297.103 234.689L289.205 225.79L294.074 214.178C294.354 213.501 294.998 213.063 295.709 213.066H304.463C304.961 213.071 305.435 213.293 305.768 213.677L306.293 214.288L308.725 216.983C309.057 217.368 309.531 217.59 310.03 217.594H316.771C317.111 217.596 317.445 217.496 317.733 217.307L323.582 213.432C323.868 213.244 324.2 213.144 324.539 213.145H336.545C337.239 213.141 337.871 213.556 338.162 214.208L342.826 224.488L342.825 224.489Z" fill="#D2161D"/>
<path opacity="0.2" d="M324.799 213.347L319.567 222.111C319.195 222.736 318.522 223.119 317.795 223.12H295.072C294.366 223.12 293.794 222.547 293.795 221.842C293.795 221.674 293.828 221.508 293.892 221.354L296.459 215.199C296.708 214.613 297.283 214.231 297.92 214.228H306.88L309.397 216.923C309.742 217.308 310.232 217.53 310.748 217.534H317.746C318.099 217.536 318.444 217.436 318.742 217.247L324.798 213.348L324.799 213.347Z" fill="black"/>
<path d="M339.91 252C347.889 252 354.358 243.706 354.358 233.475C354.358 223.244 347.889 214.951 339.91 214.951C331.93 214.951 325.461 223.244 325.461 233.475C325.461 243.706 331.93 252 339.91 252Z" fill="#263238"/>
<path d="M340.999 243.543C345.335 243.543 348.851 239.036 348.851 233.475C348.851 227.915 345.335 223.407 340.999 223.407C336.662 223.407 333.146 227.915 333.146 233.475C333.146 239.036 336.662 243.543 340.999 243.543Z" fill="#D2161D"/>
<path d="M304.802 205.524V218.133C304.802 218.781 305.328 219.306 305.976 219.306H319.342C319.683 219.304 320.006 219.155 320.228 218.896L324.635 213.799C325.042 213.329 325.633 213.059 326.254 213.06H328.039V205.524H304.802Z" fill="#263238"/>
<path opacity="0.3" d="M328.039 205.524V213.06H326.242C325.806 213.055 325.379 213.185 325.02 213.433C324.864 213.534 324.725 213.658 324.604 213.799L323.125 215.51L322.673 216.03L320.882 218.108L320.424 218.633L320.198 218.896C319.975 219.154 319.653 219.303 319.312 219.305H305.976C305.522 219.305 305.108 219.043 304.913 218.633C304.841 218.476 304.804 218.305 304.803 218.132V205.523H328.04L328.039 205.524Z" fill="white"/>
<path opacity="0.2" d="M328.039 207.712H304.802V208.238H328.039V207.712Z" fill="black"/>
<path opacity="0.2" d="M328.039 210.309H304.802V210.835H328.039V210.309Z" fill="black"/>
<path opacity="0.2" d="M328.039 212.913V213.06H326.242C325.806 213.055 325.379 213.185 325.02 213.433H304.802V212.913H328.039Z" fill="black"/>
<path opacity="0.2" d="M323.156 215.51L322.703 216.03H304.802V215.51H323.156Z" fill="black"/>
<path opacity="0.2" d="M320.913 218.108L320.454 218.634H304.912C304.84 218.476 304.803 218.305 304.802 218.133L320.913 218.108Z" fill="black"/>
<path opacity="0.2" d="M328.039 205.524V208.317C324.402 209.234 313.847 211.709 304.814 211.984V205.524H328.039V205.524Z" fill="black"/>
<path d="M325.251 167.124H307.484V176.952H325.251V167.124Z" fill="#263238"/>
<path opacity="0.3" d="M325.251 167.124H307.484V176.952H325.251V167.124Z" fill="white"/>
<path opacity="0.2" d="M325.251 170.522H307.484V171.011H325.251V170.522Z" fill="black"/>
<path opacity="0.2" d="M325.251 172.667H307.484V173.156H325.251V172.667Z" fill="black"/>
<path opacity="0.2" d="M325.251 174.807H307.484V175.296H325.251V174.807Z" fill="black"/>
<path opacity="0.2" d="M325.251 167.124V169.624C320.729 171.243 313.248 173.542 307.484 173.334V167.125H325.251V167.124Z" fill="black"/>
<path d="M332.604 139.132H301.526C297.772 139.132 294.73 142.175 294.73 145.928V163.341C294.734 167.092 297.775 170.131 301.526 170.131H332.604C336.355 170.131 339.397 167.091 339.4 163.341V145.928C339.4 142.175 336.357 139.132 332.604 139.132Z" fill="#D2161D"/>
<path opacity="0.2" d="M339.4 145.928V163.335C339.4 167.088 336.357 170.131 332.604 170.131H320.38C324.13 170.134 327.173 167.097 327.176 163.346V145.934C327.176 142.181 324.133 139.138 320.38 139.138H332.604C336.354 139.134 339.396 142.172 339.4 145.922V145.928Z" fill="black"/>
<path d="M320.008 142.133H301.526C299.231 142.133 297.37 143.994 297.37 146.289V162.974C297.37 165.269 299.231 167.13 301.526 167.13H320.008C322.303 167.13 324.164 165.269 324.164 162.974V146.289C324.164 143.994 322.303 142.133 320.008 142.133Z" fill="#263238"/>
<path d="M340.971 154.632C340.971 155.684 340.753 156.724 340.329 157.688C340.033 158.376 339.62 159.007 339.107 159.551C338.174 160.6 336.844 161.21 335.44 161.232C332.384 161.232 329.903 158.268 329.903 154.601C329.903 150.934 332.353 148.001 335.409 148.001C336.826 148.023 338.169 148.637 339.113 149.693C339.625 150.24 340.038 150.871 340.335 151.557C340.757 152.527 340.974 153.574 340.971 154.632Z" fill="#D2161D"/>
<g opacity="0.4">
<path d="M337.347 159.393C335.178 159.393 333.417 157.26 333.417 154.632C333.417 152.003 335.177 149.877 337.347 149.877C338.56 149.908 339.679 150.537 340.336 151.557C340.038 150.87 339.625 150.24 339.114 149.693C338.56 149.413 337.949 149.267 337.329 149.265C334.824 149.265 332.788 151.674 332.788 154.632C332.788 157.589 334.823 160.004 337.329 160.004C337.943 160.005 338.548 159.86 339.095 159.582C339.608 159.037 340.022 158.406 340.317 157.718C339.663 158.731 338.552 159.357 337.347 159.393Z" fill="black"/>
</g>
<path d="M318.346 151.687C318.346 152.763 317.869 153.63 317.277 153.63C316.684 153.63 316.201 152.763 316.201 151.687C316.201 150.611 316.684 149.744 317.277 149.744C317.869 149.744 318.346 150.611 318.346 151.687Z" fill="white"/>
<path d="M304.102 151.687C304.102 152.763 303.619 153.63 303.026 153.63C302.433 153.63 301.957 152.763 301.957 151.687C301.957 150.611 302.433 149.744 303.026 149.744C303.619 149.744 304.102 150.611 304.102 151.687Z" fill="white"/>
<path d="M338.067 182.385V200.598C338.067 204.206 335.142 207.131 331.534 207.131H302.534C298.926 207.131 296.001 204.206 296.001 200.598V182.391C296.001 178.783 298.926 175.858 302.534 175.858H331.534C335.139 175.854 338.064 178.774 338.067 182.379V182.385Z" fill="#D2161D"/>
<path opacity="0.2" d="M338.068 182.385V200.604C338.068 204.209 335.145 207.131 331.541 207.131H328.198C324.593 207.131 321.67 204.209 321.67 200.604V182.385C321.67 178.78 324.593 175.858 328.198 175.858H331.535C335.14 175.854 338.065 178.774 338.068 182.379V182.385Z" fill="black"/>
<path d="M329.903 188.914C332.056 188.914 333.802 187.168 333.802 185.014C333.802 182.861 332.056 181.115 329.903 181.115C327.749 181.115 326.003 182.861 326.003 185.014C326.003 187.168 327.749 188.914 329.903 188.914Z" fill="#263238"/>
<path d="M331.036 187.066C330.526 187.14 331.26 187.042 331.409 187.028C331.672 187.004 331.935 186.986 332.198 186.975C332.725 186.951 333.253 186.953 333.779 186.978C334.043 186.991 334.306 187.009 334.568 187.033C334.72 187.048 335.446 187.16 334.941 187.071C335.462 187.162 335.98 187.249 336.495 187.374C337.008 187.497 337.516 187.643 338.016 187.811C338.235 187.884 338.453 187.962 338.669 188.044C338.793 188.091 338.915 188.141 339.038 188.188C339.29 188.282 338.736 188.043 339.128 188.228C340.086 188.679 341.012 189.172 341.889 189.769C342.107 189.917 342.32 190.073 342.533 190.228C342.182 189.971 342.66 190.334 342.766 190.422C343.197 190.781 343.61 191.162 344.002 191.562C344.349 191.915 344.679 192.284 344.992 192.668C345.033 192.717 345.289 193.046 345.12 192.824C344.951 192.602 345.2 192.936 345.237 192.987C345.411 193.227 345.579 193.472 345.741 193.72C346.01 194.135 346.261 194.562 346.494 194.998C346.618 195.23 346.737 195.466 346.852 195.703C346.894 195.793 346.937 195.882 346.978 195.972C347.002 196.026 347.244 196.628 347.061 196.152C347.44 197.141 347.769 198.138 347.992 199.175C348.048 199.434 348.098 199.693 348.142 199.953C348.164 200.084 348.182 200.214 348.204 200.344C348.112 199.802 348.213 200.448 348.221 200.52C348.278 201.078 348.31 201.638 348.314 202.199C348.319 202.792 348.294 203.386 348.238 203.976C348.226 204.108 348.208 204.239 348.196 204.369C348.169 204.651 348.265 204.001 348.183 204.446C348.123 204.771 348.067 205.095 347.997 205.418C347.744 206.587 348.345 207.951 349.597 208.237C350.752 208.5 352.146 207.889 352.417 206.636C353.484 201.698 352.676 196.447 350.114 192.08C347.559 187.725 343.319 184.547 338.479 183.155C335.642 182.34 332.725 182.22 329.817 182.645C328.627 182.818 327.868 184.387 328.216 185.463C328.638 186.765 329.759 187.25 331.036 187.064V187.066Z" fill="#263238"/>
<path d="M306.095 154.05C306.617 155.989 308.516 157.475 310.544 157.414C312.561 157.353 314.41 155.813 314.818 153.833C314.901 153.43 314.701 153.008 314.285 152.894C313.907 152.79 313.428 153.022 313.345 153.428C313.075 154.74 311.912 155.844 310.544 155.886C309.186 155.929 307.919 154.95 307.568 153.645C307.312 152.696 305.839 153.099 306.095 154.051V154.05Z" fill="white"/>
<path d="M350.236 211.476C352.916 211.476 355.089 209.303 355.089 206.623C355.089 203.943 352.916 201.77 350.236 201.77C347.556 201.77 345.383 203.943 345.383 206.623C345.383 209.303 347.556 211.476 350.236 211.476Z" fill="#D2161D"/>
<path d="M343.123 209.593C344.619 209.006 346.115 208.419 347.611 207.832C347.982 207.687 348.281 207.314 348.145 206.893C348.028 206.533 347.603 206.203 347.205 206.359C345.709 206.946 344.213 207.532 342.717 208.12C342.346 208.265 342.047 208.638 342.183 209.059C342.3 209.419 342.725 209.749 343.123 209.593Z" fill="#D2161D"/>
<path d="M348.074 208.805C347.493 210.261 346.985 211.745 346.555 213.252C346.446 213.636 346.689 214.101 347.089 214.192C347.496 214.285 347.911 214.07 348.028 213.658C348.459 212.151 348.966 210.667 349.547 209.211C349.696 208.839 349.386 208.356 349.014 208.271C348.573 208.171 348.233 208.406 348.074 208.805Z" fill="#D2161D"/>
<path d="M350.412 208.517C350.574 210.327 350.737 212.137 350.9 213.947C350.936 214.358 351.224 214.711 351.664 214.711C352.048 214.711 352.465 214.36 352.428 213.947C352.265 212.137 352.103 210.327 351.94 208.517C351.903 208.106 351.615 207.753 351.176 207.753C350.791 207.753 350.375 208.103 350.412 208.517Z" fill="#D2161D"/>
<path d="M352.813 208.675C353.174 209.258 353.502 209.862 353.792 210.484C353.86 210.629 353.924 210.775 353.989 210.921C354.024 211.003 354.025 211.006 353.992 210.929C354.01 210.971 354.027 211.013 354.045 211.055C354.079 211.14 354.113 211.225 354.146 211.311C354.27 211.63 354.384 211.954 354.49 212.28C354.612 212.66 355.025 212.945 355.429 212.814C355.809 212.691 356.094 212.281 355.963 211.874C355.514 210.485 354.901 209.146 354.132 207.905C353.922 207.565 353.44 207.403 353.087 207.631C352.747 207.85 352.588 208.313 352.813 208.676L352.813 208.675Z" fill="#D2161D"/>
<path d="M274.375 154.773C274.945 152.154 277.529 150.493 280.149 151.063C282.768 151.633 284.428 154.218 283.859 156.837C283.289 159.456 280.704 161.117 278.085 160.547C275.466 159.977 273.805 157.392 274.375 154.773H274.375Z" fill="#D2161D"/>
<path d="M286.537 154.442C284.951 154.697 283.364 154.952 281.778 155.207C281.382 155.271 281.127 155.784 281.244 156.147C281.383 156.576 281.76 156.749 282.184 156.681C283.77 156.426 285.357 156.17 286.943 155.915C287.339 155.851 287.594 155.338 287.477 154.975C287.338 154.546 286.961 154.373 286.537 154.442Z" fill="#D2161D"/>
<path d="M281.675 154.163C282.553 152.864 283.364 151.522 284.105 150.14C284.294 149.788 284.205 149.292 283.831 149.095C283.476 148.908 282.988 148.994 282.786 149.369C282.045 150.75 281.234 152.093 280.356 153.392C280.132 153.724 280.282 154.253 280.63 154.437C281.016 154.641 281.436 154.517 281.675 154.163Z" fill="#D2161D"/>
<path d="M279.364 153.755C279.591 151.951 279.816 150.148 280.042 148.345C280.094 147.935 279.654 147.581 279.278 147.581C278.823 147.581 278.566 147.933 278.514 148.345C278.288 150.148 278.063 151.951 277.837 153.755C277.785 154.164 278.225 154.518 278.601 154.518C279.056 154.518 279.313 154.166 279.364 153.755Z" fill="#D2161D"/>
<path d="M277.046 153.286C276.817 152.64 276.625 151.982 276.474 151.314C276.4 150.987 276.336 150.657 276.282 150.326C276.267 150.237 276.253 150.147 276.24 150.058C276.236 150.03 276.206 149.813 276.225 149.954C276.201 149.775 276.182 149.595 276.164 149.415C276.125 149.018 275.841 148.631 275.4 148.651C275.02 148.668 274.594 148.989 274.636 149.415C274.781 150.875 275.082 152.309 275.572 153.692C275.705 154.068 276.1 154.359 276.512 154.226C276.883 154.105 277.188 153.689 277.046 153.286V153.286Z" fill="#D2161D"/>
<path d="M309.415 197.246C311.316 197.246 312.857 194.705 312.857 191.57C312.857 188.435 311.316 185.893 309.415 185.893C307.513 185.893 305.972 188.435 305.972 191.57C305.972 194.705 307.513 197.246 309.415 197.246Z" fill="white"/>
</svg>
