<svg width="48" height="48" viewBox="0 0 48 48" fill="none" xmlns="http://www.w3.org/2000/svg">
<path d="M24.6602 20.9786L35.9129 11.6834L26.9223 23.3174L41.1732 23.8393C42.5241 22.9854 43.6552 22.1241 44.468 21.2837C49.1773 16.4148 49.1773 8.52066 44.468 3.65171C39.7587 -1.21724 32.1234 -1.21724 27.4141 3.65171C26.3713 4.72988 25.2865 6.36134 24.2263 8.33075L24.6602 20.9771V20.9786Z" fill="#D2161D"/>
<path d="M6.82681 23.841L21.0777 23.3191L12.0872 11.685L23.3398 20.9803L23.7737 8.33391C22.7135 6.36599 21.6287 4.73304 20.5859 3.65487C15.8766 -1.21408 8.2413 -1.21408 3.53199 3.65487C-1.17733 8.52382 -1.17733 16.4179 3.53199 21.2869C4.34483 22.1273 5.47592 22.9886 6.82681 23.8425V23.841Z" fill="#D2161D"/>
<path d="M23.3412 27.0214L12.0886 36.3166L21.0791 24.6826L6.8282 24.1607C5.47731 25.0146 4.3463 25.8759 3.53345 26.7163C-1.17586 31.5852 -1.17586 39.4793 3.53345 44.3483C8.24276 49.2172 15.8781 49.2172 20.5874 44.3483C21.6302 43.2701 22.715 41.6387 23.7751 39.6707L23.3412 27.0243V27.0214Z" fill="#D2161D"/>
<path d="M41.1732 24.1593L26.9223 24.6811L35.9129 36.3152L24.6602 27.0199L24.2263 39.6663C25.2865 41.6342 26.3713 43.2672 27.4141 44.3454C32.1234 49.2143 39.7587 49.2143 44.468 44.3454C49.1773 39.4764 49.1773 31.5823 44.468 26.7134C43.6552 25.873 42.5241 25.0116 41.1732 24.1578V24.1593Z" fill="#D2161D"/>
</svg>
