<svg width="398" height="300" viewBox="0 0 398 300" fill="none" xmlns="http://www.w3.org/2000/svg">
<path d="M320.827 178.346H206.893C204.856 178.346 203.198 176.688 203.198 174.651V8.69514C203.198 6.65783 204.856 5 206.893 5H320.827C322.864 5 324.522 6.6572 324.522 8.69514V174.651C324.522 176.688 322.864 178.346 320.827 178.346ZM206.893 5.15822C204.942 5.15822 203.355 6.74545 203.355 8.69577V174.651C203.355 176.602 204.943 178.189 206.893 178.189H320.827C322.778 178.189 324.364 176.602 324.364 174.651V8.69514C324.364 6.74482 322.777 5.15759 320.827 5.15759L206.893 5.15822Z" fill="#E0E0E0"/>
<path d="M189.444 178.346H75.5096C73.4723 178.346 71.8145 176.688 71.8145 174.651V8.69514C71.8145 6.65783 73.4717 5 75.5096 5H189.444C191.482 5 193.139 6.6572 193.139 8.69514V174.651C193.139 176.688 191.482 178.346 189.444 178.346ZM75.5096 5.15822C73.5593 5.15822 71.972 6.74545 71.972 8.69577V174.651C71.972 176.602 73.5593 178.189 75.5096 178.189H189.444C191.395 178.189 192.982 176.602 192.982 174.651V8.69514C192.982 6.74482 191.395 5.15759 189.444 5.15759L75.5096 5.15822Z" fill="#E0E0E0"/>
<path d="M356.177 216.841H41V216.999H356.177V216.841Z" fill="#E0E0E0"/>
<path d="M83.6953 225.833H73.5718V225.991H83.6953V225.833Z" fill="#E0E0E0"/>
<path d="M182.125 224.125H148.382V224.283H182.125V224.125Z" fill="#E0E0E0"/>
<path d="M107.176 231.689H84.3257V231.847H107.176V231.689Z" fill="#E0E0E0"/>
<path d="M306.721 224.043H279.496V224.201H306.721V224.043Z" fill="#E0E0E0"/>
<path d="M316.328 224.043H312.337V224.201H316.328V224.043Z" fill="#E0E0E0"/>
<path d="M274.295 227.97H240.326V228.128H274.295V227.97Z" fill="#E0E0E0"/>
<path d="M351.609 118.423H46.1729V294.729H351.609V118.423Z" fill="#F5F5F5"/>
<path d="M293.666 21.9534H244.953V84.453H293.666V21.9534Z" fill="#E6E6E6"/>
<path d="M291.276 21.9534H234.054V84.453H291.276V21.9534Z" fill="#F0F0F0"/>
<path d="M285.751 27.5049H239.33V78.9015H285.751V27.5049Z" fill="white"/>
<path d="M271.335 43.9269H254.579V62.4801H271.335V43.9269Z" fill="#F0F0F0"/>
<path d="M171.147 18.3799H109.658V97.2713H171.147V18.3799Z" fill="#E6E6E6"/>
<path d="M168.13 18.3799H95.9014V97.2713H168.13V18.3799Z" fill="#F0F0F0"/>
<path d="M161.156 25.3869H102.561V90.263H161.156V25.3869Z" fill="white"/>
<path d="M142.96 46.1161H121.808V69.535H142.96V46.1161Z" fill="#F0F0F0"/>
<path d="M93.1002 275.845C103.688 275.845 112.271 272.677 112.271 268.769C112.271 264.861 103.688 261.694 93.1002 261.694C82.5123 261.694 73.9292 264.861 73.9292 268.769C73.9292 272.677 82.5123 275.845 93.1002 275.845Z" fill="#E6E6E6"/>
<path d="M349.366 203.867C349.366 212.529 330.341 219.551 306.871 219.551C283.402 219.551 264.376 212.529 264.376 203.867C264.376 195.206 283.402 188.184 306.871 188.184C330.341 188.184 349.366 195.206 349.366 203.867Z" fill="#E6E6E6"/>
<path d="M334.075 259.195C334.075 276.539 286.689 290.599 228.236 290.599C169.783 290.599 122.397 276.539 122.397 259.195C122.397 241.851 169.783 227.79 228.236 227.79C286.689 227.79 334.075 241.85 334.075 259.195Z" fill="#E6E6E6"/>
<path d="M303.54 162.259C303.54 174.29 277.114 184.043 244.516 184.043C211.918 184.043 185.491 174.29 185.491 162.259C185.491 150.228 211.918 140.474 244.516 140.474C277.114 140.474 303.54 150.227 303.54 162.259Z" fill="#E6E6E6"/>
<path d="M202.206 200.538C202.206 212.967 168.248 223.043 126.359 223.043C84.47 223.043 50.5122 212.966 50.5122 200.538C50.5122 188.109 84.47 178.032 126.359 178.032C168.248 178.032 202.206 188.108 202.206 200.538Z" fill="#E6E6E6"/>
<path d="M241.857 175.181C281.177 175.181 313.052 163.98 313.052 150.164C313.052 136.347 281.177 125.146 241.857 125.146C202.537 125.146 170.662 136.347 170.662 150.164C170.662 163.98 202.537 175.181 241.857 175.181Z" fill="#263238"/>
<path opacity="0.7" d="M241.857 175.181C281.177 175.181 313.052 163.98 313.052 150.164C313.052 136.347 281.177 125.146 241.857 125.146C202.537 125.146 170.662 136.347 170.662 150.164C170.662 163.98 202.537 175.181 241.857 175.181Z" fill="white"/>
<path d="M242.169 172.28C282.884 172.28 315.89 161.079 315.89 147.262C315.89 133.445 282.884 122.245 242.169 122.245C201.454 122.245 168.448 133.445 168.448 147.262C168.448 161.079 201.454 172.28 242.169 172.28Z" fill="#263238"/>
<path opacity="0.8" d="M242.169 172.28C282.884 172.28 315.89 161.079 315.89 147.262C315.89 133.445 282.884 122.245 242.169 122.245C201.454 122.245 168.448 133.445 168.448 147.262C168.448 161.079 201.454 172.28 242.169 172.28Z" fill="white"/>
<path opacity="0.7" d="M180.142 148.701C180.62 138.986 200.339 134.274 208.192 132.605C219.341 130.334 230.744 129.504 242.108 129.445C253.472 129.503 264.876 130.335 276.025 132.605C284.55 134.503 297.281 137.523 302.738 144.717C303.541 145.887 304.085 147.272 304.075 148.701C304.058 147.272 303.492 145.907 302.675 144.761C300.566 141.892 297.346 140.09 294.186 138.591C270.08 128.338 233.882 128.372 208.287 133.078C200.465 134.674 180.731 139.144 180.142 148.701Z" fill="black"/>
<path opacity="0.7" d="M304.075 147.874C303.53 156.78 282.812 160.976 275.554 162.324C250.567 166.589 216.447 166.443 192.409 158.121C187.996 156.341 180.446 153.329 180.142 147.874C180.543 153.309 188.119 156.144 192.515 157.831C217.422 165.885 249.702 165.865 275.471 161.85C282.723 160.558 303.423 156.634 304.075 147.874Z" fill="white"/>
<path opacity="0.7" d="M226.907 160.089C226.907 160.089 242.058 167.399 253.967 163.624C265.875 159.848 271.509 156.638 277.849 156.26C284.189 155.883 306.657 154.934 303.447 149.839C300.237 144.744 295.139 145.844 291.741 143.972C288.343 142.1 289.369 136.822 285.244 137.477C281.12 138.131 226.907 160.089 226.907 160.089Z" fill="#D2161D"/>
<path d="M283.011 146.385C283.011 154.425 264.243 160.944 241.09 160.944C217.938 160.944 199.169 154.426 199.169 146.385C199.169 145.137 198.661 141.755 199.511 140.599C204.14 134.307 221.53 131.827 241.09 131.827C260.334 131.827 277.511 133.923 282.437 140.06C283.438 141.306 283.011 145.028 283.011 146.385V146.385Z" fill="#D2161D"/>
<path opacity="0.8" d="M283.011 146.385C283.011 154.425 264.243 160.944 241.09 160.944C217.938 160.944 199.169 154.426 199.169 146.385C199.169 145.137 198.661 141.755 199.511 140.599C204.14 134.307 221.53 131.827 241.09 131.827C260.334 131.827 277.511 133.923 282.437 140.06C283.438 141.306 283.011 145.028 283.011 146.385V146.385Z" fill="white"/>
<path d="M241.09 157.027C264.242 157.027 283.011 150.509 283.011 142.468C283.011 134.428 264.242 127.91 241.09 127.91C217.937 127.91 199.168 134.428 199.168 142.468C199.168 150.509 217.937 157.027 241.09 157.027Z" fill="#D2161D"/>
<path opacity="0.4" d="M241.09 157.027C264.242 157.027 283.011 150.509 283.011 142.468C283.011 134.428 264.242 127.91 241.09 127.91C217.937 127.91 199.168 134.428 199.168 142.468C199.168 150.509 217.937 157.027 241.09 157.027Z" fill="white"/>
<path d="M284.12 139.198C284.12 147.238 265.352 153.757 242.199 153.757C219.047 153.757 200.278 147.239 200.278 139.198C200.278 137.95 199.769 134.567 200.62 133.411C205.249 127.12 222.639 124.639 242.199 124.639C261.443 124.639 278.62 126.735 283.546 132.872C284.546 134.119 284.12 137.841 284.12 139.198Z" fill="#D2161D"/>
<path opacity="0.8" d="M284.12 139.198C284.12 147.238 265.352 153.757 242.199 153.757C219.047 153.757 200.278 147.239 200.278 139.198C200.278 137.95 199.769 134.567 200.62 133.411C205.249 127.12 222.639 124.639 242.199 124.639C261.443 124.639 278.62 126.735 283.546 132.872C284.546 134.119 284.12 137.841 284.12 139.198Z" fill="white"/>
<path d="M242.199 149.839C265.352 149.839 284.121 143.321 284.121 135.28C284.121 127.24 265.352 120.722 242.199 120.722C219.046 120.722 200.277 127.24 200.277 135.28C200.277 143.321 219.046 149.839 242.199 149.839Z" fill="#D2161D"/>
<path opacity="0.4" d="M242.199 149.839C265.352 149.839 284.121 143.321 284.121 135.28C284.121 127.24 265.352 120.722 242.199 120.722C219.046 120.722 200.277 127.24 200.277 135.28C200.277 143.321 219.046 149.839 242.199 149.839Z" fill="white"/>
<path d="M285.244 131.827C285.244 139.867 266.476 146.385 243.323 146.385C220.17 146.385 201.402 139.867 201.402 131.827C201.402 130.579 200.893 127.196 201.744 126.041C206.373 119.749 223.763 117.269 243.323 117.269C262.567 117.269 279.744 119.365 284.67 125.502C285.67 126.748 285.244 130.47 285.244 131.827Z" fill="#D2161D"/>
<path opacity="0.8" d="M285.244 131.827C285.244 139.867 266.476 146.385 243.323 146.385C220.17 146.385 201.402 139.867 201.402 131.827C201.402 130.579 200.893 127.196 201.744 126.041C206.373 119.749 223.763 117.269 243.323 117.269C262.567 117.269 279.744 119.365 284.67 125.502C285.67 126.748 285.244 130.47 285.244 131.827Z" fill="white"/>
<path d="M243.323 142.468C266.476 142.468 285.245 135.95 285.245 127.91C285.245 119.869 266.476 113.351 243.323 113.351C220.17 113.351 201.401 119.869 201.401 127.91C201.401 135.95 220.17 142.468 243.323 142.468Z" fill="#D2161D"/>
<path opacity="0.4" d="M243.323 142.468C266.476 142.468 285.245 135.95 285.245 127.91C285.245 119.869 266.476 113.351 243.323 113.351C220.17 113.351 201.401 119.869 201.401 127.91C201.401 135.95 220.17 142.468 243.323 142.468Z" fill="white"/>
<path opacity="0.2" d="M199.169 123.607C198.708 124.126 199.242 138.264 231.266 140.88C263.291 143.495 284.211 132.411 283.011 125.12L199.169 123.607Z" fill="black"/>
<path d="M282.861 124.431C282.861 132.472 264.092 138.99 240.939 138.99C217.786 138.99 199.018 132.472 199.018 124.431C199.018 123.183 198.51 119.801 199.361 118.645C203.99 112.354 221.38 109.873 240.939 109.873C260.184 109.873 277.361 111.969 282.287 118.106C283.287 119.353 282.861 123.074 282.861 124.431Z" fill="#D2161D"/>
<path opacity="0.8" d="M282.861 124.431C282.861 132.472 264.092 138.99 240.939 138.99C217.786 138.99 199.018 132.472 199.018 124.431C199.018 123.183 198.51 119.801 199.361 118.645C203.99 112.354 221.38 109.873 240.939 109.873C260.184 109.873 277.361 111.969 282.287 118.106C283.287 119.353 282.861 123.074 282.861 124.431Z" fill="white"/>
<path d="M240.94 135.072C264.093 135.072 282.862 128.554 282.862 120.514C282.862 112.473 264.093 105.955 240.94 105.955C217.787 105.955 199.018 112.473 199.018 120.514C199.018 128.554 217.787 135.072 240.94 135.072Z" fill="#D2161D"/>
<path opacity="0.4" d="M240.94 135.072C264.093 135.072 282.862 128.554 282.862 120.514C282.862 112.473 264.093 105.955 240.94 105.955C217.787 105.955 199.018 112.473 199.018 120.514C199.018 128.554 217.787 135.072 240.94 135.072Z" fill="white"/>
<path opacity="0.2" d="M202.594 114.48C202.133 114.999 199.241 127.601 231.266 130.217C263.29 132.832 281.751 125.536 282.861 120.514L202.594 114.48Z" fill="black"/>
<path d="M286.438 114.48C286.438 122.521 267.669 129.039 244.517 129.039C221.364 129.039 202.595 122.521 202.595 114.48C202.595 113.232 202.087 109.849 202.938 108.693C207.567 102.402 224.957 99.9213 244.517 99.9213C263.761 99.9213 280.938 102.017 285.864 108.154C286.864 109.401 286.438 113.122 286.438 114.479L286.438 114.48Z" fill="#D2161D"/>
<path opacity="0.8" d="M286.438 114.48C286.438 122.521 267.669 129.039 244.517 129.039C221.364 129.039 202.595 122.521 202.595 114.48C202.595 113.232 202.087 109.849 202.938 108.693C207.567 102.402 224.957 99.9213 244.517 99.9213C263.761 99.9213 280.938 102.017 285.864 108.154C286.864 109.401 286.438 113.122 286.438 114.479L286.438 114.48Z" fill="white"/>
<path d="M244.516 125.121C267.669 125.121 286.438 118.603 286.438 110.562C286.438 102.522 267.669 96.0036 244.516 96.0036C221.363 96.0036 202.594 102.522 202.594 110.562C202.594 118.603 221.363 125.121 244.516 125.121Z" fill="#D2161D"/>
<path opacity="0.4" d="M244.516 125.121C267.669 125.121 286.438 118.603 286.438 110.562C286.438 102.522 267.669 96.0036 244.516 96.0036C221.363 96.0036 202.594 102.522 202.594 110.562C202.594 118.603 221.363 125.121 244.516 125.121Z" fill="white"/>
<g opacity="0.7">
<path d="M281.538 115.362C279.524 113.144 276.804 111.694 274.039 110.541C273.294 110.231 272.521 109.926 271.934 109.371C271.347 108.816 270.985 107.937 271.278 107.185C272.076 105.132 275.799 106.612 277.112 104.844C277.675 104.088 277.518 102.976 276.986 102.198C276.453 101.42 275.622 100.906 274.803 100.439C265.319 95.0367 254.517 93.7432 243.755 95.5706C238.856 96.2079 233.889 95.5025 228.949 95.5643C224.008 95.6261 218.769 96.6094 215.16 99.9831C216.083 100.359 217.039 100.757 217.707 101.497C218.375 102.236 218.66 103.423 218.086 104.237C217.616 104.901 216.749 105.127 215.952 105.292C213.169 105.866 210.309 106.278 207.739 107.493C205.17 108.708 202.873 110.916 202.412 113.72C201.951 116.525 203.955 119.743 206.795 119.854C209.002 119.941 210.846 118.325 212.721 117.158C216.683 114.694 221.734 114.058 226.183 115.464C230.632 116.87 234.401 120.292 236.228 124.586C237.321 127.154 237.768 130.035 239.379 132.315C240.99 134.594 244.469 135.966 246.576 134.134C248.162 132.756 248.199 130.32 249.243 128.497C251.056 125.328 255.293 124.737 258.936 124.499C263.323 124.212 267.956 123.972 271.876 125.962C273.794 126.936 275.538 128.44 277.676 128.682C280.653 129.018 283.485 126.544 284.128 123.617C284.77 120.69 283.552 117.581 281.538 115.363L281.538 115.362Z" fill="#D2161D"/>
</g>
<g opacity="0.7">
<path d="M277.654 139.516C277.12 138.135 275.457 137.275 274.043 137.712C274.131 136.866 273.549 136.058 272.804 135.647C272.059 135.236 271.18 135.152 270.329 135.137C267.591 135.087 262.912 135.917 260.438 137.089L260.544 137.064C258.019 137.872 255.526 140.012 253.783 142.012C257.682 141.789 261.765 140.914 265.664 140.692C267.207 140.604 268.877 140.548 270.154 141.418C270.91 141.931 271.442 142.719 272.18 143.259C273.374 144.133 275.114 144.228 276.351 143.414C277.589 142.601 278.187 140.899 277.652 139.518L277.654 139.516Z" fill="#D2161D"/>
</g>
<path opacity="0.2" d="M232.439 109.873C232.439 109.873 242.776 118.48 245.404 117.839C248.032 117.199 257.062 110.525 257.062 110.525L232.439 109.873Z" fill="black"/>
<path d="M243.843 101.445L231.621 106.718V109.438L243.112 115.545L257.062 110.526L257.41 107.226L243.843 101.445Z" fill="#D2161D"/>
<path opacity="0.7" d="M243.843 101.445L231.621 106.718V109.438L243.112 115.545L257.062 110.526L257.41 107.226L243.843 101.445Z" fill="white"/>
<path opacity="0.4" d="M231.621 106.718L242.689 112.37L243.112 115.545L231.621 109.438V106.718Z" fill="white"/>
<path opacity="0.8" d="M242.689 112.37C242.689 112.37 247.092 110.848 250.155 110.171C253.218 109.495 257.41 107.226 257.41 107.226L257.062 110.526L243.113 115.545L242.689 112.37Z" fill="white"/>
<g opacity="0.2">
<path d="M226.183 115.448C221.734 114.042 216.683 114.678 212.721 117.143C210.845 118.309 209.002 119.926 206.795 119.839C206.125 119.812 205.504 119.609 204.948 119.283C205.543 119.568 207.382 122.377 210.704 120.499C214.025 118.62 218.324 114.643 223.436 115.529C228.517 116.41 234.144 121.079 234.213 121.136C232.189 118.49 229.362 116.453 226.183 115.448Z" fill="black"/>
<path d="M258.936 124.482C255.293 124.721 251.055 125.312 249.243 128.48C248.199 130.304 248.162 132.74 246.576 134.118C246.046 134.578 245.429 134.835 244.777 134.927C244.759 135.045 244.75 135.118 244.75 135.118C244.75 135.118 246.797 135.559 248.458 133.566C250.119 131.573 251.357 128.031 253.783 126.923C256.208 125.816 263.183 124.415 263.183 124.415C263.183 124.415 263.012 124.37 262.713 124.3C261.449 124.324 260.183 124.4 258.937 124.482L258.936 124.482Z" fill="black"/>
</g>
<g opacity="0.1">
<path d="M216.667 106.845C214.53 107.19 212.38 107.537 210.34 108.26C208.3 108.982 206.354 110.108 204.979 111.779C204.343 112.552 203.833 113.669 204.368 114.515C204.9 115.354 206.123 115.378 207.081 115.112C209.043 114.567 210.687 113.263 212.441 112.23C216.773 109.679 222.035 108.749 226.979 109.658C227.538 109.761 228.192 109.862 228.61 109.477C229.162 108.969 228.875 108.076 228.831 107.327C228.756 106.049 229.554 104.846 230.589 104.091C231.623 103.337 232.873 102.949 234.097 102.574C237.533 101.522 240.968 100.47 244.403 99.4176C240.666 98.7186 236.895 98.1941 233.109 97.8462C229.568 97.5209 225.917 97.3614 222.533 98.4551C221.558 98.7709 220.472 99.3729 220.381 100.395C220.292 101.394 221.215 102.19 221.462 103.163C221.744 104.268 220.91 105.001 219.964 105.638C219.019 106.275 217.798 106.717 216.666 106.845" fill="white"/>
</g>
<g opacity="0.1">
<path d="M245.496 122.113C244.608 121.022 241.973 120.207 240.765 122.181C240.395 123.196 240.226 124.582 240.214 125.662C240.202 126.743 240.621 127.891 241.532 128.472C242.378 129.011 243.525 128.956 244.395 128.457C245.266 127.958 245.87 127.068 246.164 126.109C246.576 124.765 246.385 123.203 245.496 122.113Z" fill="white"/>
</g>
<path opacity="0.7" d="M204.948 137.694C204.948 137.694 200.35 140.718 199.169 146.385C199.169 146.385 193.279 146.095 191.956 149.46C189.158 156.567 202.041 154.347 206.417 154.569C210.791 154.79 213.604 149.839 213.604 149.839C213.604 149.839 212.336 143.994 212.484 141.687C212.632 139.378 208.451 136.687 204.948 137.694Z" fill="#D2161D"/>
<path d="M182.394 137.413C183.654 136.984 184.978 136.78 186.294 136.578C184.261 136.122 182.34 135.17 180.745 133.829C183.168 133.139 185.87 133.495 188.031 134.789C186.519 132.82 185.415 130.539 184.809 128.132C187.325 128.958 189.39 131.043 190.195 133.565C190.483 131.248 190.772 128.931 191.06 126.614C191.093 126.347 191.15 126.042 191.383 125.906C191.687 125.729 192.064 125.962 192.314 126.209C193.737 127.613 194.212 129.762 194.025 131.752C193.838 133.742 193.071 135.625 192.314 137.474L190.275 138.94C186.889 140.83 182.62 141.051 179.056 139.521C179.927 138.515 181.133 137.842 182.393 137.413H182.394Z" fill="#263238"/>
<path d="M184.978 150.08C184.025 148 184.142 145.524 185.002 143.403C185.861 141.282 187.735 138.858 190.702 137.787C190.598 137.969 193.634 131.837 197.723 131.003C201.2 130.294 205.988 132.309 208.223 135.067C209.95 137.199 210.707 139.959 211.069 142.678C211.432 145.398 211.446 148.16 211.906 150.865C212.252 152.896 212.794 155.189 211.588 156.859C210.958 157.733 209.932 158.26 208.878 158.482C207.824 158.704 206.732 158.65 205.658 158.556C201.659 158.202 197.724 157.291 193.883 156.123C192.112 155.585 190.342 154.984 188.752 154.036C187.162 153.088 185.749 151.761 184.978 150.079V150.08Z" fill="#D2161D"/>
<g opacity="0.2">
<path d="M184.978 150.08C184.025 148 184.142 145.524 185.002 143.403C185.861 141.282 187.735 138.858 190.702 137.787C190.598 137.969 193.634 131.837 197.723 131.003C201.2 130.294 205.988 132.309 208.223 135.067C209.95 137.199 210.707 139.959 211.069 142.678C211.432 145.398 211.446 148.16 211.906 150.865C212.252 152.896 212.794 155.189 211.588 156.859C210.958 157.733 209.932 158.26 208.878 158.482C207.824 158.704 206.732 158.65 205.658 158.556C201.659 158.202 197.724 157.291 193.883 156.123C192.112 155.585 190.342 154.984 188.752 154.036C187.162 153.088 185.749 151.761 184.978 150.079V150.08Z" fill="black"/>
</g>
<g opacity="0.3">
<path d="M206.083 158.065C206.899 158.134 207.844 158.143 208.385 157.527C208.756 157.105 209.05 154.93 209.071 154.369C209.3 148.278 206.187 142.594 202.848 137.494C201.947 136.119 201.01 134.744 199.79 133.641C198.711 132.664 197.378 131.91 195.947 131.707C196.509 131.378 197.104 131.129 197.722 131.003C201.2 130.294 205.987 132.309 208.222 135.067C209.949 137.199 210.706 139.959 211.069 142.678C211.432 145.398 211.446 148.16 211.906 150.865C212.251 152.896 212.793 155.189 211.588 156.859C210.957 157.733 209.932 158.26 208.877 158.482C207.823 158.704 206.731 158.65 205.658 158.556C201.658 158.202 197.724 157.291 193.882 156.123C192.111 155.585 190.341 154.984 188.752 154.036C188.534 153.906 188.319 153.768 188.109 153.624C191.991 155.507 199.958 157.547 206.081 158.064L206.083 158.065Z" fill="white"/>
</g>
<path d="M202.146 150.824L202.249 150.579C202.582 150.666 202.883 150.872 203.085 151.15C203.17 151.268 203.239 151.403 203.25 151.548C203.26 151.693 203.201 151.849 203.078 151.925C202.959 151.999 202.802 151.987 202.678 151.922C202.555 151.857 202.461 151.746 202.387 151.629C202.236 151.389 202.151 151.108 202.146 150.824Z" fill="white"/>
<path d="M206.92 154.996L207.023 154.751C207.356 154.838 207.657 155.043 207.859 155.322C207.944 155.44 208.014 155.575 208.024 155.72C208.034 155.865 207.976 156.02 207.852 156.097C207.734 156.171 207.576 156.159 207.453 156.094C207.329 156.029 207.236 155.918 207.161 155.8C207.01 155.561 206.926 155.28 206.92 154.996Z" fill="white"/>
<path d="M208.368 149.537L208.472 149.292C208.805 149.379 209.106 149.584 209.308 149.863C209.393 149.981 209.462 150.116 209.473 150.261C209.483 150.406 209.424 150.562 209.301 150.638C209.182 150.712 209.025 150.7 208.901 150.635C208.777 150.57 208.684 150.459 208.61 150.341C208.458 150.102 208.374 149.821 208.368 149.537H208.368Z" fill="white"/>
<path d="M204.07 145.86L204.174 145.614C204.506 145.701 204.808 145.907 205.01 146.186C205.095 146.303 205.164 146.438 205.175 146.583C205.185 146.728 205.126 146.885 205.003 146.961C204.884 147.035 204.726 147.023 204.603 146.958C204.479 146.893 204.386 146.782 204.312 146.664C204.16 146.424 204.076 146.143 204.07 145.86Z" fill="white"/>
<path d="M207.804 141.704L207.907 141.458C208.24 141.545 208.541 141.751 208.743 142.03C208.828 142.147 208.898 142.282 208.908 142.427C208.918 142.572 208.86 142.728 208.736 142.805C208.617 142.879 208.46 142.867 208.336 142.802C208.213 142.737 208.12 142.626 208.045 142.508C207.894 142.268 207.809 141.987 207.804 141.704Z" fill="white"/>
<path d="M195.643 150.427L195.746 150.181C196.079 150.268 196.381 150.474 196.582 150.752C196.667 150.87 196.737 151.005 196.747 151.15C196.758 151.295 196.699 151.452 196.575 151.528C196.457 151.602 196.299 151.59 196.176 151.525C196.052 151.46 195.959 151.349 195.884 151.231C195.733 150.991 195.649 150.71 195.643 150.427Z" fill="white"/>
<path d="M193.135 153.882L193.239 153.637C193.571 153.724 193.873 153.929 194.074 154.208C194.16 154.326 194.23 154.461 194.24 154.606C194.25 154.751 194.191 154.906 194.068 154.983C193.949 155.057 193.791 155.045 193.668 154.98C193.544 154.915 193.451 154.804 193.377 154.686C193.225 154.447 193.141 154.165 193.135 153.882Z" fill="white"/>
<path d="M199.31 155.276L199.286 155.01C199.62 154.93 199.983 154.97 200.292 155.121C200.423 155.184 200.548 155.271 200.625 155.394C200.703 155.517 200.724 155.682 200.652 155.808C200.582 155.928 200.437 155.993 200.297 155.993C200.158 155.994 200.023 155.94 199.902 155.872C199.656 155.731 199.448 155.523 199.31 155.276Z" fill="white"/>
<path d="M202.436 140.602L202.539 140.357C202.872 140.444 203.173 140.649 203.375 140.928C203.46 141.046 203.53 141.18 203.54 141.325C203.55 141.47 203.491 141.626 203.368 141.703C203.249 141.777 203.092 141.765 202.968 141.7C202.845 141.635 202.751 141.524 202.677 141.406C202.526 141.167 202.441 140.885 202.436 140.602Z" fill="white"/>
<path d="M204.003 135.367L204.106 135.122C204.439 135.209 204.74 135.415 204.942 135.693C205.027 135.811 205.097 135.946 205.107 136.091C205.117 136.236 205.059 136.392 204.935 136.469C204.817 136.542 204.659 136.53 204.536 136.465C204.412 136.401 204.319 136.29 204.244 136.172C204.093 135.932 204.009 135.65 204.003 135.367Z" fill="white"/>
<path d="M198.537 145.8L198.64 145.555C198.973 145.642 199.275 145.848 199.476 146.126C199.561 146.244 199.631 146.379 199.641 146.524C199.652 146.669 199.593 146.825 199.469 146.902C199.351 146.975 199.193 146.963 199.07 146.898C198.946 146.834 198.853 146.723 198.779 146.605C198.627 146.365 198.543 146.084 198.537 145.8Z" fill="white"/>
<path d="M193.067 145.524L193.171 145.279C193.504 145.366 193.805 145.572 194.007 145.85C194.092 145.968 194.161 146.103 194.172 146.248C194.182 146.393 194.123 146.549 194 146.625C193.881 146.699 193.724 146.687 193.6 146.622C193.477 146.557 193.383 146.446 193.309 146.329C193.158 146.089 193.073 145.807 193.067 145.524Z" fill="white"/>
<path d="M188.798 150.918L188.901 150.673C189.234 150.76 189.535 150.965 189.737 151.244C189.822 151.362 189.892 151.497 189.902 151.642C189.912 151.787 189.854 151.943 189.73 152.019C189.612 152.093 189.454 152.081 189.331 152.016C189.207 151.951 189.114 151.84 189.039 151.723C188.888 151.483 188.804 151.202 188.798 150.918Z" fill="white"/>
<path d="M197.415 138.498L197.471 138.238C197.814 138.261 198.148 138.407 198.399 138.643C198.504 138.742 198.598 138.862 198.635 139.003C198.672 139.143 198.644 139.308 198.537 139.406C198.434 139.501 198.277 139.518 198.143 139.478C198.01 139.438 197.897 139.346 197.802 139.244C197.609 139.037 197.473 138.776 197.415 138.499V138.498Z" fill="white"/>
<path d="M192.154 140.132L192.21 139.872C192.553 139.895 192.888 140.041 193.138 140.277C193.244 140.376 193.337 140.496 193.374 140.636C193.411 140.776 193.383 140.94 193.276 141.039C193.173 141.134 193.016 141.152 192.883 141.111C192.749 141.071 192.637 140.979 192.541 140.877C192.348 140.67 192.212 140.41 192.154 140.132Z" fill="white"/>
<path d="M187.39 144.637L187.446 144.376C187.789 144.4 188.123 144.545 188.374 144.781C188.48 144.881 188.573 145 188.61 145.141C188.647 145.282 188.619 145.445 188.512 145.544C188.409 145.639 188.252 145.657 188.118 145.616C187.985 145.575 187.873 145.485 187.777 145.382C187.584 145.175 187.448 144.915 187.39 144.637V144.637Z" fill="white"/>
<path d="M198.625 132.725L198.682 132.465C199.025 132.488 199.359 132.633 199.609 132.869C199.715 132.969 199.809 133.089 199.846 133.229C199.883 133.37 199.855 133.534 199.748 133.633C199.645 133.727 199.488 133.745 199.354 133.704C199.221 133.664 199.108 133.573 199.013 133.471C198.82 133.263 198.684 133.003 198.625 132.726V132.725Z" fill="white"/>
<path d="M126.041 213.342C165.998 213.342 198.388 201.96 198.388 187.92C198.388 173.88 165.998 162.498 126.041 162.498C86.0852 162.498 53.6943 173.88 53.6943 187.92C53.6943 201.96 86.0852 213.342 126.041 213.342Z" fill="#263238"/>
<path opacity="0.7" d="M126.041 213.342C165.998 213.342 198.388 201.96 198.388 187.92C198.388 173.88 165.998 162.498 126.041 162.498C86.0852 162.498 53.6943 173.88 53.6943 187.92C53.6943 201.96 86.0852 213.342 126.041 213.342Z" fill="white"/>
<path d="M126.359 210.394C167.732 210.394 201.272 199.012 201.272 184.972C201.272 170.932 167.732 159.55 126.359 159.55C84.9849 159.55 51.4448 170.932 51.4448 184.972C51.4448 199.012 84.9849 210.394 126.359 210.394Z" fill="#263238"/>
<path opacity="0.8" d="M126.359 210.394C167.732 210.394 201.272 199.012 201.272 184.972C201.272 170.932 167.732 159.55 126.359 159.55C84.9849 159.55 51.4448 170.932 51.4448 184.972C51.4448 199.012 84.9849 210.394 126.359 210.394Z" fill="white"/>
<path opacity="0.7" d="M63.3288 186.434C63.8148 176.562 83.8537 171.777 91.8328 170.081C103.162 167.774 114.75 166.93 126.297 166.87C137.845 166.929 149.432 167.774 160.762 170.08C168.778 171.778 188.789 176.581 189.266 186.433C189.054 181.907 184.745 179.094 181.15 177.114C157.388 165.622 117.675 165.733 91.9273 170.553C84.0037 172.16 63.8948 176.746 63.3281 186.433L63.3288 186.434Z" fill="black"/>
<path opacity="0.7" d="M189.265 185.594C188.711 194.643 167.658 198.904 160.283 200.274C134.891 204.606 100.222 204.458 75.7946 196.004C71.3103 194.196 63.6376 191.137 63.3281 185.594C63.712 191.091 71.454 194.016 75.8999 195.714C101.209 203.901 134.014 203.881 160.2 199.799C167.569 198.485 188.604 194.496 189.265 185.594Z" fill="white"/>
<g opacity="0.3">
<path d="M177.252 182.873C178.587 182.917 180.008 182.941 181.152 182.251C182.297 181.562 182.94 179.875 182.083 178.85C181.524 178.181 180.574 178.029 179.708 177.921L153.383 174.646L75.7538 180.305C73.9705 180.472 72.0757 180.683 70.6744 181.798C69.2725 182.913 68.7203 185.277 70.0497 186.477C70.6769 187.043 71.5512 187.223 72.3171 187.581C73.083 187.939 73.8287 188.661 73.6957 189.495C73.6175 189.985 73.2557 190.374 73.0389 190.82C72.2616 192.419 73.6075 194.391 75.293 194.955C76.9792 195.519 78.8161 195.102 80.5502 194.711C82.2843 194.319 84.1501 193.966 85.7954 194.639C87.9657 195.527 89.0953 197.912 90.946 199.353C93.9824 201.716 98.3388 201.151 102.014 200.011C105.689 198.872 109.442 197.254 113.237 197.891C115.789 198.32 118.049 199.73 120.281 201.038C122.513 202.346 124.898 203.611 127.484 203.697C130.07 203.781 132.887 202.32 133.514 199.81C133.714 199.009 133.694 198.131 134.121 197.425C134.952 196.047 136.928 196.056 138.518 196.306C141.527 196.78 144.495 197.515 147.378 198.499C148.618 198.922 150.028 199.381 151.18 198.758C152.332 198.134 152.298 195.902 150.989 195.873C159.95 196.614 169.05 195.651 177.657 193.049C180.289 192.254 183.369 190.637 183.304 187.888C183.239 185.071 179.967 183.634 177.253 182.873L177.252 182.873Z" fill="#D2161D"/>
</g>
<path d="M84.5642 192.884C84.5642 192.884 77.8774 191.714 77.8774 181.516C77.8774 171.318 104.625 157.109 104.625 157.109L148.425 163.128C148.425 163.128 177.513 177.17 178.349 180.346C179.185 183.523 177.513 190.376 165.309 192.884C153.106 195.392 84.5642 192.884 84.5642 192.884Z" fill="#D2161D"/>
<path opacity="0.5" d="M84.5642 192.884C84.5642 192.884 77.8774 191.714 77.8774 181.516C77.8774 171.318 104.625 157.109 104.625 157.109L148.425 163.128C148.425 163.128 177.513 177.17 178.349 180.346C179.185 183.523 177.513 190.376 165.309 192.884C153.106 195.392 84.5642 192.884 84.5642 192.884Z" fill="white"/>
<path opacity="0.3" d="M153.994 175.554C153.38 176.289 147.117 184.026 137.416 185.254C127.714 186.482 114.083 184.885 107.943 182.798C101.803 180.711 89.4137 173.902 83.7506 176.904C78.0881 179.906 78.9857 187.596 81.0735 189.93C83.1612 192.263 93.7543 192.561 104.555 192.936C115.616 193.322 135.522 192.599 143.065 186.974C150.82 181.191 153.995 175.554 153.995 175.554L153.994 175.554Z" fill="black"/>
<path opacity="0.3" d="M84.0418 191.474C83.0622 191.102 82.389 185.626 86.966 183.719C91.543 181.812 98.1542 183.954 103.875 185.743C109.596 187.533 128.667 188.821 136.296 186.016C136.296 186.016 119.603 187.447 107.417 181.896C95.23 176.344 92.8144 174.093 85.8081 176.038C78.8017 177.982 78.3308 184.735 79.2158 187.406C80.1008 190.075 84.0418 191.474 84.0418 191.474Z" fill="black"/>
<path opacity="0.3" d="M135.328 192.5C135.328 192.5 146.872 191.763 153.994 188.447C161.117 185.131 170.985 178.701 174.38 179.114C177.774 179.527 177.891 184.617 174.38 187.897C170.869 191.176 166.657 191.517 163.45 192.5C160.244 193.482 135.328 192.5 135.328 192.5Z" fill="black"/>
<path d="M175.481 177.557C173.76 177.089 172.118 177.624 170.525 178.277C168.885 178.949 167.269 179.676 165.667 180.434C162.384 181.986 159.157 183.657 155.848 185.155C149.241 188.146 142.237 190.122 135.091 191.311C133.388 191.594 131.675 191.802 129.964 192.029C128.754 192.189 128.661 194.036 129.964 193.994C138.606 193.719 147.249 194.201 155.892 194.118C163.332 194.046 173.548 194.233 177.698 186.664C179.343 183.661 179.243 178.878 175.482 177.556C174.287 177.136 173.772 179.033 174.959 179.451C176.199 179.886 176.721 181.252 176.781 182.472C176.854 183.949 176.325 185.284 175.497 186.489C173.481 189.422 169.951 190.874 166.571 191.498C162.722 192.208 158.685 192.145 154.782 192.16C150.826 192.176 146.87 192.091 142.914 192.026C138.598 191.954 134.279 191.892 129.964 192.029V193.994C134.68 193.369 139.355 192.641 143.965 191.431C147.405 190.528 150.788 189.412 154.073 188.051C157.366 186.686 160.556 185.098 163.757 183.531C165.594 182.633 167.436 181.743 169.307 180.915C170.969 180.18 173.091 178.943 174.959 179.451C176.18 179.783 176.702 177.888 175.481 177.556V177.557Z" fill="#D2161D"/>
<path d="M146.557 179.927C139.013 184.777 129.553 185.169 120.871 184.254C116.427 183.786 112.127 182.723 107.976 181.069C103.905 179.447 99.9816 177.461 95.7898 176.151C91.7574 174.891 87.0732 173.793 83.1915 176.079C80.0561 177.926 77.8442 181.644 78.31 185.334C78.7803 189.058 81.9428 192.65 85.7425 193.06C90.7702 193.602 95.8351 193.965 100.881 194.297C111.967 195.025 123.092 195.092 134.104 193.445C135.35 193.258 134.821 191.365 133.581 191.55C124.151 192.961 114.588 193.057 105.08 192.576C100.341 192.337 95.6095 191.961 90.8825 191.551C89.7037 191.448 88.5249 191.343 87.3468 191.238C86.2928 191.144 85.1985 191.137 84.2303 190.662C82.6746 189.899 81.3149 188.278 80.6688 186.69C79.3073 183.342 81.2084 179.527 84.1824 177.775C87.8839 175.595 92.6399 177.131 96.3899 178.412C100.35 179.764 104.09 181.66 107.986 183.173C111.872 184.683 115.884 185.626 120.019 186.122C129.267 187.232 139.5 186.796 147.548 181.623C148.608 180.941 147.624 179.239 146.556 179.926L146.557 179.927Z" fill="#D2161D"/>
<path d="M151.569 175.456C150.045 176.808 148.521 178.16 146.997 179.513C146.784 179.702 146.571 179.892 146.358 180.081C145.991 180.406 145.998 181.006 146.281 181.371C146.566 181.74 147.135 181.894 147.548 181.624C149.571 180.302 151.424 178.716 152.958 176.846C153.283 176.449 153.375 175.839 152.958 175.457C152.597 175.126 151.917 175.032 151.569 175.457C150.838 176.348 150.037 177.179 149.174 177.943C148.97 178.123 148.764 178.3 148.554 178.473C148.437 178.569 148.32 178.664 148.201 178.758C148.153 178.796 148.106 178.833 148.058 178.87C148.194 178.763 148.031 178.89 148.005 178.91C147.535 179.267 147.051 179.604 146.557 179.928C146.953 180.442 147.35 180.956 147.748 181.471C149.271 180.119 150.795 178.767 152.319 177.414C152.532 177.225 152.746 177.035 152.959 176.846C153.344 176.504 153.334 175.801 152.959 175.457C152.547 175.079 151.98 175.092 151.569 175.457L151.569 175.456Z" fill="#D2161D"/>
<path opacity="0.8" d="M175.739 177.669C175.663 177.623 175.579 177.583 175.481 177.557C175.388 177.524 175.301 177.51 175.218 177.503C173.592 177.155 172.036 177.658 170.524 178.277C168.884 178.948 167.268 179.676 165.666 180.434C162.384 181.986 159.157 183.657 155.848 185.155C149.241 188.146 142.237 190.122 135.09 191.311C133.439 191.586 131.777 191.79 130.117 192.009C121.813 192.975 113.426 192.998 105.081 192.576C100.342 192.337 95.6101 191.961 90.8831 191.551C89.7043 191.448 88.5256 191.343 87.3474 191.238C86.2935 191.144 85.1992 191.137 84.231 190.662C82.6752 189.899 81.3156 188.278 80.6694 186.69C79.3079 183.342 81.209 179.527 84.183 177.775C87.8845 175.595 92.6405 177.131 96.3905 178.412C100.35 179.764 104.091 181.66 107.987 183.173C111.873 184.683 115.884 185.626 120.019 186.122C129.268 187.232 139.501 186.796 147.548 181.623C149.57 180.301 151.424 178.715 152.958 176.845C153.185 176.643 153.271 176.316 153.23 176.011C153.211 175.808 153.129 175.612 152.958 175.455C152.778 175.29 152.567 175.204 152.353 175.185C152.064 175.147 151.764 175.217 151.569 175.455C150.045 176.807 148.521 178.16 146.997 179.512C146.824 179.666 146.651 179.82 146.478 179.974C138.947 184.776 129.523 185.165 120.871 184.253C116.427 183.785 112.127 182.723 107.976 181.069C103.905 179.447 99.9816 177.461 95.7898 176.151C91.7574 174.891 87.0732 173.793 83.1915 176.079C80.0561 177.926 77.8442 181.644 78.31 185.334C78.7803 189.058 81.9428 192.65 85.7425 193.06C90.7702 193.602 95.8351 193.965 100.881 194.297C110.558 194.933 120.267 195.064 129.904 193.992C129.925 193.992 129.942 193.996 129.964 193.995C138.605 193.72 147.249 194.202 155.892 194.119C163.332 194.047 173.548 194.234 177.697 186.665C179.303 183.736 179.237 179.12 175.739 177.669L175.739 177.669ZM175.496 186.49C173.48 189.423 169.95 190.875 166.57 191.499C162.721 192.209 158.684 192.145 154.781 192.161C150.825 192.177 146.869 192.092 142.913 192.026C142.475 192.019 142.037 192.013 141.599 192.006C142.389 191.826 143.178 191.638 143.965 191.432C147.404 190.529 150.788 189.413 154.072 188.052C157.365 186.687 160.556 185.099 163.756 183.532C165.593 182.633 167.435 181.743 169.306 180.916C170.968 180.181 173.09 178.944 174.958 179.451C176.198 179.887 176.72 181.253 176.78 182.473C176.852 183.95 176.324 185.285 175.496 186.49Z" fill="white"/>
<g opacity="0.6">
<path d="M164.094 176.821C163.71 176.492 163.422 175.92 163.691 175.493C163.944 175.09 164.512 175.07 164.986 175.095C167.259 175.215 169.532 175.335 171.805 175.455C168.168 172.302 163.859 169.927 159.252 168.533L128.411 179.081C128.686 180.73 129.743 182.231 131.203 183.047C132.663 183.862 134.495 183.975 136.045 183.345C138.133 182.495 139.819 180.375 142.069 180.516C143.427 180.602 144.574 181.524 145.559 182.462C146.543 183.401 147.524 184.436 148.818 184.856C150.112 185.275 151.823 184.789 152.212 183.485C152.354 183.007 152.302 182.491 152.403 182.002C152.67 180.704 153.99 179.836 155.304 179.665C156.618 179.493 157.936 179.867 159.208 180.237C160.481 180.607 161.799 180.98 163.113 180.809C163.85 180.713 164.594 180.423 165.071 179.851C165.547 179.28 165.684 178.393 165.255 177.785C164.963 177.372 164.477 177.15 164.093 176.821H164.094Z" fill="#D2161D"/>
</g>
<path opacity="0.3" d="M81.0732 174.543C81.0732 174.543 92.4278 174.248 100.714 176.475C109 178.703 127.974 181.282 140.593 180.269C153.211 179.256 164.29 171.193 164.472 171.291C164.653 171.388 151.277 164.98 151.277 164.98C151.277 164.98 84.4084 171.427 84.0403 171.427C83.6722 171.427 81.0732 174.543 81.0732 174.543Z" fill="black"/>
<path d="M79.227 172.876C78.6981 172.876 96.2787 150.976 111.158 147.8C126.036 144.623 162.982 157.663 164.486 162.177C165.991 166.691 164.653 172.82 152.283 175.44C139.912 178.059 122.798 177.207 111.764 176.037C100.73 174.867 85.5797 172.876 79.227 172.876Z" fill="#D2161D"/>
<path opacity="0.5" d="M79.227 172.876C78.6981 172.876 96.2787 150.976 111.158 147.8C126.036 144.623 162.982 157.663 164.486 162.177C165.991 166.691 164.653 172.82 152.283 175.44C139.912 178.059 122.798 177.207 111.764 176.037C100.73 174.867 85.5797 172.876 79.227 172.876Z" fill="white"/>
<path opacity="0.3" d="M128.205 177.389C128.205 177.389 138.049 176.227 143.745 169.867C149.44 163.506 159.593 156.552 163.392 162.841C166.401 167.824 157.62 172.207 150.432 174.213C143.243 176.219 128.205 177.389 128.205 177.389Z" fill="black"/>
<path opacity="0.3" d="M132.773 176.457C132.773 176.457 138.477 176.541 144.768 173.437C151.059 170.334 150.808 167.398 156.511 165.469C162.214 163.539 163.305 165.636 163.473 165.469C163.64 165.301 165.585 161.644 161.258 160.369C156.93 159.094 152.235 162.394 149.298 164.225C146.361 166.056 142.335 172.096 138.56 173.689C134.786 175.283 132.773 176.457 132.773 176.457Z" fill="black"/>
<path d="M79.7358 173.72C85.8445 172.923 92.0768 173.746 98.1383 174.572C103.928 175.36 109.668 176.487 115.46 177.239C121.038 177.964 126.769 177.989 132.253 176.608C135.095 175.893 137.869 174.783 140.353 173.219C142.707 171.736 144.744 169.829 146.747 167.916C148.682 166.068 150.617 164.177 152.895 162.752C154.933 161.478 157.46 160.408 159.909 160.957C162.563 161.551 163.54 164.127 162.711 166.581C161.792 169.304 158.954 170.934 156.51 172.09C153.633 173.451 150.525 174.284 147.414 174.906C144.58 175.474 141.721 175.884 138.837 176.091C133.13 176.5 127.389 176.251 121.697 175.733C111.306 174.785 101.064 172.619 90.6749 171.715C89.7174 171.632 88.758 171.567 87.7974 171.528C86.5329 171.476 86.5354 173.441 87.7974 173.492C92.4261 173.681 97.0277 174.4 101.604 175.075C107.262 175.91 112.918 176.772 118.604 177.388C124.577 178.035 130.599 178.434 136.608 178.181C142.68 177.926 148.986 177.06 154.709 174.954C157.514 173.921 160.449 172.577 162.553 170.39C164.453 168.416 165.579 165.5 164.668 162.794C163.817 160.263 161.418 158.941 158.846 158.865C156.154 158.786 153.579 159.923 151.382 161.392C146.663 164.546 143.296 169.352 138.308 172.147C132.964 175.141 126.669 175.978 120.624 175.729C114.812 175.49 109.113 174.181 103.375 173.33C97.0686 172.396 90.6529 171.379 84.2617 171.448C82.747 171.464 81.236 171.557 79.7333 171.753C79.2031 171.823 78.7568 172.155 78.7505 172.736C78.7455 173.214 79.2069 173.787 79.7333 173.718L79.7358 173.72Z" fill="#D2161D"/>
<g opacity="0.6">
<path d="M114.662 147.024C116.379 146.735 118.128 146.695 119.858 146.897C128.895 147.945 137.807 150.062 146.35 153.189C147.242 153.516 148.274 154.023 148.277 155.032C148.279 155.551 147.968 156.032 147.531 156.312C146.675 156.862 145.674 156.749 144.721 156.64C142.914 156.433 141.104 156.258 139.291 156.114C138.745 156.071 138.121 156.059 137.742 156.453C137.201 157.016 137.554 157.969 138.071 158.554C138.715 159.281 139.623 159.91 139.411 161.039C139.264 161.82 138.592 162.392 137.814 162.555C135.517 163.037 133.781 161.101 131.522 161.26C130.878 161.305 130.244 161.577 129.842 162.082C128.956 163.193 129.645 164.55 130.567 165.37C131.556 166.249 132.843 166.782 133.508 168.018C133.789 168.54 133.875 169.174 133.654 169.724C133.15 170.977 131.572 170.989 130.426 170.53C129.21 170.044 128.155 169.163 127.458 168.054C126.907 167.174 126.582 166.171 126.065 165.271C125.251 163.853 123.762 162.594 121.747 163.825C121.022 164.268 120.451 164.924 120.028 165.661L116.954 171.016C116.462 171.872 115.839 172.827 114.741 172.744C113.97 172.685 113.36 172.09 113.104 171.36C112.625 169.99 113.176 168.65 113.46 167.309C113.749 165.946 113.689 164.304 112.245 163.611C111.393 163.202 110.383 163.353 109.577 163.847C107.653 165.027 107.171 167.252 105.809 168.836C104.792 170.019 102.898 170.749 101.69 169.761C100.993 169.192 100.75 168.196 100.902 167.309C101.054 166.422 101.543 165.628 102.1 164.922C102.71 164.147 103.433 163.412 103.541 162.375C103.59 161.895 103.452 161.392 103.103 161.057C102.451 160.43 101.573 160.707 100.822 160.989C98.4372 161.884 96.0519 162.78 93.6667 163.675C92.7741 164.01 91.8317 164.352 90.8799 164.063C90.3851 163.913 89.9463 163.566 89.7717 163.08C89.4584 162.21 90.068 161.494 90.6441 160.908C96.5701 154.885 102.073 150.517 110.074 147.799L114.662 147.024Z" fill="#D2161D"/>
</g>
<g opacity="0.2">
<path d="M126.63 150.425C126.264 149.71 125.386 149.451 124.597 149.302C120.063 148.447 115.385 148.91 110.836 149.671C107.954 150.154 104.969 150.811 102.702 152.654L101.678 153.601L96.3179 157.582C95.8104 157.958 95.2482 158.612 95.6094 159.13C95.8382 159.457 96.3046 159.484 96.7036 159.471C99.2333 159.389 101.753 158.994 104.187 158.3C104.676 158.16 105.179 158.007 105.685 158.06C106.191 158.113 106.709 158.433 106.82 158.929C107.006 159.759 106.044 160.691 106.55 161.375C106.807 161.722 107.312 161.757 107.74 161.699C109.811 161.417 111.562 159.72 113.653 159.755C114.422 159.767 115.164 160.017 115.911 160.198C116.659 160.378 117.462 160.486 118.184 160.222C118.907 159.958 119.504 159.217 119.37 158.46C119.234 157.693 118.42 157.084 118.551 156.317C118.661 155.668 119.376 155.34 119.996 155.12C121.335 154.642 122.676 154.165 124.015 153.687C124.763 153.42 125.535 153.139 126.107 152.587C126.678 152.035 126.992 151.133 126.63 150.427L126.63 150.425Z" fill="white"/>
</g>
<path d="M113.819 147.705C113.906 149.227 112.743 150.532 111.22 150.619C109.698 150.706 108.393 149.543 108.306 148.02C108.219 146.498 109.382 145.193 110.905 145.106C112.427 145.019 113.732 146.182 113.819 147.705Z" fill="#263238"/>
<path d="M110.918 143.976C110.155 144.291 110.258 145.066 110.258 145.066L109.42 144.062L109.707 145.259C108.721 144.725 108.22 145.157 108.22 145.157C108.977 145.239 109.357 146.109 109.391 146.168L111.001 145.414C110.812 144.733 110.919 143.975 110.919 143.975L110.918 143.976Z" fill="#263238"/>
<g opacity="0.3">
<path d="M109.592 146.563C109.163 147.609 109.079 148.229 109.2 149.353C108.134 148.752 108.405 146.848 109.592 146.563Z" fill="white"/>
</g>
<path d="M121.193 151.826C121.28 153.348 120.117 154.653 118.594 154.74C117.072 154.827 115.767 153.664 115.68 152.142C115.593 150.619 116.756 149.315 118.279 149.227C119.801 149.14 121.106 150.303 121.193 151.825V151.826Z" fill="#263238"/>
<path d="M118.293 148.097C117.529 148.412 117.632 149.187 117.632 149.187L116.794 148.183L117.081 149.38C116.095 148.846 115.594 149.279 115.594 149.279C116.351 149.361 116.731 150.23 116.764 150.289L118.375 149.535C118.186 148.854 118.292 148.097 118.292 148.097L118.293 148.097Z" fill="#263238"/>
<g opacity="0.3">
<path d="M116.967 150.684C116.538 151.73 116.454 152.35 116.575 153.474C115.509 152.874 115.78 150.969 116.967 150.684Z" fill="white"/>
</g>
<path opacity="0.3" d="M129.963 193.998C129.963 193.998 146.546 192.214 157.342 186.784C168.139 181.354 173.776 178.086 176.018 180.156C178.26 182.225 176.317 188.765 167.4 191.474C167.4 191.474 161.3 192.171 158.541 192.171C158.541 192.171 169.291 190.102 170.327 187.285C171.362 184.468 166.647 185.015 162.508 186.782C158.368 188.549 144.56 194.172 129.962 193.999L129.963 193.998Z" fill="black"/>
<path d="M107.386 151.056C107.386 153.131 105.704 154.813 103.629 154.813C101.555 154.813 99.873 153.131 99.873 151.056C99.873 148.982 101.555 147.3 103.629 147.3C105.704 147.3 107.386 148.982 107.386 151.056Z" fill="#263238"/>
<path d="M103.736 145.766C102.674 146.134 102.753 147.196 102.753 147.196L101.694 145.766L101.99 147.415C100.693 146.613 99.979 147.161 99.979 147.161C101 147.331 101.449 148.543 101.49 148.625L103.736 147.727C103.532 146.787 103.736 145.766 103.736 145.766Z" fill="#263238"/>
<g opacity="0.3">
<path d="M101.734 149.177C100.941 150.419 100.732 151.484 100.983 152.936C99.7583 151.952 100.228 149.617 101.734 149.177Z" fill="white"/>
</g>
<path d="M128.598 150.664C127.181 152.179 124.803 152.258 123.289 150.841C121.774 149.423 121.694 147.046 123.112 145.531C124.53 144.016 126.907 143.937 128.422 145.355C129.936 146.772 130.016 149.149 128.598 150.664Z" fill="#263238"/>
<path d="M129.548 144.307C128.522 143.85 127.854 144.68 127.854 144.68L128.057 142.912L127.147 144.318C126.748 142.847 125.852 142.759 125.852 142.759C126.481 143.581 125.981 144.772 125.955 144.86L128.209 145.739C128.701 144.913 129.549 144.307 129.549 144.307H129.548Z" fill="#263238"/>
<g opacity="0.3">
<path d="M125.755 145.43C124.327 145.795 123.447 146.43 122.639 147.662C122.417 146.107 124.355 144.722 125.755 145.43Z" fill="white"/>
</g>
<path d="M112.955 160.966C111.74 162.264 109.703 162.332 108.405 161.117C107.107 159.903 107.039 157.866 108.254 156.567C109.468 155.27 111.505 155.201 112.804 156.416C114.102 157.631 114.17 159.668 112.955 160.966Z" fill="#263238"/>
<path d="M113.769 155.519C112.889 155.128 112.317 155.838 112.317 155.838L112.491 154.323L111.711 155.528C111.369 154.267 110.601 154.192 110.601 154.192C111.14 154.896 110.712 155.918 110.69 155.993L112.621 156.745C113.044 156.038 113.769 155.519 113.769 155.519L113.769 155.519Z" fill="#263238"/>
<g opacity="0.3">
<path d="M110.519 156.481C109.294 156.871 108.615 157.361 107.848 158.394C107.584 157.038 109.321 155.798 110.519 156.481Z" fill="white"/>
</g>
<path d="M127.465 157.921C127.552 159.444 126.389 160.749 124.867 160.836C123.345 160.923 122.04 159.76 121.953 158.237C121.866 156.715 123.029 155.41 124.551 155.323C126.073 155.236 127.378 156.399 127.465 157.921Z" fill="#263238"/>
<path d="M124.565 154.193C123.801 154.507 123.904 155.283 123.904 155.283L123.067 154.279L123.353 155.476C122.368 154.942 121.867 155.374 121.867 155.374C122.623 155.456 123.004 156.326 123.037 156.385L124.647 155.631C124.458 154.95 124.565 154.192 124.565 154.192L124.565 154.193Z" fill="#263238"/>
<g opacity="0.3">
<path d="M123.24 156.78C122.811 157.826 122.727 158.446 122.847 159.57C121.782 158.969 122.053 157.065 123.24 156.78Z" fill="white"/>
</g>
<g opacity="0.6">
<path d="M138.824 165.335C137.444 163.943 135.254 163.421 133.394 164.041L133.002 164.358C132.787 165.059 133.017 165.84 133.45 166.432C133.883 167.025 134.496 167.459 135.118 167.847C135.881 168.324 136.718 168.762 137.618 168.767C138.517 168.773 139.479 168.213 139.644 167.328C139.781 166.593 139.351 165.866 138.824 165.335Z" fill="#D2161D"/>
</g>
<g opacity="0.8">
<path d="M79.7358 173.72C85.8445 172.923 92.0768 173.746 98.1383 174.572C103.928 175.36 109.668 176.487 115.46 177.239C121.038 177.964 126.769 177.989 132.253 176.608C135.095 175.893 137.869 174.783 140.353 173.219C142.707 171.736 144.744 169.829 146.747 167.916C148.682 166.068 150.617 164.177 152.895 162.752C154.933 161.478 157.46 160.408 159.909 160.957C162.563 161.551 163.54 164.127 162.711 166.581C161.792 169.304 158.954 170.934 156.51 172.09C153.633 173.451 150.525 174.284 147.414 174.906C144.58 175.474 141.721 175.884 138.837 176.091C133.13 176.5 127.389 176.251 121.697 175.733C111.306 174.785 101.064 172.619 90.6749 171.715C89.7174 171.632 88.758 171.567 87.7974 171.528C86.5329 171.476 86.5354 173.441 87.7974 173.492C92.4261 173.681 97.0277 174.4 101.604 175.075C107.262 175.91 112.918 176.772 118.604 177.388C124.577 178.035 130.599 178.434 136.608 178.181C142.68 177.926 148.986 177.06 154.709 174.954C157.514 173.921 160.449 172.577 162.553 170.39C164.453 168.416 165.579 165.5 164.668 162.794C163.817 160.263 161.418 158.941 158.846 158.865C156.154 158.786 153.579 159.923 151.382 161.392C146.663 164.546 143.296 169.352 138.308 172.147C132.964 175.141 126.669 175.978 120.624 175.729C114.812 175.49 109.113 174.181 103.375 173.33C97.0686 172.396 90.6529 171.379 84.2617 171.448C82.747 171.464 81.236 171.557 79.7333 171.753C79.2031 171.823 78.7568 172.155 78.7505 172.736C78.7455 173.214 79.2069 173.787 79.7333 173.718L79.7358 173.72Z" fill="white"/>
</g>
<path d="M79.4224 181.478C79.3764 181.478 79.3297 181.468 79.285 181.446C79.128 181.37 79.0631 181.182 79.1394 181.025C80.4953 178.23 83.2398 176.169 86.3021 175.646C86.4735 175.617 86.6362 175.732 86.6658 175.904C86.6954 176.075 86.5801 176.238 86.408 176.267C83.543 176.756 80.975 178.685 79.7061 181.299C79.6518 181.412 79.539 181.477 79.4224 181.477V181.478Z" fill="white"/>
<path d="M90.0691 173.421C90.0609 173.421 90.0527 173.421 90.0439 173.42C86.8221 173.167 83.5525 173.133 80.3251 173.319C80.1555 173.334 80.0023 173.197 79.9922 173.023C79.9822 172.849 80.1145 172.699 80.2885 172.69C83.5455 172.503 86.8436 172.536 90.093 172.792C90.2664 172.805 90.3962 172.957 90.3824 173.131C90.3691 173.296 90.2317 173.421 90.0691 173.421Z" fill="white"/>
<path d="M102.236 168.585C102.103 168.585 101.979 168.5 101.936 168.366C101.762 167.825 101.815 167.226 102.082 166.725C102.164 166.572 102.355 166.512 102.508 166.594C102.662 166.676 102.72 166.867 102.639 167.021C102.454 167.369 102.415 167.799 102.536 168.173C102.589 168.339 102.498 168.517 102.332 168.57C102.3 168.581 102.267 168.585 102.236 168.585Z" fill="white"/>
<path d="M91.0391 163.242C91.0271 163.242 91.0145 163.242 91.0025 163.24C90.8298 163.22 90.7056 163.063 90.7258 162.89C90.8292 161.996 91.5093 161.352 92.1964 160.768L99.6749 154.42C99.8086 154.306 100.006 154.323 100.119 154.456C100.232 154.589 100.216 154.787 100.083 154.9L92.6042 161.248C91.9877 161.772 91.428 162.297 91.3511 162.963C91.3328 163.124 91.1967 163.242 91.0391 163.242Z" fill="white"/>
<path d="M227.795 284.57C283.483 284.57 328.627 268.707 328.627 249.139C328.627 229.57 283.483 213.707 227.795 213.707C172.106 213.707 126.962 229.57 126.962 249.139C126.962 268.707 172.106 284.57 227.795 284.57Z" fill="#263238"/>
<path opacity="0.7" d="M227.795 284.57C283.483 284.57 328.627 268.707 328.627 249.139C328.627 229.57 283.483 213.707 227.795 213.707C172.106 213.707 126.962 229.57 126.962 249.139C126.962 268.707 172.106 284.57 227.795 284.57Z" fill="white"/>
<path d="M228.236 280.461C285.9 280.461 332.646 264.598 332.646 245.029C332.646 225.461 285.9 209.598 228.236 209.598C170.572 209.598 123.826 225.461 123.826 245.029C123.826 264.598 170.572 280.461 228.236 280.461Z" fill="#263238"/>
<path opacity="0.8" d="M228.236 280.461C285.9 280.461 332.646 264.598 332.646 245.029C332.646 225.461 285.9 209.598 228.236 209.598C170.572 209.598 123.826 225.461 123.826 245.029C123.826 264.598 170.572 280.461 228.236 280.461Z" fill="white"/>
<path opacity="0.7" d="M226.87 274.21C203.398 274.21 181.326 271.414 164.722 266.339C148.002 261.228 138.794 254.384 138.794 247.068C138.794 239.752 148.002 232.908 164.722 227.797C181.326 222.721 203.398 219.926 226.87 219.926C250.342 219.926 272.414 222.722 289.019 227.797C305.738 232.908 314.946 239.752 314.946 247.068C314.946 254.384 305.739 261.228 289.019 266.339C272.414 271.415 250.343 274.21 226.87 274.21ZM226.87 220.556C178.652 220.556 139.424 232.449 139.424 247.068C139.424 261.687 178.652 273.58 226.87 273.58C275.089 273.58 314.316 261.687 314.316 247.068C314.316 232.449 275.089 220.556 226.87 220.556Z" fill="black"/>
<path d="M146.178 236.242C146.178 236.242 180.853 199.277 191.227 199.237C207.938 199.173 240.771 233.495 240.771 233.495L146.178 236.242V236.242Z" fill="#D2161D"/>
<path opacity="0.3" d="M152.181 236.045C152.181 236.045 181.105 203.089 190.008 203.054C204.349 202.997 233.228 233.691 233.228 233.691L152.181 236.045Z" fill="white"/>
<g opacity="0.1">
<path d="M192.176 209.849C192.159 207.791 191.645 205.128 189.28 205.165C188.554 205.176 187.866 205.48 187.308 205.945C179.213 212.695 168.798 222.473 161.113 230.84C160.344 231.677 160.946 233.035 162.083 233.018C168.325 232.922 174.564 232.6 180.782 232.051C182.546 231.895 184.368 231.703 185.905 230.825C187.726 229.784 188.913 227.907 189.753 225.985C191.947 220.963 192.221 215.33 192.175 209.85L192.176 209.849Z" fill="white"/>
</g>
<path d="M176.475 227.94C177.535 227.94 178.394 227.081 178.394 226.021C178.394 224.96 177.535 224.101 176.475 224.101C175.415 224.101 174.555 224.96 174.555 226.021C174.555 227.081 175.415 227.94 176.475 227.94Z" fill="#D2161D"/>
<path d="M204.054 220.174C205.114 220.174 205.973 219.315 205.973 218.255C205.973 217.194 205.114 216.335 204.054 216.335C202.994 216.335 202.134 217.194 202.134 218.255C202.134 219.315 202.994 220.174 204.054 220.174Z" fill="#D2161D"/>
<path d="M182.044 230.318C182.327 230.318 182.557 230.089 182.557 229.805C182.557 229.522 182.327 229.292 182.044 229.292C181.76 229.292 181.531 229.522 181.531 229.805C181.531 230.089 181.76 230.318 182.044 230.318Z" fill="#D2161D"/>
<path d="M202.257 215.238C202.541 215.238 202.77 215.009 202.77 214.725C202.77 214.442 202.541 214.212 202.257 214.212C201.974 214.212 201.744 214.442 201.744 214.725C201.744 215.009 201.974 215.238 202.257 215.238Z" fill="#D2161D"/>
<path d="M179.893 221.771C180.531 221.665 181.136 222.096 181.243 222.734C181.349 223.373 180.918 223.978 180.279 224.085C179.641 224.191 179.036 223.76 178.93 223.121C178.823 222.482 179.254 221.878 179.893 221.771V221.771Z" fill="#D2161D"/>
<path d="M198.309 214.777C198.948 214.67 199.552 215.102 199.659 215.741C199.765 216.379 199.334 216.984 198.695 217.09C198.056 217.197 197.452 216.766 197.345 216.126C197.239 215.488 197.67 214.883 198.308 214.776L198.309 214.777Z" fill="#D2161D"/>
<path d="M284.606 239.325C283.152 235.383 278.053 235.791 275.243 233.205C272.789 230.947 272.75 227.131 271.277 224.14C269.087 219.694 263.894 217.506 258.964 217.001C254.034 216.495 249.054 217.29 244.108 216.987C238.139 216.621 232.397 214.672 226.55 213.42C220.702 212.168 214.396 211.653 208.914 214.042C203.479 216.41 199.561 221.312 194.43 224.283C191.88 225.76 189.058 226.741 186.576 228.329C184.095 229.918 181.886 232.33 181.586 235.261C181.286 238.192 183.64 241.425 186.577 241.184L188.054 241.221C188.962 241.244 189.871 241.189 190.771 241.083C196.45 240.416 198.458 242.115 200.83 244.104C203.367 246.232 205.755 248.918 209.016 249.491C211.7 249.963 214.507 248.878 217.157 249.514C220.249 250.256 222.376 253.135 225.317 254.343C228.738 255.748 232.684 254.669 235.978 252.988C239.271 251.306 242.285 249.028 245.792 247.853C256.191 244.366 267.902 251.346 278.358 248.036C281.058 247.181 283.653 245.559 284.617 242.703C284.985 241.61 285.007 240.408 284.608 239.326L284.606 239.325Z" fill="#D2161D"/>
<g opacity="0.5">
<path d="M284.606 239.325C283.152 235.383 278.053 235.791 275.243 233.205C272.789 230.947 272.75 227.131 271.277 224.14C269.087 219.694 263.894 217.506 258.964 217.001C254.034 216.495 249.054 217.29 244.108 216.987C238.139 216.621 232.397 214.672 226.55 213.42C220.702 212.168 214.396 211.653 208.914 214.042C203.479 216.41 199.561 221.312 194.43 224.283C191.88 225.76 189.058 226.741 186.576 228.329C184.095 229.918 181.886 232.33 181.586 235.261C181.286 238.192 183.64 241.425 186.577 241.184L188.054 241.221C188.962 241.244 189.871 241.189 190.771 241.083C196.45 240.416 198.458 242.115 200.83 244.104C203.367 246.232 205.755 248.918 209.016 249.491C211.7 249.963 214.507 248.878 217.157 249.514C220.249 250.256 222.376 253.135 225.317 254.343C228.738 255.748 232.684 254.669 235.978 252.988C239.271 251.306 242.285 249.028 245.792 247.853C256.191 244.366 267.902 251.346 278.358 248.036C281.058 247.181 283.653 245.559 284.617 242.703C284.985 241.61 285.007 240.408 284.608 239.326L284.606 239.325Z" fill="white"/>
</g>
<path d="M235.176 221.438C230.989 219.295 225.062 218.328 219.835 218.994C216.195 219.458 212.576 220.483 209.478 222.449C206.38 224.414 203.833 227.384 202.822 230.911C202.822 230.911 200.333 238.242 221.4 239.375C242.467 240.507 244.211 232.953 244.211 232.953C244.362 227.685 239.867 223.84 235.177 221.439L235.176 221.438Z" fill="#D2161D"/>
<g opacity="0.3">
<path d="M188.327 230.145C186.705 230.975 185.042 232.444 184.233 233.995C183.738 234.946 183.723 236.108 184.299 237.013C185.207 238.439 186.811 238.334 188.225 238.133C190.273 237.842 192.313 237.432 194.381 237.395C196.448 237.359 198.586 237.725 200.313 238.862C201.813 239.85 202.896 241.338 204.073 242.693C205.251 244.049 206.647 245.353 208.4 245.746C208.781 245.832 209.301 245.791 209.401 245.414C209.465 245.177 209.312 244.941 209.167 244.743C206.216 240.7 203.116 236.523 198.493 234.426C198.025 234.213 197.564 233.979 197.155 233.667C194.107 231.346 195.336 228.766 196.942 226.691C197.257 226.283 196.863 225.708 196.374 225.87C196.062 225.973 195.728 226.126 195.426 226.32C193.431 227.591 190.323 228.873 188.327 230.144" fill="white"/>
</g>
<g opacity="0.3">
<path d="M275.037 237.818C273.885 236.781 272.5 235.952 271.653 234.653C270.281 232.548 270.655 229.77 269.876 227.38C269 224.696 266.665 222.653 264.033 221.632C261.4 220.611 258.493 220.506 255.682 220.771C254.215 220.909 252.575 221.239 252.14 223.013C252.037 223.437 252.039 223.884 252.126 224.312C252.457 225.937 253.626 227.058 254.634 228.265C255.412 229.197 256.132 230.265 256.221 231.476C256.342 233.11 255.261 234.637 253.902 235.553C252.543 236.468 250.927 236.901 249.366 237.397C242.773 239.491 236.698 242.922 230.677 246.328C230.31 246.535 229.744 246.852 229.509 247.285C229.487 247.326 229.466 247.371 229.449 247.419C229.235 248.016 229.597 248.672 230.19 248.9L230.368 248.969C232.465 249.759 234.846 249.165 236.845 248.154C238.844 247.142 240.623 245.732 242.638 244.752C247.068 242.598 252.248 242.693 257.135 243.316C262.022 243.938 266.899 245.042 271.817 244.745C272.849 244.682 273.899 244.552 274.836 244.112C275.772 243.671 276.587 242.874 276.826 241.868C277.183 240.359 276.19 238.855 275.037 237.818Z" fill="white"/>
</g>
<g opacity="0.3">
<path d="M247.124 220.303C246.354 220.49 245.803 221.326 245.936 222.107C246.068 222.888 246.862 223.496 247.651 223.419C248.439 223.342 249.102 222.592 249.081 221.8C249.059 221.009 248.358 220.295 247.566 220.26" fill="white"/>
</g>
<g opacity="0.2">
<path d="M214.677 227.792C214.974 227.334 215.309 226.897 215.755 226.582C219.882 223.655 224.958 222.37 229.993 222.042C225.9 220.477 221.394 220.679 217.085 221.472C213.746 222.086 209.997 223.129 207.145 226.584C204.971 229.218 205.545 233.494 208.616 234.99C212.221 236.747 216.993 237.57 220.826 236.366C218.839 234.99 215.9 233.906 214.346 231.69C213.7 230.768 213.594 229.463 214.677 227.792Z" fill="white"/>
</g>
<path opacity="0.2" d="M181.849 232.514C181.849 232.514 195.753 236.648 210.204 234.978C224.655 233.308 230.905 240.96 231.804 243.587C232.704 246.215 236.099 253.95 236.099 253.95L218.418 260.689L194.841 252.354L179.09 239.985L181.849 232.515V232.514Z" fill="black"/>
<path d="M241.464 258.856C240.068 255.071 235.17 255.462 232.472 252.978C230.115 250.81 230.078 247.146 228.664 244.274C226.561 240.004 221.574 237.903 216.839 237.417C212.104 236.931 207.322 237.695 202.571 237.403C196.839 237.052 191.325 235.181 185.709 233.978C180.093 232.775 174.038 232.281 168.773 234.575C163.553 236.849 159.79 241.556 154.863 244.41C152.414 245.828 149.704 246.771 147.32 248.297C144.937 249.822 142.816 252.138 142.528 254.953C142.24 257.768 144.5 260.873 147.321 260.641L148.74 260.677C149.611 260.698 150.484 260.646 151.35 260.544C156.803 259.904 158.732 261.536 161.01 263.446C163.446 265.489 165.739 268.069 168.871 268.619C171.449 269.072 174.144 268.031 176.69 268.641C179.659 269.354 181.702 272.118 184.526 273.278C187.811 274.627 191.601 273.591 194.764 271.976C197.927 270.362 200.822 268.174 204.188 267.045C214.175 263.697 225.422 270.399 235.464 267.22C238.056 266.4 240.549 264.842 241.474 262.099C241.827 261.049 241.848 259.895 241.465 258.856L241.464 258.856Z" fill="#D2161D"/>
<g opacity="0.5">
<path d="M241.464 258.856C240.068 255.071 235.17 255.462 232.472 252.978C230.115 250.81 230.078 247.146 228.664 244.274C226.561 240.004 221.574 237.903 216.839 237.417C212.104 236.931 207.322 237.695 202.571 237.403C196.839 237.052 191.325 235.181 185.709 233.978C180.093 232.775 174.038 232.281 168.773 234.575C163.553 236.849 159.79 241.556 154.863 244.41C152.414 245.828 149.704 246.771 147.32 248.297C144.937 249.822 142.816 252.138 142.528 254.953C142.24 257.768 144.5 260.873 147.321 260.641L148.74 260.677C149.611 260.698 150.484 260.646 151.35 260.544C156.803 259.904 158.732 261.536 161.01 263.446C163.446 265.489 165.739 268.069 168.871 268.619C171.449 269.072 174.144 268.031 176.69 268.641C179.659 269.354 181.702 272.118 184.526 273.278C187.811 274.627 191.601 273.591 194.764 271.976C197.927 270.362 200.822 268.174 204.188 267.045C214.175 263.697 225.422 270.399 235.464 267.22C238.056 266.4 240.549 264.842 241.474 262.099C241.827 261.049 241.848 259.895 241.465 258.856L241.464 258.856Z" fill="white"/>
</g>
<path d="M193.994 241.679C189.973 239.62 184.281 238.691 179.261 239.33C175.765 239.775 172.289 240.761 169.314 242.649C166.338 244.537 163.893 247.388 162.922 250.776C162.922 250.776 160.531 257.816 180.764 258.904C200.996 259.991 202.671 252.736 202.671 252.736C202.816 247.678 198.498 243.984 193.994 241.679Z" fill="#D2161D"/>
<g opacity="0.3">
<path d="M149.002 250.04C147.444 250.838 145.847 252.248 145.071 253.738C144.595 254.651 144.581 255.767 145.134 256.636C146.006 258.005 147.547 257.905 148.905 257.712C150.871 257.431 152.83 257.038 154.816 257.003C156.802 256.968 158.854 257.319 160.513 258.412C161.954 259.361 162.994 260.789 164.125 262.091C165.255 263.394 166.597 264.645 168.28 265.023C168.645 265.105 169.146 265.067 169.242 264.704C169.302 264.476 169.155 264.25 169.017 264.059C166.183 260.178 163.205 256.165 158.765 254.151C158.316 253.948 157.873 253.722 157.481 253.423C154.554 251.194 155.734 248.716 157.276 246.724C157.579 246.332 157.201 245.78 156.73 245.935C156.43 246.035 156.111 246.182 155.82 246.368C153.904 247.589 150.919 248.819 149.002 250.04Z" fill="white"/>
</g>
<g opacity="0.3">
<path d="M232.275 257.409C231.168 256.413 229.839 255.618 229.025 254.37C227.707 252.348 228.067 249.68 227.318 247.385C226.477 244.807 224.235 242.845 221.706 241.865C219.177 240.884 216.386 240.783 213.686 241.038C212.278 241.17 210.703 241.488 210.286 243.191C210.186 243.598 210.188 244.028 210.272 244.438C210.589 245.999 211.713 247.076 212.68 248.235C213.428 249.13 214.118 250.156 214.205 251.319C214.321 252.888 213.283 254.355 211.977 255.234C210.673 256.113 209.121 256.529 207.621 257.006C201.289 259.016 195.455 262.311 189.673 265.583C189.321 265.782 188.777 266.087 188.55 266.502C188.529 266.542 188.51 266.584 188.494 266.63C188.288 267.204 188.636 267.833 189.205 268.053L189.376 268.119C191.389 268.878 193.675 268.308 195.595 267.336C197.515 266.364 199.224 265.01 201.159 264.069C205.414 262 210.387 262.092 215.081 262.689C219.774 263.287 224.459 264.348 229.181 264.062C230.173 264.002 231.181 263.876 232.08 263.453C232.979 263.031 233.763 262.265 233.991 261.298C234.334 259.849 233.381 258.405 232.274 257.409H232.275Z" fill="white"/>
</g>
<g opacity="0.3">
<path d="M205.468 240.589C204.729 240.768 204.2 241.571 204.327 242.32C204.454 243.07 205.217 243.654 205.974 243.58C206.731 243.507 207.367 242.786 207.347 242.026C207.327 241.266 206.653 240.58 205.893 240.547" fill="white"/>
</g>
<g opacity="0.2">
<path d="M174.307 247.78C174.592 247.34 174.914 246.922 175.342 246.618C179.306 243.807 184.181 242.574 189.016 242.258C185.085 240.756 180.758 240.949 176.619 241.711C173.413 242.301 169.813 243.302 167.074 246.62C164.985 249.15 165.537 253.256 168.486 254.693C171.948 256.38 176.53 257.17 180.212 256.014C178.304 254.693 175.481 253.651 173.989 251.523C173.369 250.638 173.268 249.385 174.306 247.78L174.307 247.78Z" fill="white"/>
</g>
<path d="M314.629 231.196C312.4 228.565 308.728 229.284 305.579 229.871C296.069 231.641 285.829 230.978 277.35 226.322C275.063 225.067 272.922 223.535 270.529 222.496C268.136 221.456 265.374 220.941 262.92 221.826C262.784 221.875 262.649 221.93 262.516 221.989C259.777 223.215 258.537 226.435 259.516 229.271L259.928 230.464C260.25 231.397 260.8 232.235 261.523 232.906C267.012 238.014 273.956 241.491 281.263 243.21C289.08 245.049 297.298 244.922 305.171 243.334C309.175 242.526 313.395 241.173 315.294 237.142C316.213 235.191 316.023 232.842 314.629 231.196H314.629Z" fill="#D2161D"/>
<g opacity="0.2">
<path d="M276.282 225.721C273.532 227.202 271.279 229.955 269.675 232.635C269.399 229.432 271.577 226.056 274.449 224.61L276.282 225.721Z" fill="black"/>
</g>
<g opacity="0.2">
<path d="M285.516 229.467C283.33 231.698 281.996 234.997 281.261 238.033C280.046 235.056 281.123 231.185 283.435 228.951L285.515 229.467L285.516 229.467Z" fill="black"/>
</g>
<g opacity="0.2">
<path d="M293.587 230.708C292.062 233.435 291.727 236.983 291.814 240.105C289.862 237.551 289.969 233.323 291.615 230.562L293.587 230.708Z" fill="black"/>
</g>
<g opacity="0.2">
<path d="M302.295 230.379C301.472 233.392 302.029 236.809 302.865 239.819C300.355 237.81 299.375 233.665 300.308 230.587L302.295 230.379H302.295Z" fill="black"/>
</g>
<path d="M304.572 244.271C302.296 241.584 298.548 242.319 295.332 242.918C285.624 244.725 275.171 244.049 266.514 239.296C264.18 238.014 261.994 236.45 259.552 235.389C257.11 234.327 254.29 233.802 251.785 234.706C251.646 234.755 251.508 234.811 251.373 234.872C248.576 236.123 247.311 239.41 248.31 242.306L248.731 243.524C249.06 244.477 249.622 245.331 250.359 246.017C255.963 251.231 263.052 254.781 270.511 256.536C278.492 258.413 286.881 258.283 294.918 256.662C299.006 255.837 303.313 254.456 305.252 250.341C306.191 248.349 305.996 245.951 304.573 244.271L304.572 244.271Z" fill="#D2161D"/>
<g opacity="0.2">
<path d="M304.572 244.271C302.296 241.584 298.548 242.319 295.332 242.918C285.624 244.725 275.171 244.049 266.514 239.296C264.18 238.014 261.994 236.45 259.552 235.389C257.11 234.327 254.29 233.802 251.785 234.706C251.646 234.755 251.508 234.811 251.373 234.872C248.576 236.123 247.311 239.41 248.31 242.306L248.731 243.524C249.06 244.477 249.622 245.331 250.359 246.017C255.963 251.231 263.052 254.781 270.511 256.536C278.492 258.413 286.881 258.283 294.918 256.662C299.006 255.837 303.313 254.456 305.252 250.341C306.191 248.349 305.996 245.951 304.573 244.271L304.572 244.271Z" fill="black"/>
</g>
<g opacity="0.2">
<path d="M265.425 238.682C262.617 240.194 260.317 243.005 258.68 245.741C258.399 242.471 260.622 239.025 263.554 237.548L265.426 238.682H265.425Z" fill="black"/>
</g>
<g opacity="0.2">
<path d="M274.852 242.506C272.62 244.784 271.258 248.151 270.508 251.25C269.268 248.211 270.367 244.259 272.727 241.979L274.851 242.506L274.852 242.506Z" fill="black"/>
</g>
<g opacity="0.2">
<path d="M283.091 243.773C281.535 246.556 281.192 250.179 281.281 253.366C279.287 250.759 279.397 246.443 281.077 243.623L283.091 243.773Z" fill="black"/>
</g>
<g opacity="0.2">
<path d="M291.981 243.437C291.14 246.513 291.709 250.001 292.562 253.073C290 251.023 289 246.791 289.952 243.65L291.981 243.437Z" fill="black"/>
</g>
<path d="M286.653 257.109C284.629 254.72 281.295 255.374 278.435 255.906C269.801 257.513 260.504 256.911 252.804 252.684C250.728 251.544 248.784 250.153 246.612 249.209C244.44 248.266 241.931 247.798 239.703 248.602C239.58 248.646 239.457 248.696 239.336 248.75C236.85 249.862 235.724 252.786 236.613 255.361L236.986 256.445C237.279 257.292 237.779 258.051 238.434 258.662C243.418 263.299 249.723 266.457 256.357 268.017C263.456 269.687 270.916 269.572 278.065 268.129C281.701 267.396 285.532 266.167 287.256 262.507C288.091 260.736 287.918 258.603 286.652 257.108L286.653 257.109Z" fill="#D2161D"/>
<g opacity="0.2">
<path d="M251.835 252.139C249.338 253.483 247.292 255.983 245.836 258.417C245.586 255.509 247.563 252.443 250.171 251.131L251.835 252.139V252.139Z" fill="black"/>
</g>
<g opacity="0.2">
<path d="M260.22 255.54C258.235 257.565 257.024 260.561 256.356 263.317C255.254 260.614 256.231 257.1 258.331 255.072L260.219 255.54H260.22Z" fill="black"/>
</g>
<g opacity="0.2">
<path d="M267.548 256.666C266.164 259.142 265.859 262.364 265.939 265.198C264.166 262.879 264.263 259.041 265.757 256.533L267.548 256.666Z" fill="black"/>
</g>
<g opacity="0.2">
<path d="M275.455 256.368C274.707 259.104 275.214 262.206 275.972 264.939C273.693 263.114 272.804 259.35 273.651 256.557L275.455 256.368V256.368Z" fill="black"/>
</g>
<path d="M110.797 265.535C110.797 268.414 102.774 270.747 92.8769 270.747C82.9797 270.747 74.9565 268.414 74.9565 265.535C74.9565 262.656 82.9797 260.322 92.8769 260.322C102.774 260.322 110.797 262.656 110.797 265.535Z" fill="#D2161D"/>
<path opacity="0.5" d="M110.797 265.535C110.797 268.414 102.774 270.747 92.8769 270.747C82.9797 270.747 74.9565 268.414 74.9565 265.535C74.9565 262.656 82.9797 260.322 92.8769 260.322C102.774 260.322 110.797 262.656 110.797 265.535Z" fill="white"/>
<path d="M92.0713 217.271C106.936 217.271 118.987 213.475 118.987 208.793C118.987 204.111 106.936 200.315 92.0713 200.315C77.2062 200.315 65.1558 204.111 65.1558 208.793C65.1558 213.475 77.2062 217.271 92.0713 217.271Z" fill="#D2161D"/>
<path d="M94.5271 197.072H60.1602C60.1602 197.072 66.7284 254.565 75.104 266.195H110.654C117.916 253.834 123.124 197.072 123.124 197.072H94.5271Z" fill="#D2161D"/>
<path opacity="0.5" d="M94.5271 197.072H60.1602C60.1602 197.072 66.7284 254.565 75.104 266.195H110.654C117.916 253.834 123.124 197.072 123.124 197.072H94.5271Z" fill="white"/>
<path d="M64.3325 200.959C64.3325 200.959 70.6531 254.395 77.9185 264.483H108.282C114.582 253.761 119.656 200.959 119.656 200.959H64.3325Z" fill="#D2161D"/>
<path d="M108.282 264.483C108.282 266.269 101.485 267.715 93.0996 267.715C84.7146 267.715 77.9175 266.268 77.9175 264.483C77.9175 262.699 84.7146 261.251 93.0996 261.251C101.485 261.251 108.282 262.698 108.282 264.483Z" fill="#D2161D"/>
<path d="M91.6419 206.987C109.029 206.987 123.124 202.548 123.124 197.071C123.124 191.595 109.029 187.156 91.6419 187.156C74.255 187.156 60.1602 191.595 60.1602 197.071C60.1602 202.548 74.255 206.987 91.6419 206.987Z" fill="#D2161D"/>
<path opacity="0.5" d="M91.6419 206.987C109.029 206.987 123.124 202.548 123.124 197.071C123.124 191.595 109.029 187.156 91.6419 187.156C74.255 187.156 60.1602 191.595 60.1602 197.071C60.1602 202.548 74.255 206.987 91.6419 206.987Z" fill="white"/>
<path d="M91.642 205.438C107.527 205.438 120.405 201.692 120.405 197.071C120.405 192.451 107.527 188.705 91.642 188.705C75.7566 188.705 62.8789 192.451 62.8789 197.071C62.8789 201.692 75.7566 205.438 91.642 205.438Z" fill="#D2161D"/>
<path opacity="0.2" d="M91.642 205.438C107.527 205.438 120.405 201.692 120.405 197.071C120.405 192.451 107.527 188.705 91.642 188.705C75.7566 188.705 62.8789 192.451 62.8789 197.071C62.8789 201.692 75.7566 205.438 91.642 205.438Z" fill="white"/>
<path d="M65.5748 200.779C70.2748 203.539 80.0528 205.438 91.3601 205.438C103.141 205.438 113.262 203.376 117.708 200.427C114.243 196.662 103.95 193.931 91.7894 193.931C79.2542 193.931 68.709 196.833 65.5748 200.779Z" fill="#D2161D"/>
<path opacity="0.2" d="M69.2705 209.739C69.2705 209.739 78.0419 260.438 81.6879 263.849C85.3338 267.261 87.4348 263.849 87.4348 263.849L81.6879 213.33L69.2705 209.739Z" fill="white"/>
<path d="M303.185 211.747C325.771 211.747 344.081 204.122 344.081 194.715C344.081 185.308 325.771 177.682 303.185 177.682C280.599 177.682 262.29 185.308 262.29 194.715C262.29 204.122 280.599 211.747 303.185 211.747Z" fill="#D2161D"/>
<path opacity="0.2" d="M303.185 211.747C325.771 211.747 344.081 204.122 344.081 194.715C344.081 185.308 325.771 177.682 303.185 177.682C280.599 177.682 262.29 185.308 262.29 194.715C262.29 204.122 280.599 211.747 303.185 211.747Z" fill="white"/>
<g opacity="0.2">
<path d="M304.108 207.346C320.857 207.346 334.435 201.691 334.435 194.715C334.435 187.739 320.857 182.084 304.108 182.084C287.358 182.084 273.78 187.739 273.78 194.715C273.78 201.691 287.358 207.346 304.108 207.346Z" fill="white"/>
<path opacity="0.2" d="M304.108 207.346C320.857 207.346 334.435 201.691 334.435 194.715C334.435 187.739 320.857 182.084 304.108 182.084C287.358 182.084 273.78 187.739 273.78 194.715C273.78 201.691 287.358 207.346 304.108 207.346Z" fill="white"/>
</g>
<path d="M326.46 174.527C326.859 174.04 327.297 173.615 327.766 173.197C328.283 172.735 327.306 173.498 327.688 173.262C327.833 173.173 327.971 173.07 328.116 172.979C328.405 172.8 328.706 172.645 329.011 172.494C329.537 172.233 328.829 172.602 328.802 172.581C328.832 172.604 329.214 172.436 329.277 172.416C329.566 172.326 329.856 172.262 330.15 172.198C330.688 172.079 329.956 172.233 329.888 172.226C330.004 172.238 330.162 172.202 330.285 172.196C330.451 172.188 330.616 172.186 330.783 172.19C330.915 172.193 331.607 172.299 331.053 172.187C330.488 172.074 331.397 172.272 331.542 172.313C331.66 172.346 331.775 172.391 331.893 172.423C332.513 172.594 331.343 172.148 331.726 172.341C331.977 172.468 332.226 172.589 332.465 172.735C332.57 172.801 332.671 172.875 332.778 172.94C333.319 173.271 332.291 172.49 332.722 172.895C332.953 173.111 333.185 173.317 333.397 173.552C333.479 173.644 333.555 173.754 333.643 173.84C333.125 173.331 333.356 173.441 333.48 173.644C333.646 173.915 333.803 174.185 333.962 174.461C334.079 174.665 334.079 174.944 333.872 174.215C333.924 174.397 334.006 174.574 334.061 174.757C334.098 174.879 334.131 175.004 334.161 175.128C334.189 175.246 334.216 175.816 334.209 175.288C334.201 174.702 334.21 175.44 334.213 175.517C334.219 175.665 334.221 175.814 334.218 175.963C334.214 176.112 334.199 176.258 334.194 176.407C334.173 177.14 334.32 175.869 334.205 176.322C334.104 176.721 334.028 177.116 333.898 177.508C333.871 177.589 333.733 177.877 333.746 177.93C333.733 177.877 334.072 177.236 333.807 177.784C333.659 178.09 333.508 178.391 333.339 178.686C333.171 178.98 332.991 179.267 332.799 179.546C332.715 179.669 332.625 179.79 332.539 179.913C332.137 180.488 332.918 179.485 332.491 179.964C332.136 180.361 331.774 180.725 331.378 181.082C330.921 181.496 331.907 180.731 331.551 180.955C331.427 181.032 331.312 181.127 331.191 181.209C330.944 181.376 330.69 181.533 330.431 181.68C329.949 181.956 329.447 182.179 328.946 182.416C329.856 181.986 328.981 182.39 328.747 182.475C328.416 182.595 328.084 182.706 327.748 182.81C326.49 183.197 325.2 183.475 323.901 183.679C323.747 183.703 323.585 183.713 323.434 183.749L323.918 183.685C323.796 183.7 323.673 183.716 323.551 183.731C323.25 183.767 322.949 183.799 322.648 183.828C322.024 183.887 321.399 183.929 320.772 183.956C319.095 184.031 317.478 185.381 317.559 187.17C317.634 188.847 318.974 190.464 320.772 190.383C323.657 190.254 326.595 189.875 329.364 189.035C332.268 188.155 335.225 186.737 337.176 184.337C339.694 181.239 341.388 177.266 340.31 173.233C339.398 169.821 336.505 166.932 333.072 166.068C328.998 165.044 324.539 166.772 321.914 169.983C321.359 170.663 320.973 171.345 320.973 172.256C320.973 173.044 321.323 173.985 321.914 174.528C323.091 175.609 325.323 175.918 326.459 174.528L326.46 174.527Z" fill="#D2161D"/>
<path d="M303.185 175.592C316.121 175.592 326.608 171.536 326.608 166.533C326.608 161.531 316.121 157.475 303.185 157.475C290.249 157.475 279.762 161.531 279.762 166.533C279.762 171.536 290.249 175.592 303.185 175.592Z" fill="#D2161D"/>
<path d="M279.762 166.269C279.762 166.269 279.626 202.329 302.485 202.597C325.343 202.866 326.608 166.269 326.608 166.269H279.762Z" fill="#D2161D"/>
<path opacity="0.3" d="M324.816 166.518C324.816 170.846 315.131 174.354 303.186 174.354C291.24 174.354 281.556 170.846 281.556 166.518C281.556 162.191 291.24 158.683 303.186 158.683C315.131 158.683 324.816 162.191 324.816 166.518Z" fill="black"/>
<path d="M283.681 169.91C287.171 172.539 294.593 174.354 303.185 174.354C311.777 174.354 319.198 172.539 322.689 169.91C319.198 167.281 311.777 165.467 303.185 165.467C294.593 165.467 287.171 167.282 283.681 169.91Z" fill="#A24E3F"/>
<path d="M320.408 190.943C320.349 190.943 320.29 190.926 320.236 190.892C320.091 190.796 320.049 190.601 320.144 190.455C324.628 183.578 325.697 174.957 326.64 167.352C326.661 167.179 326.822 167.053 326.992 167.078C327.164 167.099 327.287 167.256 327.266 167.43C326.315 175.103 325.237 183.801 320.673 190.8C320.612 190.892 320.511 190.943 320.409 190.943L320.408 190.943Z" fill="#263238"/>
<path opacity="0.2" d="M303.185 174.346C310.218 174.346 315.919 172.789 315.919 170.868C315.919 168.948 310.218 167.391 303.185 167.391C296.152 167.391 290.451 168.948 290.451 170.868C290.451 172.789 296.152 174.346 303.185 174.346Z" fill="white"/>
</svg>
