<svg width="430" height="366" viewBox="0 0 430 366" fill="none" xmlns="http://www.w3.org/2000/svg">
<path d="M460.282 321.037H-30V321.282H460.282V321.037Z" fill="#EBEBEB"/>
<path d="M411.156 336.814H378.68V337.059H411.156V336.814Z" fill="#EBEBEB"/>
<path d="M294.782 339.481H286.261V339.726H294.782V339.481Z" fill="#EBEBEB"/>
<path d="M377.699 327.714H358.882V327.959H377.699V327.714Z" fill="#EBEBEB"/>
<path d="M63.791 329.362H21.4404V329.607H63.791V329.362Z" fill="#EBEBEB"/>
<path d="M78.7348 329.362H72.5278V329.607H78.7348V329.362Z" fill="#EBEBEB"/>
<path d="M190.774 333.5H98.9148V333.745H190.774V333.5Z" fill="#EBEBEB"/>
<path d="M202.394 277.304H13.0566C11.5734 277.301 10.1518 276.71 9.10386 275.66C8.05595 274.61 7.4674 273.188 7.46741 271.705V5.54999C7.48032 4.07525 8.07457 2.66515 9.12107 1.62599C10.1676 0.586827 11.5818 0.00252631 13.0566 0H202.394C203.879 0 205.303 0.589895 206.353 1.63992C207.403 2.68994 207.993 4.11407 207.993 5.59902V271.705C207.993 273.189 207.403 274.614 206.353 275.664C205.303 276.714 203.879 277.304 202.394 277.304ZM13.0566 0.196114C11.6384 0.198711 10.2791 0.763923 9.2772 1.76769C8.27527 2.77146 7.71255 4.13175 7.71255 5.54999V271.705C7.71255 273.123 8.27527 274.483 9.2772 275.487C10.2791 276.491 11.6384 277.056 13.0566 277.058H202.394C203.813 277.056 205.173 276.491 206.177 275.487C207.18 274.484 207.745 273.124 207.748 271.705V5.54999C207.745 4.13085 207.18 2.77058 206.177 1.76709C205.173 0.763605 203.813 0.198706 202.394 0.196114H13.0566Z" fill="#EBEBEB"/>
<path d="M414.5 277.304H225.153C223.668 277.301 222.246 276.71 221.196 275.661C220.147 274.611 219.556 273.189 219.554 271.705V5.54999C219.569 4.07436 220.165 2.66427 221.214 1.62538C222.262 0.586484 223.677 0.00249876 225.153 0H414.5C415.973 0.00510334 417.384 0.590544 418.429 1.62943C419.473 2.66832 420.066 4.07694 420.079 5.54999V271.705C420.079 273.186 419.492 274.607 418.446 275.657C417.4 276.706 415.981 277.298 414.5 277.304ZM225.153 0.196114C223.733 0.198706 222.373 0.763605 221.37 1.76709C220.366 2.77058 219.801 4.13085 219.799 5.54999V271.705C219.801 273.124 220.366 274.484 221.37 275.487C222.373 276.491 223.733 277.056 225.153 277.058H414.5C415.919 277.056 417.279 276.491 418.282 275.487C419.286 274.484 419.851 273.124 419.853 271.705V5.54999C419.851 4.13085 419.286 2.77058 418.282 1.76709C417.279 0.763605 415.919 0.198706 414.5 0.196114H225.153Z" fill="#EBEBEB"/>
<path d="M72.1649 101.665C72.1649 101.665 70.9981 94.1342 76.5383 89.2313C82.0785 84.3285 81.5784 81.4849 79.9997 81.1025C78.4209 80.72 76.9599 85.5836 74.5379 86.9172C74.5379 86.9172 74.4595 79.9944 76.9207 77.445C79.3819 74.8955 80.686 68.3257 78.3425 68.208C75.9989 68.0904 75.744 72.1303 75.2635 74.9641C74.7831 77.798 72.1649 81.8281 72.1649 81.8281C72.1649 81.8281 71.6452 75.6407 70.0567 73.0814C68.4682 70.5222 72.7141 64.7074 71.0373 62.158C69.3605 59.6085 66.4777 64.4623 66.7228 69.924C66.968 75.3858 70.6451 81.2201 69.7626 86.927C69.7626 86.927 68.1544 82.9263 66.7032 82.5635C65.252 82.2007 63.7615 79.5434 62.8398 78.5628C61.9181 77.5822 60.6531 80.975 62.8398 84.1422C65.0264 87.3094 70.6058 95.7423 69.7626 102.567L72.1649 101.665Z" fill="#E6E6E6"/>
<path d="M75.4597 98.2133L77.2738 109.568C77.4056 110.393 77.3571 111.236 77.1315 112.04C76.9059 112.844 76.5087 113.59 75.9671 114.226C75.4256 114.861 74.7526 115.372 73.9947 115.722C73.2367 116.073 72.4117 116.255 71.5767 116.256H69.6155C68.7802 116.255 67.9549 116.073 67.1966 115.722C66.4382 115.372 65.7648 114.861 65.2225 114.226C64.6802 113.59 64.282 112.845 64.0552 112.041C63.8284 111.237 63.7784 110.393 63.9087 109.568L65.7227 98.2133H75.4597Z" fill="#E6E6E6"/>
<path d="M48.1019 118.638L176.007 118.638V112.069L48.1019 112.069V118.638Z" fill="#E0E0E0"/>
<path d="M164.475 112.059H170.114V87.8389H164.475V112.059Z" fill="#EBEBEB"/>
<path d="M137.225 112.059H142.864V87.8389H137.225V112.059Z" fill="#EBEBEB"/>
<path d="M102.189 111.1L107.745 112.058L111.859 88.1898L106.303 87.232L102.189 111.1Z" fill="#EBEBEB"/>
<path d="M157.494 112.069H163.132V91.0356H157.494V112.069Z" fill="#EBEBEB"/>
<path d="M144.54 112.069H150.179V91.0356H144.54V112.069Z" fill="#EBEBEB"/>
<path d="M111.848 112.069H117.487V91.0356H111.848V112.069Z" fill="#EBEBEB"/>
<path d="M125.278 110.826L130.782 112.049L135.345 91.517L129.841 90.2938L125.278 110.826Z" fill="#EBEBEB"/>
<path d="M152.63 112.069H155.444V86.6427H152.63V112.069Z" fill="#EBEBEB"/>
<path d="M119.114 112.069H121.929V86.6427H119.114V112.069Z" fill="#EBEBEB"/>
<path d="M175.997 161.117H48.0922V167.686H175.997V161.117Z" fill="#E0E0E0"/>
<path d="M59.6236 136.897H53.9854V161.117H59.6236V136.897Z" fill="#EBEBEB"/>
<path d="M86.8636 136.897H81.2253V161.117H86.8636V136.897Z" fill="#EBEBEB"/>
<path d="M117.804 136.288L112.247 137.245L116.361 161.113L121.918 160.156L117.804 136.288Z" fill="#EBEBEB"/>
<path d="M66.6052 140.093H60.9669V161.126H66.6052V140.093Z" fill="#EBEBEB"/>
<path d="M79.5584 140.093H73.9202V161.126H79.5584V140.093Z" fill="#EBEBEB"/>
<path d="M112.25 140.093H106.612V161.126H112.25V140.093Z" fill="#EBEBEB"/>
<path d="M94.2789 139.359L88.7749 140.582L93.338 161.114L98.842 159.891L94.2789 139.359Z" fill="#EBEBEB"/>
<path d="M71.4688 135.69H68.6545V161.116H71.4688V135.69Z" fill="#EBEBEB"/>
<path d="M104.985 135.69H102.17V161.116H104.985V135.69Z" fill="#EBEBEB"/>
<path d="M163.73 141.946H136.274V160.901H163.73V141.946Z" fill="#EBEBEB"/>
<path d="M385.651 72.8363H229.428C228.28 72.8363 227.349 73.767 227.349 74.9151V77.141C227.349 78.2891 228.28 79.2198 229.428 79.2198H385.651C386.799 79.2198 387.73 78.2891 387.73 77.141V74.9151C387.73 73.767 386.799 72.8363 385.651 72.8363Z" fill="#E0E0E0"/>
<path d="M378.209 77.9156H236.88V203.33H378.209V77.9156Z" fill="#E6E6E6"/>
<path d="M374.492 81.3574H240.42V199.957H374.492V81.3574Z" fill="#F0F0F0"/>
<path d="M271.886 81.3574L240.42 199.702V144.094L257.031 81.3574H271.886Z" fill="white"/>
<path d="M283.025 81.3574L251.285 199.957H246.215L277.956 81.3574H283.025Z" fill="white"/>
<path d="M369.609 81.3574L337.868 199.957H332.809L364.55 81.3574H369.609Z" fill="white"/>
<path d="M374.493 156.194V175.148L368.07 199.957H363L374.493 156.194Z" fill="white"/>
<path d="M287.173 79.2296H284.918V202.614H287.173V79.2296Z" fill="#E6E6E6"/>
<path d="M330.946 79.2296H328.69V202.614H330.946V79.2296Z" fill="#E6E6E6"/>
<path d="M355.175 74.8759C355.175 74.8759 358.421 117.315 377.13 138.936C377.13 138.936 363.51 193.534 363.52 212.577L388.828 207.88L379.699 139.24L384.063 74.8661L355.175 74.8759Z" fill="#E0E0E0"/>
<path d="M259.914 74.8759C259.914 74.8759 256.658 117.315 237.959 138.936C237.959 138.936 251.579 193.534 251.569 212.577L226.261 207.88L235.38 139.24L231.016 74.8661L259.914 74.8759Z" fill="#E0E0E0"/>
<path d="M215.141 365.319C320.142 365.319 405.263 360.349 405.263 354.219C405.263 348.089 320.142 343.119 215.141 343.119C110.14 343.119 25.0194 348.089 25.0194 354.219C25.0194 360.349 110.14 365.319 215.141 365.319Z" fill="#F5F5F5"/>
<path d="M330.348 50.5873H203.198C198.416 50.5873 194.539 54.4638 194.539 59.2457V301.778C194.539 306.56 198.416 310.437 203.198 310.437H330.348C335.129 310.437 339.006 306.56 339.006 301.778V59.2457C339.006 54.4638 335.129 50.5873 330.348 50.5873Z" fill="#263238"/>
<path d="M334.133 59.2849V301.259C334.133 301.728 334.039 302.192 333.859 302.625C333.678 303.058 333.412 303.45 333.079 303.779C332.745 304.109 332.349 304.368 331.913 304.543C331.478 304.718 331.013 304.805 330.544 304.799H202.629C202.203 304.804 201.781 304.723 201.387 304.562C200.993 304.4 200.635 304.161 200.336 303.858C200.036 303.555 199.801 303.194 199.644 302.798C199.488 302.402 199.412 301.979 199.423 301.553V59.0006C199.399 58.247 199.674 57.5146 200.189 56.9634C200.703 56.4122 201.415 56.087 202.168 56.0589H234.144C234.592 56.0664 235.028 56.2076 235.395 56.4645C235.762 56.7213 236.043 57.0821 236.204 57.5003L237.527 60.7558C237.692 61.1696 237.975 61.5254 238.342 61.7785C238.708 62.0315 239.141 62.1704 239.587 62.1776H294.037C294.481 62.1745 294.914 62.0396 295.28 61.7899C295.647 61.5402 295.931 61.187 296.097 60.7754L297.42 57.5003C297.583 57.0836 297.865 56.7243 298.232 56.4678C298.598 56.2112 299.032 56.069 299.479 56.0589H330.995C331.835 56.0819 332.633 56.4319 333.219 57.0344C333.805 57.6369 334.133 58.4444 334.133 59.2849Z" fill="#D2161D"/>
<path opacity="0.6" d="M334.142 71.1399H199.423V291.179H334.142V71.1399Z" fill="white"/>
<path opacity="0.6" d="M214.259 65.7763H215.926V63.5602H214.259V65.7763Z" fill="white"/>
<path opacity="0.6" d="M211.552 65.7763H213.219V62.815H211.552V65.7763Z" fill="white"/>
<path opacity="0.6" d="M208.836 65.7763H210.503V62.0795H208.836V65.7763Z" fill="white"/>
<path opacity="0.6" d="M206.13 65.7763H207.797V61.3343H206.13V65.7763Z" fill="white"/>
<path opacity="0.6" d="M318.895 62.7463H317.904V64.9624H318.895V62.7463Z" fill="white"/>
<path opacity="0.6" d="M319.571 65.7763H327.426V61.9423H319.571V65.7763Z" fill="white"/>
<path opacity="0.6" d="M332.436 177.727H201.119V204.31H332.436V177.727Z" fill="white"/>
<path opacity="0.6" d="M264.905 58.1965C265.928 58.1965 266.758 57.3668 266.758 56.3432C266.758 55.3197 265.928 54.49 264.905 54.49C263.881 54.49 263.051 55.3197 263.051 56.3432C263.051 57.3668 263.881 58.1965 264.905 58.1965Z" fill="white"/>
<path opacity="0.6" d="M270.494 56.3432C270.494 56.5783 270.424 56.8081 270.293 57.0034C270.162 57.1987 269.977 57.3508 269.759 57.4403C269.542 57.5298 269.303 57.5527 269.072 57.5061C268.842 57.4596 268.631 57.3456 268.465 57.1787C268.299 57.0118 268.187 56.7994 268.143 56.5686C268.098 56.3378 268.123 56.099 268.214 55.8823C268.305 55.6657 268.459 55.4811 268.655 55.3519C268.852 55.2227 269.082 55.1548 269.317 55.1567C269.63 55.1593 269.93 55.2855 270.15 55.5077C270.37 55.7299 270.494 56.0302 270.494 56.3432Z" fill="white"/>
<path opacity="0.6" d="M332.436 245.867H201.119V261.33H332.436V245.867Z" fill="white"/>
<path d="M267.484 250.632V256.81H266.611V251.397H265.219V250.632H267.484Z" fill="#263238"/>
<path d="M301.725 195.054V196.309H301.009V195.054C300.027 195.032 299.079 194.687 298.312 194.073L298.724 193.21C299.371 193.744 300.172 194.057 301.009 194.103V191.514C299.793 191.21 298.499 190.828 298.499 189.308C298.499 188.21 299.283 187.249 301.009 187.111V185.837H301.725V187.092C302.527 187.118 303.308 187.354 303.99 187.778L303.617 188.67C303.051 188.302 302.399 188.085 301.725 188.043V190.632C302.97 190.945 304.314 191.318 304.314 192.838C304.314 193.956 303.49 194.907 301.725 195.054ZM301.009 190.465V188.062C300.028 188.19 299.587 188.69 299.587 189.278C299.587 189.867 300.215 190.229 301.009 190.465ZM303.215 192.916C303.215 192.2 302.549 191.936 301.725 191.7V194.093C302.764 193.995 303.215 193.514 303.215 192.916Z" fill="#263238"/>
<path d="M307.608 187.18V195.024H306.51V188.16H304.745V187.18H307.608Z" fill="#263238"/>
<path d="M309.275 194.279C309.273 194.179 309.29 194.079 309.327 193.986C309.364 193.892 309.419 193.807 309.49 193.736C309.56 193.665 309.645 193.608 309.737 193.57C309.83 193.532 309.93 193.513 310.03 193.514C310.233 193.514 310.428 193.595 310.571 193.738C310.715 193.882 310.795 194.076 310.795 194.279C310.795 194.482 310.715 194.677 310.571 194.82C310.428 194.963 310.233 195.044 310.03 195.044C309.93 195.044 309.831 195.024 309.739 194.986C309.647 194.947 309.563 194.891 309.493 194.819C309.423 194.748 309.367 194.664 309.33 194.571C309.293 194.478 309.274 194.379 309.275 194.279Z" fill="#263238"/>
<path d="M317.639 190.985C317.639 193.642 316.139 195.064 313.953 195.064C313.27 195.091 312.593 194.935 311.991 194.613L312.413 193.74C312.868 194.004 313.388 194.133 313.913 194.113C315.502 194.113 316.502 193.132 316.502 191.171V190.886C316.242 191.232 315.899 191.508 315.505 191.688C315.111 191.867 314.679 191.946 314.247 191.916C313.914 191.952 313.577 191.917 313.258 191.815C312.939 191.713 312.645 191.545 312.395 191.322C312.145 191.1 311.944 190.828 311.805 190.523C311.666 190.218 311.593 189.888 311.589 189.553C311.596 189.206 311.674 188.865 311.819 188.549C311.963 188.234 312.172 187.952 312.43 187.721C312.689 187.49 312.992 187.315 313.322 187.207C313.651 187.098 313.999 187.059 314.345 187.092C316.463 187.092 317.639 188.494 317.639 190.985ZM316.276 189.504C316.276 188.7 315.629 187.994 314.413 187.994C314.199 187.969 313.981 187.99 313.775 188.055C313.568 188.12 313.378 188.227 313.216 188.371C313.054 188.514 312.924 188.69 312.835 188.887C312.746 189.084 312.699 189.297 312.697 189.514C312.697 190.426 313.384 191.014 314.472 191.014C314.691 191.04 314.913 191.021 315.124 190.958C315.335 190.895 315.531 190.789 315.7 190.648C315.869 190.506 316.007 190.332 316.106 190.135C316.205 189.939 316.263 189.724 316.276 189.504Z" fill="#263238"/>
<path d="M324.513 190.984C324.513 193.642 323.013 195.064 320.826 195.064C320.144 195.091 319.467 194.935 318.865 194.613L319.287 193.74C319.741 194.005 320.262 194.134 320.787 194.112C322.376 194.112 323.376 193.132 323.376 191.171V190.886C323.115 191.232 322.773 191.508 322.379 191.688C321.985 191.867 321.552 191.946 321.12 191.916C320.788 191.952 320.451 191.917 320.132 191.815C319.813 191.713 319.519 191.545 319.269 191.322C319.019 191.1 318.818 190.828 318.679 190.523C318.54 190.218 318.467 189.888 318.463 189.553C318.468 189.207 318.545 188.865 318.689 188.55C318.832 188.235 319.04 187.953 319.298 187.722C319.555 187.49 319.858 187.315 320.187 187.207C320.516 187.098 320.864 187.059 321.209 187.092C323.337 187.092 324.513 188.494 324.513 190.984ZM323.15 189.504C323.15 188.7 322.503 187.994 321.287 187.994C321.072 187.969 320.855 187.99 320.648 188.055C320.442 188.12 320.252 188.227 320.09 188.371C319.928 188.514 319.798 188.69 319.709 188.887C319.619 189.084 319.573 189.297 319.571 189.514C319.571 190.426 320.248 191.014 321.346 191.014C321.565 191.04 321.787 191.02 321.998 190.958C322.209 190.895 322.405 190.789 322.574 190.648C322.743 190.506 322.881 190.332 322.98 190.135C323.079 189.939 323.137 189.724 323.15 189.504Z" fill="#263238"/>
<path d="M211.268 198.28V198.721H208.689V198.378L210.15 196.966C210.532 196.593 210.601 196.368 210.601 196.142C210.601 195.77 210.346 195.544 209.836 195.544C209.664 195.535 209.493 195.565 209.334 195.633C209.176 195.701 209.036 195.805 208.924 195.936L208.571 195.632C208.737 195.451 208.94 195.308 209.168 195.215C209.395 195.122 209.64 195.08 209.885 195.093C210.63 195.093 211.121 195.475 211.121 196.074C211.112 196.294 211.054 196.51 210.95 196.706C210.847 196.901 210.701 197.07 210.523 197.201L209.424 198.26L211.268 198.28Z" fill="#263238"/>
<path d="M211.67 196.927C211.67 195.76 212.297 195.093 213.141 195.093C213.984 195.093 214.602 195.76 214.602 196.927C214.602 198.094 213.974 198.76 213.141 198.76C212.307 198.76 211.67 198.074 211.67 196.927ZM214.092 196.927C214.092 196.005 213.7 195.544 213.111 195.544C212.523 195.544 212.131 196.005 212.131 196.927C212.131 197.848 212.523 198.309 213.111 198.309C213.7 198.309 214.092 197.848 214.092 196.927Z" fill="#263238"/>
<path d="M215.033 196.113C215.018 195.992 215.028 195.869 215.064 195.753C215.099 195.636 215.158 195.528 215.238 195.436C215.317 195.343 215.415 195.269 215.525 195.216C215.635 195.164 215.755 195.135 215.877 195.132C216.367 195.132 216.7 195.524 216.7 196.113C216.7 196.701 216.367 197.093 215.877 197.093C215.755 197.09 215.635 197.062 215.525 197.009C215.415 196.957 215.317 196.882 215.238 196.79C215.158 196.698 215.099 196.59 215.064 196.473C215.028 196.356 215.018 196.234 215.033 196.113ZM216.377 196.113C216.377 195.681 216.19 195.426 215.877 195.426C215.563 195.426 215.367 195.681 215.367 196.113C215.367 196.544 215.563 196.799 215.877 196.799C216.19 196.799 216.377 196.515 216.377 196.113ZM218.044 195.132H218.436L215.984 198.721H215.582L218.044 195.132ZM217.318 197.77C217.344 197.611 217.416 197.463 217.523 197.343C217.631 197.223 217.771 197.137 217.927 197.094C218.083 197.051 218.247 197.054 218.401 197.102C218.555 197.15 218.692 197.241 218.796 197.365C218.899 197.488 218.966 197.639 218.986 197.799C219.007 197.959 218.981 198.121 218.913 198.267C218.844 198.413 218.735 198.536 218.598 198.622C218.461 198.707 218.303 198.752 218.142 198.751C217.651 198.751 217.318 198.358 217.318 197.77ZM218.652 197.77C218.652 197.348 218.455 197.084 218.142 197.084C217.828 197.084 217.642 197.339 217.642 197.77C217.642 198.201 217.838 198.466 218.142 198.466C218.446 198.466 218.652 198.201 218.652 197.77Z" fill="#263238"/>
<path d="M219.505 197.368C219.499 197.088 219.577 196.812 219.728 196.576C219.88 196.34 220.098 196.154 220.356 196.043C220.613 195.931 220.898 195.899 221.174 195.95C221.449 196.001 221.704 196.133 221.904 196.33C222.105 196.526 222.242 196.777 222.299 197.052C222.356 197.327 222.33 197.612 222.224 197.872C222.118 198.132 221.937 198.354 221.704 198.51C221.471 198.667 221.197 198.751 220.917 198.751C220.732 198.759 220.547 198.729 220.374 198.662C220.201 198.596 220.043 198.495 219.911 198.366C219.778 198.236 219.674 198.081 219.604 197.909C219.534 197.737 219.5 197.553 219.505 197.368ZM221.829 197.368C221.841 197.242 221.827 197.115 221.786 196.995C221.746 196.875 221.68 196.764 221.594 196.672C221.508 196.579 221.403 196.506 221.286 196.457C221.169 196.408 221.043 196.384 220.917 196.387C220.7 196.437 220.507 196.558 220.368 196.732C220.229 196.906 220.154 197.121 220.154 197.343C220.154 197.566 220.229 197.781 220.368 197.955C220.507 198.129 220.7 198.25 220.917 198.3C221.039 198.304 221.161 198.282 221.275 198.237C221.389 198.191 221.492 198.123 221.578 198.035C221.664 197.947 221.73 197.843 221.774 197.728C221.817 197.613 221.835 197.49 221.829 197.368Z" fill="#263238"/>
<path d="M223.564 195.77V196.005H224.349V196.407H223.574V198.721H223.084V196.407H222.613V196.005H223.084V195.76C223.075 195.641 223.091 195.522 223.133 195.411C223.175 195.299 223.241 195.198 223.326 195.115C223.411 195.032 223.513 194.968 223.626 194.929C223.738 194.89 223.858 194.875 223.976 194.887C224.174 194.878 224.37 194.933 224.535 195.044L224.388 195.417C224.277 195.336 224.143 195.291 224.005 195.289C223.711 195.289 223.564 195.456 223.564 195.77Z" fill="#263238"/>
<path d="M225.368 195.77V196.005H226.163V196.407H225.378V198.721H224.888V196.407H224.427V196.005H224.888V195.76C224.878 195.64 224.896 195.52 224.938 195.408C224.98 195.296 225.047 195.194 225.133 195.111C225.22 195.028 225.323 194.964 225.437 194.926C225.55 194.887 225.671 194.874 225.79 194.887C225.985 194.879 226.178 194.934 226.339 195.044L226.192 195.417C226.082 195.333 225.948 195.288 225.81 195.289C225.525 195.289 225.368 195.456 225.368 195.77Z" fill="#263238"/>
<path d="M208.924 187.288C208.92 186.862 209.002 186.44 209.167 186.047C209.331 185.654 209.574 185.299 209.881 185.003C210.188 184.707 210.552 184.477 210.95 184.327C211.349 184.177 211.774 184.11 212.199 184.13C212.638 184.114 213.074 184.194 213.479 184.363C213.883 184.532 214.247 184.788 214.543 185.111L213.974 185.67C213.753 185.432 213.484 185.243 213.185 185.117C212.886 184.99 212.563 184.928 212.239 184.934C211.843 184.934 211.454 185.031 211.106 185.219C210.757 185.406 210.461 185.677 210.244 186.007C210.026 186.337 209.895 186.717 209.86 187.11C209.826 187.504 209.89 187.901 210.047 188.264C210.204 188.626 210.449 188.945 210.76 189.189C211.07 189.434 211.437 189.597 211.827 189.665C212.216 189.732 212.617 189.702 212.991 189.576C213.366 189.451 213.704 189.234 213.974 188.945L214.543 189.504C214.243 189.826 213.878 190.08 213.472 190.249C213.067 190.418 212.629 190.499 212.19 190.484C211.762 190.503 211.334 190.434 210.934 190.281C210.534 190.128 210.169 189.894 209.863 189.595C209.557 189.295 209.316 188.936 209.154 188.539C208.993 188.142 208.914 187.716 208.924 187.288Z" fill="#263238"/>
<path d="M215.063 187.994C215.055 187.511 215.191 187.037 215.453 186.632C215.716 186.227 216.093 185.909 216.536 185.719C216.98 185.529 217.47 185.475 217.944 185.565C218.419 185.654 218.856 185.883 219.2 186.221C219.544 186.56 219.779 186.993 219.876 187.466C219.973 187.938 219.927 188.429 219.745 188.876C219.562 189.323 219.25 189.705 218.849 189.974C218.449 190.243 217.977 190.386 217.494 190.386C217.174 190.401 216.855 190.35 216.556 190.236C216.256 190.121 215.984 189.946 215.756 189.722C215.527 189.497 215.348 189.227 215.229 188.93C215.109 188.633 215.053 188.314 215.063 187.994ZM219.063 187.994C219.05 187.684 218.946 187.386 218.764 187.135C218.582 186.885 218.33 186.693 218.04 186.584C217.75 186.476 217.435 186.454 217.133 186.524C216.831 186.593 216.556 186.749 216.343 186.974C216.129 187.198 215.986 187.48 215.932 187.785C215.878 188.09 215.914 188.404 216.037 188.688C216.159 188.972 216.363 189.214 216.622 189.384C216.881 189.553 217.185 189.643 217.494 189.641C217.708 189.646 217.921 189.606 218.119 189.523C218.316 189.441 218.495 189.319 218.642 189.164C218.79 189.009 218.904 188.825 218.976 188.623C219.049 188.422 219.078 188.207 219.063 187.994Z" fill="#263238"/>
<path d="M228.869 187.641V190.337H228.016V187.739C228.016 186.817 227.575 186.366 226.81 186.366C226.61 186.358 226.41 186.394 226.226 186.472C226.042 186.55 225.877 186.668 225.743 186.817C225.609 186.965 225.51 187.142 225.452 187.333C225.394 187.525 225.379 187.727 225.408 187.925V190.337H224.555V187.739C224.555 186.817 224.113 186.366 223.348 186.366C223.148 186.358 222.949 186.394 222.765 186.472C222.58 186.55 222.415 186.668 222.281 186.817C222.148 186.965 222.048 187.142 221.99 187.333C221.932 187.525 221.917 187.727 221.946 187.925V190.337H221.103V185.65H221.907V186.307C222.1 186.066 222.347 185.874 222.628 185.746C222.909 185.618 223.216 185.558 223.525 185.572C223.85 185.55 224.174 185.619 224.462 185.771C224.75 185.923 224.989 186.153 225.153 186.435C225.357 186.154 225.628 185.927 225.941 185.777C226.254 185.626 226.6 185.556 226.947 185.572C227.218 185.549 227.491 185.588 227.745 185.687C227.998 185.785 228.226 185.939 228.411 186.139C228.597 186.338 228.734 186.577 228.813 186.837C228.892 187.097 228.912 187.372 228.869 187.641Z" fill="#263238"/>
<path d="M235.272 187.994C235.289 188.31 235.239 188.626 235.127 188.922C235.014 189.218 234.841 189.487 234.619 189.712C234.396 189.937 234.129 190.113 233.835 190.23C233.541 190.346 233.225 190.399 232.909 190.386C232.587 190.401 232.267 190.336 231.976 190.198C231.685 190.059 231.433 189.851 231.242 189.592V190.337H230.428V183.787H231.281V186.356C231.474 186.112 231.722 185.917 232.005 185.787C232.288 185.657 232.598 185.597 232.909 185.611C233.225 185.597 233.54 185.649 233.834 185.764C234.129 185.879 234.396 186.054 234.618 186.279C234.841 186.503 235.014 186.772 235.127 187.067C235.239 187.363 235.289 187.678 235.272 187.994ZM234.419 187.994C234.406 187.685 234.302 187.387 234.12 187.136C233.939 186.886 233.688 186.694 233.398 186.585C233.109 186.476 232.794 186.454 232.492 186.523C232.191 186.591 231.916 186.747 231.702 186.97C231.488 187.193 231.344 187.475 231.289 187.779C231.233 188.083 231.268 188.397 231.389 188.681C231.511 188.966 231.713 189.208 231.971 189.379C232.229 189.55 232.531 189.641 232.84 189.641C233.055 189.647 233.269 189.608 233.468 189.527C233.667 189.445 233.846 189.323 233.995 189.167C234.144 189.012 234.258 188.828 234.331 188.626C234.404 188.423 234.434 188.208 234.419 187.994Z" fill="#263238"/>
<path d="M236.017 187.994C236.01 187.512 236.145 187.038 236.407 186.633C236.669 186.228 237.046 185.911 237.489 185.72C237.932 185.53 238.421 185.476 238.895 185.564C239.369 185.653 239.806 185.88 240.151 186.218C240.495 186.555 240.732 186.987 240.83 187.46C240.928 187.932 240.883 188.422 240.702 188.869C240.521 189.316 240.211 189.699 239.811 189.969C239.412 190.239 238.941 190.384 238.459 190.386C238.138 190.403 237.817 190.352 237.517 190.239C237.217 190.125 236.943 189.95 236.714 189.725C236.484 189.5 236.304 189.231 236.184 188.933C236.064 188.634 236.007 188.315 236.017 187.994ZM240.028 187.994C240.014 187.684 239.91 187.386 239.728 187.135C239.546 186.885 239.295 186.693 239.005 186.584C238.715 186.476 238.399 186.454 238.098 186.524C237.796 186.593 237.521 186.749 237.307 186.974C237.094 187.198 236.951 187.48 236.897 187.785C236.842 188.09 236.878 188.404 237.001 188.688C237.124 188.972 237.328 189.214 237.587 189.384C237.846 189.553 238.149 189.643 238.459 189.641C238.673 189.646 238.886 189.606 239.083 189.523C239.281 189.441 239.459 189.319 239.607 189.164C239.755 189.009 239.868 188.825 239.941 188.623C240.013 188.422 240.043 188.207 240.028 187.994Z" fill="#263238"/>
<path d="M248.392 189.563V190.337H243.95V189.729L246.519 187.288C247.176 186.65 247.294 186.258 247.294 185.876C247.294 185.238 246.843 184.846 245.98 184.846C245.683 184.832 245.386 184.885 245.112 185.002C244.839 185.12 244.596 185.298 244.401 185.523L243.803 185.003C244.08 184.68 244.427 184.423 244.818 184.253C245.209 184.084 245.633 184.005 246.058 184.023C247.353 184.023 248.176 184.689 248.176 185.748C248.172 186.128 248.081 186.502 247.911 186.842C247.742 187.181 247.497 187.478 247.196 187.709L245.303 189.523L248.392 189.563Z" fill="#263238"/>
<path opacity="0.6" d="M332.436 206.193H201.119V243.984H332.436V206.193Z" fill="white"/>
<path opacity="0.2" d="M253.677 216.911H208.512C208.234 216.911 207.967 216.8 207.771 216.603C207.574 216.407 207.463 216.14 207.463 215.861C207.463 215.583 207.574 215.316 207.771 215.12C207.967 214.923 208.234 214.812 208.512 214.812H253.677C253.815 214.811 253.952 214.837 254.08 214.889C254.208 214.942 254.324 215.019 254.422 215.117C254.52 215.214 254.597 215.33 254.649 215.458C254.702 215.586 254.728 215.723 254.726 215.861C254.728 216 254.702 216.137 254.649 216.264C254.597 216.392 254.52 216.509 254.422 216.606C254.324 216.704 254.208 216.781 254.08 216.833C253.952 216.886 253.815 216.912 253.677 216.911Z" fill="black"/>
<path opacity="0.2" d="M325.043 222.745H208.512C208.234 222.745 207.967 222.634 207.771 222.438C207.574 222.241 207.463 221.974 207.463 221.696C207.463 221.417 207.574 221.151 207.771 220.954C207.967 220.757 208.234 220.647 208.512 220.647H325.043C325.321 220.647 325.588 220.757 325.785 220.954C325.981 221.151 326.092 221.417 326.092 221.696C326.092 221.974 325.981 222.241 325.785 222.438C325.588 222.634 325.321 222.745 325.043 222.745Z" fill="black"/>
<path opacity="0.2" d="M325.043 228.57H208.513C208.374 228.571 208.237 228.545 208.109 228.492C207.982 228.44 207.865 228.363 207.768 228.265C207.67 228.167 207.593 228.051 207.541 227.923C207.488 227.796 207.462 227.658 207.463 227.52C207.463 227.242 207.574 226.975 207.771 226.778C207.967 226.582 208.234 226.471 208.513 226.471H325.043C325.321 226.471 325.588 226.582 325.785 226.778C325.981 226.975 326.092 227.242 326.092 227.52C326.093 227.658 326.067 227.796 326.015 227.923C325.962 228.051 325.885 228.167 325.788 228.265C325.69 228.363 325.574 228.44 325.446 228.492C325.318 228.545 325.181 228.571 325.043 228.57Z" fill="black"/>
<path opacity="0.2" d="M325.043 234.404H208.512C208.234 234.404 207.967 234.293 207.771 234.097C207.574 233.9 207.463 233.633 207.463 233.355C207.463 233.076 207.574 232.81 207.771 232.613C207.967 232.416 208.234 232.305 208.512 232.305H325.043C325.321 232.305 325.588 232.416 325.785 232.613C325.981 232.81 326.092 233.076 326.092 233.355C326.092 233.633 325.981 233.9 325.785 234.097C325.588 234.293 325.321 234.404 325.043 234.404Z" fill="black"/>
<path opacity="0.2" d="M292.743 249.681H285.889C285.64 249.681 285.438 249.883 285.438 250.132V256.986C285.438 257.235 285.64 257.437 285.889 257.437H292.743C292.992 257.437 293.194 257.235 293.194 256.986V250.132C293.194 249.883 292.992 249.681 292.743 249.681Z" fill="black"/>
<path d="M289.801 251.632H288.821V255.486H289.801V251.632Z" fill="white"/>
<path d="M291.243 253.064H287.389V254.045H291.243V253.064Z" fill="white"/>
<path opacity="0.2" d="M247.666 249.681H240.812C240.563 249.681 240.361 249.883 240.361 250.132V256.986C240.361 257.235 240.563 257.437 240.812 257.437H247.666C247.916 257.437 248.117 257.235 248.117 256.986V250.132C248.117 249.883 247.916 249.681 247.666 249.681Z" fill="black"/>
<path d="M244.734 251.632H243.754V255.486H244.734V251.632Z" fill="white"/>
<path d="M246.166 253.064H242.312V254.045H246.166V253.064Z" fill="white"/>
<path d="M324.876 266.792H208.669C206.768 266.792 205.228 268.333 205.228 270.234V281.981C205.228 283.882 206.768 285.423 208.669 285.423H324.876C326.777 285.423 328.318 283.882 328.318 281.981V270.234C328.318 268.333 326.777 266.792 324.876 266.792Z" fill="#D2161D"/>
<path d="M245.98 276.156C245.947 275.32 246.164 274.494 246.604 273.782C247.044 273.071 247.687 272.507 248.45 272.163C249.212 271.82 250.06 271.712 250.885 271.854C251.709 271.995 252.473 272.38 253.077 272.959C253.681 273.538 254.098 274.284 254.275 275.102C254.452 275.919 254.381 276.771 254.07 277.548C253.759 278.325 253.224 278.991 252.532 279.461C251.84 279.931 251.023 280.184 250.186 280.186C249.642 280.213 249.098 280.128 248.587 279.938C248.076 279.747 247.61 279.454 247.216 279.077C246.822 278.699 246.509 278.246 246.297 277.744C246.084 277.242 245.977 276.702 245.98 276.156ZM253.236 276.156C253.244 275.547 253.07 274.949 252.737 274.439C252.403 273.928 251.926 273.529 251.364 273.291C250.803 273.053 250.184 272.988 249.585 273.104C248.987 273.219 248.436 273.51 248.004 273.94C247.572 274.37 247.277 274.918 247.157 275.516C247.038 276.114 247.099 276.733 247.333 277.296C247.568 277.859 247.964 278.339 248.472 278.676C248.98 279.012 249.577 279.19 250.186 279.186C250.589 279.201 250.991 279.133 251.366 278.987C251.742 278.84 252.083 278.617 252.369 278.333C252.655 278.049 252.88 277.709 253.029 277.335C253.178 276.96 253.248 276.559 253.236 276.156Z" fill="white"/>
<path d="M261.355 280.098L259.649 277.676H259.159H257.197V280.079H256.07V272.234H259.149C261.198 272.234 262.434 273.264 262.434 274.98C262.461 275.528 262.305 276.071 261.991 276.521C261.677 276.972 261.222 277.306 260.698 277.47L262.571 280.118L261.355 280.098ZM261.355 274.96C261.355 273.832 260.6 273.195 259.159 273.195H257.197V276.745H259.159C260.561 276.745 261.316 276.088 261.316 274.96H261.355Z" fill="white"/>
<path d="M264.267 272.214H267.591C270.121 272.214 271.847 273.813 271.847 276.137C271.847 278.461 270.121 280.059 267.591 280.059H264.267V272.214ZM267.523 279.078C268.303 279.078 269.051 278.768 269.603 278.217C270.155 277.665 270.465 276.917 270.465 276.137C270.465 275.356 270.155 274.608 269.603 274.057C269.051 273.505 268.303 273.195 267.523 273.195H265.395V279.078H267.523Z" fill="white"/>
<path d="M279.29 279.118V280.098H273.573V272.254H279.133V273.234H274.691V275.656H278.613V276.637H274.691V279.186L279.29 279.118Z" fill="white"/>
<path d="M286.389 280.098L284.683 277.676H284.192H282.231V280.079H281.104V272.234H284.183C286.232 272.234 287.468 273.264 287.468 274.98C287.502 275.532 287.351 276.08 287.038 276.537C286.726 276.993 286.269 277.332 285.742 277.5L287.615 280.147L286.389 280.098ZM286.389 274.96C286.389 273.832 285.634 273.195 284.192 273.195H282.28V276.745H284.192C285.595 276.745 286.35 276.088 286.35 274.96H286.389Z" fill="white"/>
<path opacity="0.2" d="M324.964 123.816C325.749 128.67 324.639 133.64 321.866 137.701C316.669 145.114 307.344 147.595 301.078 153.821C295.4 159.469 292.459 168.471 284.555 171.628C280.947 173.07 276.887 172.883 273.083 172.128C264.817 170.491 257.394 166.343 249.922 162.685C239.94 157.783 228.349 155.674 218.808 150.183C214.416 147.663 210.542 143.859 209.003 139.034C205.688 128.778 212.847 118.737 220.377 112.559C226.016 107.931 232.536 104.057 237.233 98.38C241.558 93.1438 243.342 86.1328 248.323 81.3966C252.354 77.5626 258.129 75.8663 263.679 76.0035C279.015 76.3664 285.81 85.9465 294.684 96.5954C302.049 105.42 315.1 107.009 321.895 116.295C323.501 118.522 324.554 121.101 324.964 123.816Z" fill="white"/>
<path d="M276.201 104.244L273.259 144.898C273.259 144.898 284.045 152.262 296.087 149.134L307.785 112.461C307.785 112.461 300.146 100.714 276.201 104.244Z" fill="#263238"/>
<path d="M275.838 102.812L275.524 107.156C275.524 107.156 284.741 115.814 307.393 115.187L309.491 110.363C304.969 106.376 299.514 103.594 293.632 102.274C287.75 100.955 281.63 101.14 275.838 102.812Z" fill="#263238"/>
<path opacity="0.8" d="M275.838 102.812L275.524 107.156C275.524 107.156 284.741 115.814 307.393 115.187L309.491 110.363C304.969 106.376 299.514 103.594 293.632 102.274C287.75 100.955 281.63 101.14 275.838 102.812Z" fill="white"/>
<path opacity="0.2" d="M308.628 110.431C294.9 112.265 283.133 107.087 278.633 104.705C277.358 104.038 276.672 103.597 276.672 103.597C277.064 103.479 277.456 103.381 277.848 103.283C279.778 102.791 281.746 102.463 283.732 102.302C289.873 101.844 296.025 103.039 301.548 105.764C304.112 106.986 306.494 108.557 308.628 110.431Z" fill="black"/>
<path d="M314.698 94.8402C314.198 99.4096 314.011 106.283 308.628 110.431C303.666 111.069 298.633 110.904 293.724 109.941C290.909 109.402 288.142 108.642 285.448 107.666C283.11 106.846 280.833 105.863 278.633 104.724C278.336 104.269 278.07 103.794 277.838 103.302C277.309 102.194 276.946 100.822 278.211 100.567C280.368 100.135 279.917 99.8901 279.78 98.8311C279.643 97.7721 280.054 96.6738 280.496 97.723C280.937 98.7722 280.574 101.135 281.055 101.42C281.535 101.704 283.888 100.312 283.712 102.4C283.597 103.225 283.617 104.063 283.771 104.881C283.771 104.979 283.83 105.067 283.869 105.166C283.864 105.176 283.861 105.188 283.861 105.2C283.861 105.212 283.864 105.223 283.869 105.234C284.053 105.667 284.369 106.031 284.772 106.274C285.176 106.517 285.645 106.627 286.114 106.587C288.703 106.734 290.458 105.126 293.096 104.381C295.734 103.636 298.911 103.812 299.411 106.597C299.911 109.382 302.127 108.372 301.627 106.44L301.509 105.862C301.186 103.959 301.421 101.586 302.441 102.832C303.461 104.077 302.009 104.567 302.872 105.43C303.735 106.293 304.98 104.842 305.412 102.292C305.843 99.743 307.824 94.1636 305.412 91.0846C303 88.0056 303.794 87.3683 305.412 87.7409C307.03 88.1135 306.157 90.8885 307.755 91.6631C309.354 92.4378 309.864 88.3783 309.001 86.3975C308.138 84.4168 307.04 81.0731 309.491 81.4947C311.942 81.9163 311.452 85.211 311.452 87.3781C311.452 89.5451 312.07 90.9669 312.805 90.1629C312.931 90.0157 313.109 89.924 313.302 89.9074C313.495 89.8909 313.686 89.951 313.835 90.0746C314.443 90.4963 315.002 91.9279 314.698 94.8402Z" fill="#D2161D"/>
<path d="M290.89 91.9573L294.351 88.9862L298.371 91.9573V95.9188L294.91 97.2131L290.89 95.4775V91.9573Z" fill="#D2161D"/>
<path opacity="0.8" d="M290.89 91.9573L294.351 88.9862L298.371 91.9573V95.9188L294.91 97.2131L290.89 95.4775V91.9573Z" fill="white"/>
<path opacity="0.5" d="M294.351 88.9862V93.8596L298.371 95.9188V91.9573L294.351 88.9862Z" fill="white"/>
<path opacity="0.2" d="M313.796 90.0452C313.245 90.492 312.803 91.0576 312.503 91.6995C312.202 92.3414 312.051 93.043 312.06 93.7518C311.864 97.1641 310.766 97.0366 308.628 95.5952C306.49 94.1538 307.236 97.3112 307.755 103.577C308.275 109.843 302.598 110.814 300.087 109.951C297.577 109.088 299.626 108.352 298.048 107.382C296.675 106.528 296.881 109.46 293.723 109.941C293.153 110.001 292.578 110.001 292.007 109.941C288.929 109.617 286.801 108.901 285.447 107.656C284.703 106.978 284.158 106.11 283.869 105.146C284.053 105.579 284.369 105.943 284.772 106.186C285.176 106.429 285.645 106.539 286.114 106.499C288.703 106.646 290.458 105.038 293.096 104.293C295.734 103.548 298.911 103.724 299.411 106.509C299.911 109.294 302.127 108.284 301.627 106.352L301.509 105.773C301.186 103.871 301.421 101.498 302.441 102.744C303.46 103.989 302.009 104.479 302.872 105.342C303.735 106.205 304.98 104.754 305.412 102.204C305.843 99.6547 307.824 94.0753 305.412 90.9964C303 87.9174 303.794 87.28 305.412 87.6526C307.03 88.0253 306.157 90.8003 307.755 91.5749C309.354 92.3495 309.864 88.29 309.001 86.3093C308.138 84.3285 307.04 80.9848 309.491 81.4065C311.942 81.8281 311.452 85.1228 311.452 87.2898C311.452 89.4569 312.07 90.8787 312.805 90.0746C312.937 89.9472 313.112 89.8736 313.295 89.8681C313.478 89.8627 313.657 89.9258 313.796 90.0452Z" fill="black"/>
<path d="M288.938 107.538L285.84 106.862L285.801 103.381L287.997 101.724L290.174 103.097L290.89 106.058L288.938 107.538Z" fill="#D2161D"/>
<path opacity="0.8" d="M288.938 107.538L285.84 106.862L285.801 103.381L287.997 101.724L290.174 103.097L290.89 106.058L288.938 107.538Z" fill="white"/>
<path opacity="0.5" d="M285.84 106.862L288.536 104.822L287.997 101.724L285.801 103.381L285.84 106.862Z" fill="white"/>
<path opacity="0.8" d="M294.635 120.707C303.921 120.707 303.186 138.358 292.047 138.299C280.908 138.24 284.143 120.707 294.635 120.707Z" fill="white"/>
<path opacity="0.2" d="M294.39 122.09C302.235 122.09 301.597 136.946 292.204 136.916C282.81 136.887 285.546 122.09 294.39 122.09Z" fill="black"/>
<path d="M219.358 150.409C219.358 150.409 216.759 154.586 216.759 155.694C216.759 156.802 218.72 162.283 220.005 163.489C221.289 164.696 236.9 168.392 255.923 165.539C274.946 162.685 280.241 153.841 281.172 151.703C282.104 149.565 281.78 141.397 279.731 141.035C277.681 140.672 222.986 147.526 219.358 150.409Z" fill="#263238"/>
<path opacity="0.5" d="M281.172 151.713C280.241 153.841 274.946 162.666 255.923 165.529C236.9 168.392 221.309 164.696 220.005 163.499C218.701 162.303 216.759 156.812 216.759 155.655C216.863 155.043 217.069 154.453 217.367 153.909C218.151 152.321 219.328 150.37 219.328 150.37C222.946 147.496 277.662 140.623 279.701 140.995C280.339 141.103 280.81 141.976 281.123 143.172C281.819 145.879 281.819 150.242 281.172 151.713Z" fill="white"/>
<path opacity="0.2" d="M281.153 143.211C279.28 146.281 272.916 153.527 255.177 156.086C235.203 158.969 218.838 155.253 217.485 154.047L217.367 153.949C218.151 152.36 219.328 150.409 219.328 150.409C222.946 147.536 277.662 140.662 279.701 141.035C280.368 141.142 280.839 142.005 281.153 143.211Z" fill="black"/>
<path d="M218.71 150.271C216.671 150.124 215.641 151.703 216.847 152.723C218.053 153.743 220.289 152.909 220.377 154.959C220.465 157.008 220.564 159.597 221.77 158.204C222.976 156.812 221.868 155.263 225.113 155.792C227.075 156.125 229.673 157.381 231.585 156.116C231.928 155.89 232.213 155.586 232.566 155.38C232.954 155.195 233.357 155.044 233.772 154.929C234.316 154.712 234.838 154.443 235.331 154.125C235.968 153.733 236.704 153.203 236.674 152.448C236.624 152.113 236.46 151.804 236.21 151.574C235.961 151.344 235.64 151.206 235.301 151.183C234.634 151.158 233.968 151.261 233.34 151.487C232.687 151.664 232.033 151.811 231.379 151.929C230.153 152.135 229.055 151.585 227.859 151.38C226.457 151.134 225.045 150.938 223.633 150.772C221.936 150.566 220.328 150.389 218.71 150.271Z" fill="#D2161D"/>
<path d="M237.459 152.821C237.459 152.821 242.597 156.89 244.558 156.812C246.519 156.733 247.117 156.537 247.882 157.645C248.647 158.753 252.108 161.077 252.608 158.763C253.109 156.449 254.952 155.233 256.168 155.606C257.384 155.978 259.688 156.586 260.62 154.87C260.762 154.545 260.975 154.254 261.243 154.02C261.511 153.786 261.827 153.615 262.169 153.517C262.787 153.282 263.414 153.037 264.032 152.831C264.842 152.727 265.639 152.546 266.415 152.291C267.229 151.831 267.533 150.83 268.082 150.075C268.66 149.285 269.514 148.739 270.474 148.546C271.292 148.462 272.114 148.423 272.936 148.428C273.346 148.425 273.75 148.324 274.113 148.133C274.477 147.942 274.789 147.666 275.024 147.33C275.377 146.702 275.279 145.908 275.573 145.241C275.774 144.789 276.139 144.43 276.593 144.236C277.048 144.041 277.559 144.026 278.025 144.192C278.28 144.33 278.56 144.416 278.848 144.447C279.515 144.447 280.133 143.466 280.653 143.859C281.172 144.251 280.927 144.927 281.564 145.212C281.633 144.133 281.565 143.045 281.614 141.966C281.653 141.588 281.581 141.206 281.408 140.868C281.005 140.065 280.376 139.397 279.599 138.946C278.823 138.495 277.931 138.28 277.034 138.328C274.906 138.25 272.622 138.23 270.847 139.417C269.072 140.603 268.239 142.672 266.709 144.104C265.839 144.866 264.869 145.507 263.826 146.006C261.225 147.395 258.54 148.62 255.785 149.673C253.285 150.654 250.147 150.654 247.48 151.036C244.156 151.585 240.793 152.164 237.459 152.821Z" fill="#D2161D"/>
<path d="M279.986 142.603C279.652 143.927 278.368 144.878 277.299 145.643L276.319 146.349C275.718 146.821 275.059 147.214 274.357 147.516C273.62 147.739 272.86 147.883 272.092 147.948C268.998 148.389 266.051 149.555 263.493 151.35C262.853 151.903 262.1 152.308 261.286 152.537C260.554 152.582 259.818 152.559 259.09 152.468C258.724 152.421 258.353 152.478 258.018 152.632C257.683 152.786 257.399 153.032 257.198 153.341C257.128 153.557 257.022 153.759 256.884 153.939C256.715 154.06 256.513 154.128 256.305 154.135C253.866 154.442 251.41 154.602 248.951 154.615C246.451 154.615 243.94 154.488 241.45 154.351L236.547 154.066C235.741 153.988 234.93 153.988 234.125 154.066C233.35 154.164 232.585 154.409 231.82 154.566C230.869 154.71 229.909 154.785 228.947 154.792L226.006 154.861C223.456 154.929 221.26 153.654 218.906 152.743C218.608 152.651 218.336 152.49 218.112 152.272C217.534 151.605 218.112 150.517 217.789 149.693C217.691 149.51 217.615 149.316 217.563 149.114C217.58 148.826 217.66 148.545 217.798 148.291C217.837 148.202 217.866 148.11 217.887 148.016C217.871 147.611 217.76 147.214 217.563 146.859C217.424 146.462 217.348 146.045 217.338 145.624C217.318 145.389 217.318 145.153 217.338 144.918C217.364 144.741 217.417 144.569 217.494 144.408C217.965 143.427 220.152 143.506 221.093 143.27C227.81 141.544 234.684 140.329 241.508 139.132C249.51 137.707 257.534 136.4 265.581 135.21C268.523 134.798 271.465 134.396 274.406 134.082C275.434 133.885 276.479 133.796 277.525 133.818C278.058 133.864 278.557 134.097 278.937 134.475C279.041 134.575 279.124 134.695 279.182 134.828C279.287 135.243 279.249 135.682 279.074 136.073C278.971 136.723 278.971 137.384 279.074 138.034C279.066 138.376 279.147 138.714 279.309 139.015C279.453 139.166 279.578 139.334 279.682 139.515C279.868 139.946 279.682 140.495 279.682 141.015C279.682 141.535 280.172 141.868 279.986 142.603Z" fill="#263238"/>
<path opacity="0.2" d="M278.436 137.985C278.113 139.328 276.828 140.27 275.76 141.035L274.779 141.731C274.181 142.206 273.521 142.599 272.818 142.898C272.085 143.127 271.328 143.275 270.563 143.339C267.462 143.773 264.509 144.943 261.953 146.751C261.312 147.299 260.559 147.701 259.747 147.928C259.014 147.975 258.278 147.949 257.55 147.849C257.185 147.802 256.813 147.859 256.479 148.014C256.144 148.168 255.86 148.414 255.658 148.722C255.591 148.939 255.485 149.142 255.344 149.32C255.176 149.445 254.975 149.516 254.766 149.526C252.329 149.831 249.877 149.995 247.421 150.017C244.911 150.017 242.411 149.879 239.91 149.732L235.007 149.448C234.202 149.374 233.391 149.374 232.585 149.448C231.811 149.556 231.056 149.791 230.281 149.938C229.331 150.092 228.37 150.168 227.408 150.164L224.466 150.242C222.074 150.311 219.985 149.183 217.798 148.281C217.837 148.192 217.866 148.101 217.887 148.006C217.871 147.601 217.76 147.204 217.563 146.849C217.424 146.452 217.348 146.035 217.338 145.614C217.318 145.379 217.318 145.143 217.338 144.908C217.364 144.731 217.417 144.559 217.494 144.398C217.965 143.417 220.152 143.496 221.093 143.26C227.81 141.535 234.684 140.319 241.508 139.122C249.51 137.697 257.534 136.39 265.581 135.2C268.523 134.788 271.465 134.386 274.406 134.073C275.434 133.875 276.479 133.786 277.525 133.808C277.548 133.999 277.611 134.183 277.711 134.347C277.855 134.501 277.98 134.673 278.084 134.857C278.28 135.279 278.084 135.887 278.084 136.347C278.309 137.024 278.623 137.279 278.436 137.985Z" fill="black"/>
<path d="M215.926 143.211C215.533 144.27 223.623 154.978 223.623 154.978C223.623 154.978 235.223 145.79 243.117 144.486C251.01 143.182 277.083 144.584 277.083 144.584C277.083 144.584 278.603 135.475 278.358 133.298C278.113 131.121 220.289 131.474 215.926 143.211Z" fill="#D2161D"/>
<path opacity="0.7" d="M215.926 143.211C215.533 144.27 223.623 154.978 223.623 154.978C223.623 154.978 235.223 145.79 243.117 144.486C251.01 143.182 277.083 144.584 277.083 144.584C277.083 144.584 278.603 135.475 278.358 133.298C278.113 131.121 220.289 131.474 215.926 143.211Z" fill="white"/>
<path d="M223.397 142.515L225.937 147.918C225.937 147.918 231.33 145.957 233.184 147.918C234.244 148.912 234.906 150.257 235.047 151.703C235.047 151.703 236.419 145.673 238.792 147.114C240.407 148.152 241.889 149.384 243.205 150.781C243.205 150.781 246.549 145.3 249.52 147.114L252.461 148.918C252.461 148.918 254.874 143.447 258.59 143.211C262.306 142.976 263.836 143.545 264.15 142.515C264.464 141.486 272.877 135.651 276.779 135.887L280.702 136.112C280.702 136.112 281.447 130.915 283.643 130.915C283.643 130.915 279.192 128.336 279.28 125.13C279.28 123.904 276.407 126.954 274.377 125.13C272.347 123.306 213.788 135.024 213.788 135.024C213.788 135.024 214.229 134.553 211.444 135.887C208.66 137.22 212.562 136.867 211.444 139.75C210.327 142.633 215.533 139.583 217.014 141.652C218.495 143.721 223.397 142.515 223.397 142.515Z" fill="#D2161D"/>
<path opacity="0.5" d="M223.397 142.515L225.937 147.918C225.937 147.918 231.33 145.957 233.184 147.918C234.244 148.912 234.906 150.257 235.047 151.703C235.047 151.703 236.419 145.673 238.792 147.114C240.407 148.152 241.889 149.384 243.205 150.781C243.205 150.781 246.549 145.3 249.52 147.114L252.461 148.918C252.461 148.918 254.874 143.447 258.59 143.211C262.306 142.976 263.836 143.545 264.15 142.515C264.464 141.486 272.877 135.651 276.779 135.887L280.702 136.112C280.702 136.112 281.447 130.915 283.643 130.915C283.643 130.915 279.192 128.336 279.28 125.13C279.28 123.904 276.407 126.954 274.377 125.13C272.347 123.306 213.788 135.024 213.788 135.024C213.788 135.024 214.229 134.553 211.444 135.887C208.66 137.22 212.562 136.867 211.444 139.75C210.327 142.633 215.533 139.583 217.014 141.652C218.495 143.721 223.397 142.515 223.397 142.515Z" fill="white"/>
<path d="M238.135 141.986C233.929 148.487 214.876 150.095 213.406 144.565C213.083 143.4 213.003 142.182 213.17 140.986C213.431 139.101 214.389 137.382 215.857 136.171C223.819 132.033 236.625 134.21 238.547 138.789C238.761 139.312 238.835 139.881 238.763 140.442C238.691 141.002 238.475 141.534 238.135 141.986Z" fill="#D2161D"/>
<path opacity="0.2" d="M238.547 138.789C238.435 139.063 238.297 139.326 238.135 139.574C233.929 146.075 214.876 147.683 213.405 142.162C213.303 141.775 213.224 141.382 213.17 140.986C213.431 139.101 214.389 137.382 215.857 136.171C223.819 132.033 236.625 134.259 238.547 138.789Z" fill="black"/>
<path d="M277.691 138.132C273.494 144.623 254.432 146.241 252.971 140.711C252.644 139.544 252.564 138.322 252.736 137.122C252.998 135.24 253.957 133.526 255.423 132.317C263.375 128.17 276.181 130.356 278.113 134.935C278.324 135.459 278.397 136.029 278.323 136.589C278.249 137.149 278.031 137.681 277.691 138.132Z" fill="#D2161D"/>
<path opacity="0.2" d="M278.113 134.935C277.997 135.21 277.856 135.472 277.691 135.72C273.495 142.211 254.432 143.829 252.971 138.299C252.862 137.913 252.783 137.52 252.736 137.122C252.998 135.24 253.957 133.526 255.423 132.317C263.375 128.17 276.181 130.415 278.113 134.935Z" fill="black"/>
<path d="M244.391 107.156C264.375 105.489 281.653 122.914 277.809 131.925C273.965 140.937 219.858 148.595 214.768 138.269C209.679 127.944 223.368 108.911 244.391 107.156Z" fill="#263238"/>
<path opacity="0.5" d="M244.391 107.156C264.375 105.489 281.653 122.914 277.809 131.925C273.965 140.937 219.858 148.595 214.768 138.269C209.679 127.944 223.368 108.911 244.391 107.156Z" fill="white"/>
<path opacity="0.2" d="M242.93 118.413C242.93 118.413 241.999 120.707 242.93 120.707C243.862 120.707 242.93 118.413 242.93 118.413Z" fill="white"/>
<path opacity="0.2" d="M250.265 115.707C250.265 115.707 251.932 117.932 252.03 116.913C252.128 115.893 250.265 115.707 250.265 115.707Z" fill="white"/>
<path opacity="0.2" d="M239.312 114.863C239.312 114.863 236.802 115.324 237.459 115.971C238.116 116.619 239.312 114.863 239.312 114.863Z" fill="white"/>
<path opacity="0.2" d="M231.33 117.668C231.33 117.668 229.477 117.815 229.752 118.433C230.026 119.05 231.33 117.668 231.33 117.668Z" fill="white"/>
<path opacity="0.2" d="M236.066 110.039C236.066 110.039 234.017 109.755 234.017 110.412C234.017 111.069 236.066 110.039 236.066 110.039Z" fill="white"/>
<path opacity="0.2" d="M243.342 111.147C243.342 111.147 243.019 112.912 243.764 112.726C244.509 112.539 243.342 111.147 243.342 111.147Z" fill="white"/>
<path opacity="0.2" d="M255.021 112.765C255.021 112.765 256.668 113.52 256.668 112.765C256.668 112.01 255.021 112.765 255.021 112.765Z" fill="white"/>
<path opacity="0.2" d="M249.255 108.921C249.255 108.921 250.167 107.941 250.637 108.176C251.108 108.411 249.255 108.921 249.255 108.921Z" fill="white"/>
<path opacity="0.2" d="M241.077 108.921C242.058 108.735 241.538 109.98 241.538 109.98C241.538 109.98 240.057 109.107 241.077 108.921Z" fill="white"/>
<path opacity="0.2" d="M235.047 122.374C235.047 122.374 233.831 123.12 234.017 123.679C234.203 124.237 235.047 122.374 235.047 122.374Z" fill="white"/>
<path opacity="0.2" d="M260.747 118.109C260.747 118.109 262.787 118.874 262.051 119.56C261.316 120.247 260.747 118.109 260.747 118.109Z" fill="white"/>
<path opacity="0.2" d="M249.255 123.786C249.255 123.786 249.833 124.914 249.255 125.13C248.676 125.346 249.255 123.786 249.255 123.786Z" fill="white"/>
<path opacity="0.2" d="M277.809 131.925C273.955 140.936 219.858 148.595 214.768 138.26C214.222 137.114 213.889 135.877 213.788 134.612C213.895 134.921 214.023 135.222 214.17 135.514C219.259 145.839 273.357 138.191 277.211 129.17C277.669 128.053 277.848 126.841 277.73 125.64C278.544 127.651 278.572 129.894 277.809 131.925Z" fill="black"/>
<path d="M352.979 329.352C352.979 329.352 347.439 317.262 353.773 305.348C360.108 293.434 361.932 290.639 357.901 288.188C353.871 285.736 352.018 297.719 352.018 297.719C352.018 297.719 348.615 289.482 351.42 280.863C354.224 272.244 355.989 258.202 352.155 256.692C348.321 255.182 351.42 274.215 348.096 280.696C346.401 276.145 345.306 271.391 344.84 266.557C344.379 259.634 345.105 248.573 342.075 245.739C339.045 242.905 337.104 244.866 340.114 260.144C341.899 269.274 342.884 278.543 343.056 287.845C343.056 287.845 336.476 267.802 332.064 267.253C327.651 266.704 327.661 273.136 331.436 278.794C335.211 284.452 342.497 294.483 343.693 299.69C343.693 299.69 336.476 284.609 329.965 289.237C323.454 293.865 335.613 302.965 341.026 306.26C346.439 309.554 350.194 330.185 350.194 330.185L352.979 329.352Z" fill="#D2161D"/>
<path opacity="0.2" d="M352.979 329.352C352.979 329.352 347.439 317.262 353.773 305.348C360.108 293.434 361.932 290.639 357.901 288.188C353.871 285.736 352.018 297.719 352.018 297.719C352.018 297.719 348.615 289.482 351.42 280.863C354.224 272.244 355.989 258.202 352.155 256.692C348.321 255.182 351.42 274.215 348.096 280.696C346.401 276.145 345.306 271.391 344.84 266.557C344.379 259.634 345.105 248.573 342.075 245.739C339.045 242.905 337.104 244.866 340.114 260.144C341.899 269.274 342.884 278.543 343.056 287.845C343.056 287.845 336.476 267.802 332.064 267.253C327.651 266.704 327.661 273.136 331.436 278.794C335.211 284.452 342.497 294.483 343.693 299.69C343.693 299.69 336.476 284.609 329.965 289.237C323.454 293.865 335.613 302.965 341.026 306.26C346.439 309.554 350.194 330.185 350.194 330.185L352.979 329.352Z" fill="black"/>
<path d="M348.606 334.304C348.606 334.304 353.999 322.135 347.527 310.319C341.055 298.503 339.192 295.719 343.193 293.218C347.194 290.718 349.194 302.661 349.194 302.661C349.194 302.661 352.499 294.375 349.586 285.795C346.674 277.215 344.742 263.242 348.606 261.644C352.469 260.046 349.586 279.147 352.95 285.579C354.589 281.004 355.628 276.234 356.038 271.391C356.411 264.468 355.558 253.417 358.558 250.544C361.559 247.671 363.461 249.563 360.716 264.909C359.041 274.063 358.165 283.344 358.098 292.649C358.098 292.649 364.432 272.518 368.835 271.861C373.237 271.204 373.306 277.745 369.6 283.393C365.893 289.041 358.735 299.268 357.597 304.475C357.597 304.475 364.638 289.286 371.178 293.816C377.719 298.346 365.658 307.632 360.265 310.996C354.871 314.359 351.44 335.059 351.44 335.059L348.606 334.304Z" fill="#D2161D"/>
<path d="M373.492 325.636H328.926L332.534 357.523H369.884L373.492 325.636Z" fill="#263238"/>
<path d="M180.4 342.001H230.516C235.861 342.001 240.194 337.668 240.194 332.323V292.914C240.194 287.569 235.861 283.236 230.516 283.236H180.4C175.054 283.236 170.721 287.569 170.721 292.914V332.323C170.721 337.668 175.054 342.001 180.4 342.001Z" fill="#263238"/>
<path opacity="0.1" d="M180.4 342.001H230.516C235.861 342.001 240.194 337.668 240.194 332.323V292.914C240.194 287.569 235.861 283.236 230.516 283.236H180.4C175.054 283.236 170.721 287.569 170.721 292.914V332.323C170.721 337.668 175.054 342.001 180.4 342.001Z" fill="white"/>
<path opacity="0.2" d="M230.516 342.001C233.081 342.001 235.542 340.983 237.356 339.17C239.171 337.357 240.192 334.898 240.194 332.333V292.914C240.194 291.644 239.944 290.386 239.458 289.212C238.971 288.038 238.258 286.972 237.359 286.074C236.46 285.176 235.393 284.464 234.219 283.979C233.045 283.494 231.787 283.244 230.516 283.246C229.246 283.244 227.988 283.494 226.815 283.979C225.641 284.465 224.575 285.177 223.677 286.075C222.779 286.973 222.067 288.039 221.581 289.213C221.096 290.386 220.847 291.644 220.848 292.914V332.333C220.848 334.897 221.867 337.356 223.68 339.169C225.493 340.983 227.952 342.001 230.516 342.001Z" fill="white"/>
<path d="M170.878 302.749H68.5368L52.9459 222.206C52.5454 220.141 52.6065 218.013 53.1248 215.974C53.6432 213.935 54.6059 212.036 55.944 210.413C57.2821 208.79 58.9626 207.483 60.865 206.586C62.7675 205.689 64.8448 205.223 66.9483 205.222H140.226C143.54 205.225 146.75 206.38 149.306 208.489C151.862 210.598 153.606 213.53 154.238 216.783L170.878 302.749Z" fill="#263238"/>
<g opacity="0.1">
<path d="M170.878 302.749H68.5368L52.9459 222.206C52.5454 220.141 52.6065 218.013 53.1248 215.974C53.6432 213.935 54.6059 212.036 55.944 210.413C57.2821 208.79 58.9626 207.483 60.865 206.586C62.7675 205.689 64.8448 205.223 66.9483 205.222H140.226C143.54 205.225 146.75 206.38 149.306 208.489C151.862 210.598 153.606 213.53 154.238 216.783L170.878 302.749Z" fill="white"/>
</g>
<path opacity="0.2" d="M170.888 302.592H97.6008L80.9312 216.705C80.2983 213.459 78.5518 210.537 75.9934 208.442C73.435 206.347 70.2254 205.212 66.9189 205.232H140.226C143.531 205.218 146.738 206.355 149.295 208.449C151.852 210.543 153.6 213.462 154.238 216.705L170.888 302.592Z" fill="white"/>
<path d="M168.496 245.798C167.752 243.6 166.765 241.492 165.554 239.513C164.447 237.634 163.188 235.85 161.788 234.178C161.294 233.572 160.61 233.149 159.846 232.98C159.082 232.81 158.283 232.902 157.578 233.242C156.873 233.582 156.303 234.15 155.961 234.853C155.618 235.557 155.522 236.355 155.689 237.12L155.738 237.336C156.062 238.856 156.415 240.425 156.719 241.954C155.572 240.738 154.415 239.464 153.267 238.159C150.757 235.306 148.208 232.276 145.776 229.403L145.688 229.305C144.971 228.463 144.062 227.807 143.038 227.393C142.014 226.978 140.904 226.816 139.804 226.922C139.457 226.956 139.113 227.015 138.775 227.099C137.859 227.323 137 227.737 136.255 228.315C135.533 228.862 134.927 229.547 134.472 230.33C134.017 231.113 133.721 231.979 133.601 232.876C133.482 233.774 133.541 234.687 133.776 235.562C134.011 236.436 134.417 237.256 134.97 237.973C136.313 239.728 137.686 241.405 139.088 243.033C140.491 244.661 141.726 245.975 143.119 247.475C144.511 248.975 146.06 250.475 147.668 251.946C148.159 252.387 148.649 252.829 149.159 253.27C150.384 254.342 151.664 255.35 152.993 256.29C154.206 257.144 155.504 257.87 156.866 258.457C157.082 258.545 157.307 258.634 157.572 258.722C157.842 258.821 158.117 258.906 158.396 258.977C158.719 259.065 159.046 259.137 159.376 259.193L159.984 259.271C160.21 259.283 160.435 259.283 160.661 259.271C160.916 259.271 161.132 259.271 161.416 259.271C161.702 259.25 161.987 259.214 162.269 259.163C162.672 259.09 163.069 258.985 163.455 258.849C164.328 258.557 165.146 258.123 165.877 257.565C167.284 256.519 168.315 255.047 168.819 253.368C169.136 252.313 169.278 251.213 169.241 250.113C169.203 248.646 168.952 247.192 168.496 245.798Z" fill="#CE7A63"/>
<path opacity="0.1" d="M168.496 245.798C167.752 243.6 166.765 241.492 165.554 239.513C164.447 237.634 163.188 235.85 161.788 234.178C161.294 233.572 160.61 233.149 159.846 232.98C159.082 232.81 158.283 232.902 157.578 233.242C156.873 233.582 156.303 234.15 155.961 234.853C155.618 235.557 155.522 236.355 155.689 237.12L155.738 237.336C156.062 238.856 156.415 240.425 156.719 241.954C155.572 240.738 154.415 239.464 153.267 238.159C150.757 235.306 148.208 232.276 145.776 229.403L145.688 229.305C144.971 228.463 144.062 227.807 143.038 227.393C142.014 226.978 140.904 226.816 139.804 226.922C139.457 226.956 139.113 227.015 138.775 227.099C137.859 227.323 137 227.737 136.255 228.315C135.533 228.862 134.927 229.547 134.472 230.33C134.017 231.113 133.721 231.979 133.601 232.876C133.482 233.774 133.541 234.687 133.776 235.562C134.011 236.436 134.417 237.256 134.97 237.973C135.951 239.287 137 240.562 138.039 241.807L139.079 243.023C140.386 244.527 141.729 246.007 143.109 247.465C144.56 248.975 146.05 250.466 147.659 251.936L149.022 253.152C149.06 253.193 149.103 253.229 149.149 253.26C150.374 254.332 151.654 255.34 152.983 256.28C154.196 257.134 155.494 257.86 156.856 258.447C157.072 258.536 157.297 258.624 157.562 258.712C157.832 258.811 158.107 258.896 158.386 258.967C158.709 259.055 159.036 259.127 159.366 259.183L159.974 259.261C160.2 259.273 160.426 259.273 160.651 259.261C160.906 259.261 161.122 259.261 161.406 259.261C161.692 259.24 161.977 259.204 162.259 259.153C162.662 259.08 163.059 258.975 163.446 258.84C164.318 258.547 165.136 258.113 165.868 257.555C167.274 256.509 168.306 255.037 168.809 253.358C169.126 252.303 169.269 251.204 169.231 250.103C169.196 248.64 168.948 247.19 168.496 245.798Z" fill="black"/>
<path d="M154.807 236.316L154.238 233.443C154.031 232.397 154.102 231.315 154.444 230.305L155.091 228.403C155.298 227.794 155.711 227.276 156.259 226.939C156.807 226.603 157.455 226.468 158.092 226.559L160.053 226.844C160.414 226.898 160.762 227.022 161.075 227.211C161.388 227.399 161.661 227.648 161.878 227.942C162.095 228.237 162.251 228.571 162.339 228.926C162.426 229.281 162.442 229.65 162.387 230.011L162.122 231.688C162.122 231.688 161.945 236.453 159.543 239.385L158.504 239.16C157.708 239.008 156.959 238.672 156.317 238.178C155.675 237.684 155.158 237.046 154.807 236.316Z" fill="#CE7A63"/>
<path opacity="0.1" d="M154.807 236.316L154.238 233.443C154.031 232.397 154.102 231.315 154.444 230.305L155.091 228.403C155.298 227.794 155.711 227.276 156.259 226.939C156.807 226.603 157.455 226.468 158.092 226.559L160.053 226.844C160.414 226.898 160.762 227.022 161.075 227.211C161.388 227.399 161.661 227.648 161.878 227.942C162.095 228.237 162.251 228.571 162.339 228.926C162.426 229.281 162.442 229.65 162.387 230.011L162.122 231.688C162.122 231.688 161.945 236.453 159.543 239.385L158.504 239.16C157.708 239.008 156.959 238.672 156.317 238.178C155.675 237.684 155.158 237.046 154.807 236.316Z" fill="black"/>
<path opacity="0.2" d="M149.1 253.152L147.737 251.936C146.139 250.466 144.638 248.995 143.187 247.465C141.736 245.935 140.451 244.523 139.157 243.023L138.118 241.807C137.726 237.316 137.775 233.423 138.461 231.433C138.53 231.237 138.608 231.07 138.677 230.913C138.958 231.009 139.234 231.124 139.5 231.256C142.148 232.521 149.443 236.62 149.1 253.152Z" fill="black"/>
<path d="M144.227 231.178C144.756 234.453 151.434 240.876 146.021 246.533C147.757 248.926 152.473 266.606 150.747 270.302C147.806 273.587 128.822 277.019 112.75 278.215C110.74 271.881 111.515 257.741 102.808 237.767C100.788 233.129 104.935 226.314 114.221 222.804C118.361 221.414 122.791 221.124 127.077 221.961C131.636 222.853 143.266 225.324 144.227 231.178Z" fill="#D2161D"/>
<path opacity="0.7" d="M150.747 270.302C147.806 273.587 128.832 277.019 112.75 278.216C111.77 275.029 111.427 269.841 110.27 262.938C109.159 256.198 107.399 249.581 105.014 243.18C104.357 241.415 103.621 239.601 102.808 237.718C100.788 233.1 104.935 226.275 114.221 222.765C118.361 221.374 122.792 221.087 127.077 221.931C131.636 222.814 143.266 225.275 144.227 231.139C144.766 234.404 151.434 240.836 146.021 246.494C147.757 248.926 152.473 266.606 150.747 270.302Z" fill="white"/>
<path d="M139.569 191.092C139.569 191.092 143.491 186.454 133.244 182.679C122.997 178.904 110.201 183.66 109.103 197.544C108.005 211.429 101.513 213.773 107.328 218.499C113.143 223.225 122.497 218.019 131.313 219.068C140.128 220.117 141.481 224.098 142.795 216.371C144.109 208.644 143.168 198.839 143.168 198.839C143.168 198.839 144.884 191.553 139.569 191.092Z" fill="#263238"/>
<path d="M117.967 206.615C117.967 211.684 117.143 219.754 114.221 223.422C114.221 223.422 118.791 226.697 129.646 233.472C133.568 226.53 129.126 225.138 129.126 225.138C125.606 223.314 126.616 220.833 127.508 217.293L117.967 206.615Z" fill="#CE7A63"/>
<path opacity="0.2" d="M127.351 217.244L119.046 210.449C118.71 211.469 118.752 212.575 119.163 213.567C120.35 216.783 123.772 219.735 126.861 221.529C126.813 220.084 126.978 218.641 127.351 217.244Z" fill="black"/>
<path opacity="0.2" d="M104.406 241.66C106.088 245.942 107.483 250.332 108.583 254.8C111.142 249.053 113.349 239.111 112.241 234.973L104.406 241.66Z" fill="black"/>
<path d="M117.085 196.966C116.526 205.173 116.104 208.635 119.605 213.332C124.86 220.401 134.872 219.264 137.824 211.37C140.491 204.271 140.961 192.043 133.558 187.837C126.155 183.63 117.604 188.759 117.085 196.966Z" fill="#CE7A63"/>
<path d="M128.665 203.496C128.587 204.095 128.842 204.624 129.234 204.673C129.626 204.722 130.008 204.281 130.087 203.693C130.165 203.104 129.91 202.565 129.508 202.506C129.106 202.447 128.734 202.898 128.665 203.496Z" fill="#263238"/>
<path d="M136.049 204.555C135.97 205.163 136.225 205.693 136.617 205.742C137.01 205.791 137.392 205.34 137.471 204.761C137.549 204.183 137.294 203.634 136.902 203.585C136.51 203.536 136.127 203.957 136.049 204.555Z" fill="#263238"/>
<path d="M136.696 203.575L138.196 203.34C138.196 203.34 137.333 204.379 136.696 203.575Z" fill="#263238"/>
<path d="M134.195 204.487C134.553 205.929 135.108 207.314 135.843 208.605C135.508 208.785 135.138 208.889 134.759 208.911C134.379 208.933 134 208.872 133.646 208.733L134.195 204.487Z" fill="#BA4D3C"/>
<path d="M114.261 203.899C114.347 204.642 114.59 205.358 114.973 206.001C115.357 206.643 115.873 207.197 116.486 207.625C118.075 208.654 119.536 207.017 119.654 204.918C119.752 203.036 119.046 200.231 117.183 200.016C115.32 199.8 113.986 201.937 114.261 203.899Z" fill="#CE7A63"/>
<path d="M127.655 199.643C127.754 199.643 127.849 199.604 127.92 199.535C128.22 199.204 128.594 198.948 129.011 198.788C129.428 198.628 129.878 198.568 130.322 198.613C130.368 198.622 130.415 198.621 130.46 198.611C130.506 198.602 130.549 198.583 130.587 198.557C130.625 198.53 130.658 198.497 130.683 198.457C130.709 198.418 130.726 198.375 130.734 198.329C130.744 198.283 130.744 198.236 130.735 198.19C130.726 198.144 130.708 198.1 130.681 198.061C130.654 198.023 130.62 197.99 130.58 197.965C130.54 197.94 130.496 197.924 130.45 197.917C129.889 197.843 129.318 197.906 128.787 198.101C128.256 198.296 127.78 198.616 127.4 199.035C127.333 199.103 127.295 199.194 127.295 199.29C127.295 199.385 127.333 199.477 127.4 199.545C127.47 199.608 127.561 199.643 127.655 199.643Z" fill="#263238"/>
<path d="M139.157 201.663C139.246 201.673 139.336 201.652 139.412 201.604C139.451 201.578 139.485 201.543 139.511 201.504C139.537 201.464 139.554 201.419 139.562 201.373C139.571 201.326 139.569 201.278 139.559 201.232C139.548 201.186 139.528 201.142 139.5 201.104C139.189 200.642 138.772 200.259 138.285 199.988C137.798 199.717 137.253 199.565 136.696 199.545C136.601 199.55 136.513 199.592 136.448 199.661C136.384 199.731 136.35 199.823 136.353 199.917C136.358 200.012 136.4 200.101 136.469 200.165C136.539 200.229 136.631 200.263 136.725 200.261C137.173 200.276 137.61 200.397 138 200.616C138.391 200.834 138.724 201.143 138.971 201.516C139.015 201.584 139.08 201.636 139.157 201.663Z" fill="#263238"/>
<path d="M129.332 202.506L130.832 202.281C130.832 202.281 129.95 203.31 129.332 202.506Z" fill="#263238"/>
<path d="M136.392 188.415C134.372 195.828 120.301 201.81 116.33 202.447C112.358 203.085 111.976 195.74 116.035 191.063C120.095 186.386 128.851 182.385 136.392 188.415Z" fill="#263238"/>
<path d="M135.274 188.886C134.688 191.985 133.071 194.795 130.685 196.858C130.685 196.858 135.696 195.574 138.216 192.102L135.274 188.886Z" fill="#263238"/>
<path d="M131.793 211.674C130.995 212.255 130.241 212.895 129.538 213.587L129.116 213.273C127.233 211.851 126.822 210.566 126.949 209.576C127.018 209.094 127.203 208.637 127.488 208.242C127.639 208.01 127.824 207.801 128.037 207.625C128.809 209.019 129.872 210.23 131.156 211.174C131.577 211.498 131.793 211.674 131.793 211.674Z" fill="#263238"/>
<path d="M131.195 211.174L130.518 211.723C128.744 210.38 127.675 209.194 127.577 208.242C127.727 208.01 127.912 207.801 128.126 207.625C128.883 209.014 129.93 210.224 131.195 211.174Z" fill="white"/>
<path d="M129.155 213.273C127.273 211.851 126.861 210.566 126.988 209.576C127.687 210.124 128.288 210.787 128.763 211.537C129.077 212.059 129.214 212.667 129.155 213.273Z" fill="#A24E3F"/>
<path d="M148.237 235.267C148.214 235.352 148.209 235.441 148.224 235.529C148.238 235.616 148.271 235.699 148.32 235.773C148.37 235.846 148.434 235.908 148.509 235.954C148.585 236.001 148.669 236.03 148.757 236.041L155.621 237.022C155.813 237.046 156.007 237.001 156.168 236.895C156.33 236.789 156.449 236.629 156.503 236.443L159.925 223.098C159.952 223.007 159.96 222.912 159.948 222.818C159.936 222.724 159.906 222.634 159.858 222.552C159.81 222.47 159.747 222.399 159.67 222.343C159.594 222.287 159.508 222.247 159.416 222.225L152.552 221.245C152.349 221.244 152.152 221.31 151.991 221.432C151.83 221.554 151.713 221.726 151.659 221.921L148.237 235.267Z" fill="#263238"/>
<path opacity="0.5" d="M152.434 221.941L148.973 235.414C148.941 235.49 148.929 235.572 148.935 235.654C148.942 235.735 148.968 235.814 149.011 235.884C149.054 235.954 149.113 236.013 149.183 236.055C149.253 236.098 149.332 236.123 149.414 236.13L155.238 236.944C155.631 237.002 156.376 236.885 156.474 236.512L159.955 222.99C160.053 222.618 159.425 222.215 159.033 222.157L153.209 221.343C153.027 221.323 152.845 221.374 152.701 221.486C152.556 221.597 152.461 221.76 152.434 221.941Z" fill="white"/>
<path d="M142.579 236.963L144.923 231.923L152.267 237.306C152.267 237.306 149.041 241.719 144.952 242.945L144.138 242.062C143.501 241.391 143.028 240.582 142.757 239.697C142.486 238.812 142.426 237.876 142.579 236.963Z" fill="#CE7A63"/>
<path d="M150.826 230.364L153.13 232.56C153.381 232.798 153.582 233.082 153.723 233.398C153.863 233.713 153.94 234.053 153.949 234.398C153.958 234.743 153.899 235.087 153.776 235.409C153.652 235.732 153.466 236.026 153.228 236.277L152.248 237.306L144.903 231.923L147.482 230.109C147.983 229.757 148.59 229.59 149.2 229.637C149.81 229.683 150.385 229.94 150.826 230.364Z" fill="#CE7A63"/>
<path opacity="0.2" d="M120.409 264.331C117.349 266.527 113.339 264.909 110.27 262.938C109.159 256.198 107.399 249.581 105.014 243.18C105.158 242.806 105.386 242.471 105.681 242.199C108.76 239.64 126.096 260.222 120.409 264.331Z" fill="black"/>
<path d="M114.368 234.659C114.457 235.071 114.594 235.728 114.721 236.277L115.143 238.022C115.437 239.189 115.731 240.356 116.075 241.493C116.711 243.719 117.484 245.903 118.389 248.034C119.149 249.891 120.137 251.647 121.33 253.26C121.772 253.824 122.276 254.337 122.831 254.79C123.19 255.089 123.603 255.319 124.047 255.466C124.047 255.466 124.311 255.515 123.899 255.466H123.546H123.282C122.958 255.535 122.899 255.574 122.87 255.613C122.84 255.653 123.144 255.545 123.478 255.378C124.351 254.889 125.175 254.318 125.939 253.672C127.822 252.134 129.623 250.498 131.332 248.769C134.931 245.2 138.48 241.287 142.05 237.493L142.109 237.434C142.673 236.832 143.434 236.453 144.254 236.366C145.075 236.278 145.899 236.489 146.577 236.958C147.255 237.427 147.743 238.124 147.95 238.922C148.158 239.721 148.072 240.567 147.708 241.307C145.28 246.241 142.467 250.975 139.294 255.466C137.636 257.824 135.818 260.065 133.852 262.173C132.715 263.383 131.474 264.492 130.146 265.488C129.251 266.148 128.28 266.698 127.253 267.125C126.509 267.441 125.728 267.662 124.929 267.782C124.713 267.782 124.419 267.851 124.164 267.871C123.88 267.886 123.595 267.886 123.311 267.871C122.934 267.857 122.557 267.824 122.183 267.772C120 267.5 117.897 266.779 116.006 265.654C114.34 264.655 112.824 263.424 111.505 261.997C109.27 259.558 107.413 256.798 105.994 253.809C104.682 251.117 103.59 248.323 102.729 245.455C102.307 244.053 101.915 242.66 101.592 241.238C101.425 240.532 101.268 239.826 101.131 239.101C100.993 238.375 100.876 237.718 100.739 236.816C100.417 235.018 100.824 233.165 101.868 231.667C102.913 230.168 104.51 229.146 106.308 228.824C108.106 228.503 109.959 228.91 111.457 229.954C112.956 230.999 113.979 232.596 114.3 234.394L114.368 234.659Z" fill="#CE7A63"/>
<path d="M280.721 312.8C275.152 317.046 268.454 316.605 265.434 312.486C263.767 310.211 256.923 315.987 256.923 315.987C263.787 321.527 263.267 323.635 264.326 325.694C265.385 327.754 267.14 329.519 268.552 328.322C270.239 326.881 270.729 325.881 272.857 324.125C275.348 322.076 278.034 319.84 282.31 316.036C284.026 314.536 283.202 310.937 280.721 312.8Z" fill="#263238"/>
<path d="M267.562 312.623L260.698 319.762C250.333 315.693 241.714 311.917 234.546 308.466C201.207 292.394 198.834 283.128 194.186 282.628C193.245 282.67 192.325 282.918 191.49 283.354C180.576 287.992 145.746 313.182 127.753 307.868C107.779 301.984 112.731 278.225 112.731 278.225C166.309 260.438 199.815 257.82 213.562 266.459C227.31 275.097 267.562 312.623 267.562 312.623Z" fill="#D2161D"/>
<path opacity="0.2" d="M267.562 312.623L260.698 319.762C250.333 315.693 241.714 311.917 234.546 308.466C201.207 292.394 198.834 283.128 194.186 282.628C193.245 282.67 192.325 282.918 191.49 283.354C180.576 287.992 145.746 313.182 127.753 307.868C107.779 301.984 112.731 278.225 112.731 278.225C166.309 260.438 199.815 257.82 213.562 266.459C227.31 275.097 267.562 312.623 267.562 312.623Z" fill="black"/>
<path opacity="0.2" d="M234.537 308.466C201.197 292.394 198.824 283.128 194.177 282.628C193.235 282.67 192.315 282.918 191.48 283.354L191.598 282.922C191.598 282.922 206.002 279.108 215.72 282.452C222.75 284.874 230.693 300.2 234.537 308.466Z" fill="black"/>
<path d="M206.561 339.687L209.473 357.524H203.237L197.501 340.511L206.561 339.687Z" fill="#263238"/>
<path d="M128.018 339.687L125.106 357.524H131.352L137.078 340.511L128.018 339.687Z" fill="#263238"/>
<path opacity="0.1" d="M206.561 339.687L209.473 357.524H203.237L197.501 340.511L206.561 339.687Z" fill="white"/>
<path opacity="0.1" d="M128.018 339.687L125.106 357.524H131.352L137.078 340.511L128.018 339.687Z" fill="white"/>
<path d="M161.69 339.687L164.603 357.524H158.366L152.63 340.511L161.69 339.687Z" fill="#263238"/>
<path d="M76.4892 339.687L73.5769 357.524H79.8133L85.5496 340.511L76.4892 339.687Z" fill="#263238"/>
<path d="M211.856 302.592H71.5177C67.5482 302.592 64.3302 305.81 64.3302 309.78V337.01C64.3302 340.98 67.5482 344.198 71.5177 344.198H211.856C215.826 344.198 219.044 340.98 219.044 337.01V309.78C219.044 305.81 215.826 302.592 211.856 302.592Z" fill="#263238"/>
<path opacity="0.1" d="M211.856 302.592H71.5177C67.5482 302.592 64.3302 305.81 64.3302 309.78V337.01C64.3302 340.98 67.5482 344.198 71.5177 344.198H211.856C215.826 344.198 219.044 340.98 219.044 337.01V309.78C219.044 305.81 215.826 302.592 211.856 302.592Z" fill="white"/>
<path opacity="0.2" d="M211.856 302.592H125.547C121.577 302.592 118.359 305.81 118.359 309.78V337.01C118.359 340.98 121.577 344.198 125.547 344.198H211.856C215.826 344.198 219.044 340.98 219.044 337.01V309.78C219.044 305.81 215.826 302.592 211.856 302.592Z" fill="white"/>
<path d="M57.1623 342.001H107.279C112.624 342.001 116.957 337.668 116.957 332.323V292.914C116.957 287.569 112.624 283.236 107.279 283.236H57.1623C51.8172 283.236 47.4842 287.569 47.4842 292.914V332.323C47.4842 337.668 51.8172 342.001 57.1623 342.001Z" fill="#263238"/>
<path opacity="0.1" d="M57.1623 342.001H107.279C112.624 342.001 116.957 337.668 116.957 332.323V292.914C116.957 287.569 112.624 283.236 107.279 283.236H57.1623C51.8172 283.236 47.4842 287.569 47.4842 292.914V332.323C47.4842 337.668 51.8172 342.001 57.1623 342.001Z" fill="white"/>
<path opacity="0.2" d="M107.279 342.001C109.844 342.001 112.304 340.983 114.119 339.17C115.934 337.357 116.955 334.898 116.957 332.333V292.914C116.957 291.644 116.707 290.386 116.22 289.212C115.734 288.038 115.021 286.972 114.122 286.074C113.223 285.176 112.156 284.464 110.982 283.979C109.808 283.494 108.549 283.244 107.279 283.246C106.009 283.244 104.75 283.494 103.576 283.979C102.402 284.464 101.335 285.176 100.436 286.074C99.5373 286.972 98.8242 288.038 98.3377 289.212C97.8512 290.386 97.6008 291.644 97.6008 292.914V332.333C97.6034 334.898 98.6242 337.357 100.439 339.17C102.254 340.983 104.714 342.001 107.279 342.001Z" fill="white"/>
<path d="M226.339 351.532C226.422 347.791 225.993 344.057 225.064 340.432C225.064 340.432 232.34 336.579 232.703 339.344C233.36 344.364 238.047 351.699 243.852 352.689C247.166 353.258 244.989 355.788 242.607 356.406C238.812 357.386 238.478 356.798 235.154 355.798C232.321 354.935 231.232 354.601 228.889 355.219C226.967 355.729 226.437 353.837 226.339 351.532Z" fill="#263238"/>
<path d="M233.772 339.687L224.947 343.845C224.947 343.845 203.266 311.672 200.187 303.181C200.187 303.181 185.391 303.475 165.417 302.857C161.789 302.749 159.641 302.857 155.729 302.592C155.729 302.592 174.595 285.589 191.598 282.922C192.47 282.785 193.323 282.687 194.177 282.628C194.177 282.628 209.297 281.442 213.572 285.099C217.847 288.757 233.772 339.687 233.772 339.687Z" fill="#D2161D"/>
<path opacity="0.2" d="M233.772 339.687L224.947 343.845C224.947 343.845 203.266 311.672 200.187 303.181C200.187 303.181 185.391 303.475 165.417 302.857C161.789 302.749 159.641 302.857 155.729 302.592C155.729 302.592 174.595 285.589 191.598 282.922C192.47 282.785 193.323 282.687 194.177 282.628C194.177 282.628 209.297 281.442 213.572 285.099C217.847 288.757 233.772 339.687 233.772 339.687Z" fill="black"/>
<path opacity="0.2" d="M191.607 282.922C184.979 290.875 174.085 297.886 165.426 302.857C161.798 302.749 159.651 302.857 155.738 302.592C155.729 302.592 174.595 285.589 191.607 282.922Z" fill="black"/>
</svg>
